<?xml version="1.0" encoding="UTF-8" standalone="no"?>
<svg
   xmlns:dc="http://purl.org/dc/elements/1.1/"
   xmlns:cc="http://creativecommons.org/ns#"
   xmlns:rdf="http://www.w3.org/1999/02/22-rdf-syntax-ns#"
   xmlns:svg="http://www.w3.org/2000/svg"
   xmlns="http://www.w3.org/2000/svg"
   xmlns:sodipodi="http://sodipodi.sourceforge.net/DTD/sodipodi-0.dtd"
   xmlns:inkscape="http://www.inkscape.org/namespaces/inkscape"
   id="SVGRoot"
   version="1.1"
   viewBox="0 0 800 800"
   inkscape:version="1.0 (1.0+r73+1)"
   sodipodi:docname="diagram.svg">
  <defs
     id="defs946" />
  <sodipodi:namedview
     id="base"
     pagecolor="#ffffff"
     bordercolor="#666666"
     borderopacity="1.0"
     inkscape:pageopacity="0.0"
     inkscape:pageshadow="2"
     inkscape:zoom="0.49497475"
     inkscape:cx="212.08746"
     inkscape:cy="416.36703"
     inkscape:document-units="px"
     inkscape:current-layer="layer1"
     inkscape:document-rotation="0"
     showgrid="false"
     inkscape:window-width="1366"
     inkscape:window-height="713"
     inkscape:window-x="0"
     inkscape:window-y="27"
     inkscape:window-maximized="1" />
  <metadata
     id="metadata949">
    <rdf:RDF>
      <cc:Work
         rdf:about="">
        <dc:format>image/svg+xml</dc:format>
        <dc:type
           rdf:resource="http://purl.org/dc/dcmitype/StillImage" />
        <dc:title></dc:title>
      </cc:Work>
    </rdf:RDF>
  </metadata>
  <g
     inkscape:label="Layer 1"
     inkscape:groupmode="layer"
     id="layer1">
    <path
       id="p3234"
       style="display:inline;opacity:1;fill:#cdde87;fill-opacity:0.278431;stroke:none;stroke-width:1;stroke-miterlimit:4;stroke-dasharray:none;stroke-opacity:1"
       inkscape:label=""
       d="M 735.67218,589.80016 C 627.58928,777.00522 388.21105,841.14644 201.00599,733.06354 13.80093,624.98065 -50.340287,385.60242 57.742608,198.39734 128.13229,76.478839 254.20891,6.7559966 385.29469,2.8079613 455.49024,0.69377862 527.12225,17.440755 592.4088,55.133966 779.61386,163.21686 843.75507,402.59511 735.67218,589.80016"
       sodipodi:nodetypes="cssssc">
      <title
         id="title870">Nuclear pores</title>
    </path>
    <path
       id="circle905"
       style="display:inline;opacity:1;fill:#cdde87;fill-opacity:0.278431;stroke:#89a02c;stroke-width:1;stroke-miterlimit:4;stroke-dasharray:none;stroke-opacity:1"
       inkscape:label=""
       d="M 701.74842,570.21428 C 604.48251,738.6838 389.06138,796.40572 220.59186,699.13978 52.122354,601.87388 -5.5995694,386.45275 91.666368,217.98322 154.96767,108.34213 268.31354,45.608137 386.19248,41.975974 449.44096,40.027079 513.99447,55.093093 572.82292,89.057726 741.29243,186.32363 799.01435,401.74477 701.74842,570.21428"
       sodipodi:nodetypes="cssssc">
      <title
         id="title903">Nucleoplasm</title>
    </path>
    <circle
       style="display:inline;opacity:1;fill:#cdde87;fill-opacity:0.278431;stroke:#89a02c;stroke-width:1;stroke-miterlimit:4;stroke-dasharray:none;stroke-opacity:1"
       id="circle899"
       cx="490.4744"
       cy="369.90079"
       r="159.38542"
       inkscape:label="">
      <title
         id="title897">Nucleolus</title>
    </circle>
    <path
       style="display:inline;opacity:1;fill:#cdde87;fill-opacity:0.278431;stroke:#89a02c;stroke-width:1;stroke-linecap:butt;stroke-linejoin:miter;stroke-miterlimit:4;stroke-dasharray:none;stroke-opacity:1"
       d="M 455.11469,45.512857 C 494.78067,59.248247 509.2058,24.965407 461.98023,9.7276979 273.2194,-14.482248 194.59011,54.669664 114.58575,120.6433 c -29.909815,38.78815 7.07003,52.65727 32.6606,25.43214 87.6954,-89.341838 206.62,-113.417727 307.86834,-100.562583 z"
       id="path915"
       sodipodi:nodetypes="ccccc">
      <title
         id="title900">Nuclear envelope</title>
    </path>
    <path
       style="display:inline;opacity:1;fill:#cdde87;fill-opacity:0.278431;stroke:#89a02c;stroke-width:1;stroke-linecap:butt;stroke-linejoin:miter;stroke-miterlimit:4;stroke-dasharray:none;stroke-opacity:1"
       d="m 667.26789,109.94159 c -32.41,-23.813855 -52.40134,7.7192 -30.31163,27.36119 106.0843,98.54146 125.02196,232.48099 104.76206,325.27878 -10.95488,27.55555 23.59505,44.75895 37.56679,11.64768 C 810.6143,302.0374 740.22654,187.58991 667.26789,109.94159 Z"
       id="path917"
       sodipodi:nodetypes="ccccc">
      <title
         id="title902">Nuclear envelope</title>
    </path>
    <path
       style="display:inline;opacity:1;fill:#cdde87;fill-opacity:0.278431;stroke:#89a02c;stroke-width:1;stroke-linecap:butt;stroke-linejoin:miter;stroke-miterlimit:4;stroke-dasharray:none;stroke-opacity:1"
       d="M 56.269933,302.75584 C 17.080359,443.02263 77.935708,565.88956 129.04628,622.5255 146.84304,649.33588 118.62368,668.71709 91.941128,637.93631 16.131992,546.20448 -13.652154,443.14803 16.449422,304.25977 23.987041,273.3327 64.24718,278.39361 56.269933,302.75584 Z"
       id="path919"
       sodipodi:nodetypes="ccccc">
      <title
         id="title898">Nuclear envelope</title>
    </path>
    <path
       style="display:inline;opacity:1;fill:#cdde87;fill-opacity:0.278431;stroke:#89a02c;stroke-width:1;stroke-linecap:butt;stroke-linejoin:miter;stroke-miterlimit:4;stroke-dasharray:none;stroke-opacity:1"
       d="M 667.55945,621.25279 C 581.09451,724.861 434.27278,769.25321 302.64259,733.99712 c -22.55367,-3.858 -33.61913,32.3028 3.03033,42.1148 133.5166,27.23039 278.94254,0.94645 383.26063,-120.40595 26.89898,-27.80147 -2.54902,-53.59072 -21.3741,-34.45318 z"
       id="path921"
       sodipodi:nodetypes="ccccc">
      <title
         id="title904">Nuclear envelope</title>
    </path>
    <path
       style="display:inline;opacity:1;fill:none;fill-opacity:0.278431;stroke:#89a02c;stroke-width:29.9434;stroke-linecap:butt;stroke-linejoin:miter;stroke-miterlimit:4;stroke-dasharray:none;stroke-opacity:0.262745"
       d="m 338.55767,276.5597 c 0,0 -44.4096,-72.33591 -72.907,-74.68802 -35.56687,-2.93565 -62.54679,46.35595 -42.40004,70.90707 18.05212,21.99861 62.93012,37.13358 79.6366,18.33194 11.79257,-13.27151 14.09063,-143.51454 -51.7023,-138.26559 -58.98077,4.70548 45.06801,85.77223 10.64032,105.37835 -15.37922,8.75829 -92.4231,-15.29697 -86.23653,23.28972 5.32331,33.20235 80.95835,42.3597 89.06966,74.99311 5.1146,20.57706 -9.40932,52.04007 -30.2474,55.95769 -29.90548,5.62232 -33.62987,-73.42532 -71.59218,-27.49626 -49.81325,60.26702 38.72817,39.63662 44.32825,88.52839 3.72313,32.50504 141.36641,-7.17934 146.84802,25.07573 3.22649,18.98537 -31.19858,35.72719 -46.54798,24.09748 -28.98915,-21.9641 -17.28243,-83.12712 -44.21647,-76.01691 -26.30629,6.94453 -40.08246,59.78238 -35.75561,78.23173 6.32273,26.95974 38.79381,19.12553 60.34658,36.51183 32.99675,26.61796 5.54897,66.12356 5.54897,66.12356"
       id="path1111"
       sodipodi:nodetypes="csssssssssssssssc">
      <title
         id="title1115">Chromatin</title>
    </path>
    <path
       d="m 487.08857,548.89486 c -26.60817,15.45867 -56.95169,24.30391 -89.88253,24.30391 -15.46099,0 -30.46955,-1.94976 -44.79614,-5.61828 m -5.26917,-353.24527 c 15.90063,-4.59329 32.69749,-5.7303 50.06531,-5.7303 6.65642,0 13.22896,0.36139 19.69934,1.06575 m 132.37327,331.80267 c -38.13141,37.85523 -94.28154,61.97556 -152.07261,61.97556 -20.10881,0 -39.56114,-2.82878 -57.98566,-8.11256 m -2.82303,-408.66662 c 16.5545,-4.19582 42.96013,-8.31492 60.80869,-8.31492 29.18867,0 56.99424,5.96014 82.2808,16.73721 m 125.42009,317.98901 c -41.34631,72.52348 -118.66645,119.1055 -207.70089,119.1055 -21.03888,0 -41.44478,-2.72772 -60.88762,-7.85094 m -1.63698,-466.97963 c 20.15918,-5.53836 40.62075,-7.73878 62.5246,-7.73878 52.37727,0 100.83139,16.90595 140.26937,45.59192 m 115.32378,273.31599 c -32.74905,110.88449 -134.78806,190.71248 -255.59315,190.71248 -22.69852,0 -44.73451,-2.85496 -65.77283,-8.22755 M 329.1091,131.60018 c 21.96428,-5.89292 44.28806,-9.03404 68.09694,-9.03404 78.57965,0 149.21921,34.21565 198.01375,88.65194 m 88.00637,179.68378 c 0,158.98763 -128.05555,287.87256 -286.02012,287.87256 -25.63231,0 -50.47709,-3.39358 -74.11505,-9.7587 m 4.16156,-557.01432 c 24.42685,-6.83261 43.36362,-8.97209 69.95349,-8.97209 157.96454,0 286.02012,128.88492 286.02012,287.87255 m 23.89063,0 A 309.91071,311.91791 0 0 1 397.20604,702.81976 309.91071,311.91791 0 0 1 87.295322,390.90186 309.91071,311.91791 0 0 1 397.20604,78.983932 309.91071,311.91791 0 0 1 707.11679,390.90186 m 20.90428,0 A 330.815,332.9576 0 0 1 397.20604,723.85945 330.815,332.9576 0 0 1 66.391036,390.90186 330.815,332.9576 0 0 1 397.20604,57.944243 330.815,332.9576 0 0 1 728.02107,390.90186 Z"
       style="display:none;opacity:0.995;fill:none;fill-opacity:0.273092;stroke:#ff02d1;stroke-width:1;stroke-miterlimit:4;stroke-dasharray:none;stroke-opacity:1"
       id="GO0005654"
       inkscape:label="nucleoplasm" />
    <path
       d="m 512.58881,369.58184 a 22.543538,22.543538 0 0 1 -22.54357,22.54353 22.543538,22.543538 0 0 1 -22.54354,-22.54353 22.543538,22.543538 0 0 1 22.54354,-22.54357 22.543538,22.543538 0 0 1 22.54357,22.54357 m 25.56647,0 a 48.110013,48.110013 0 0 1 -48.11004,48.11 48.110013,48.110013 0 0 1 -48.11001,-48.11 48.110013,48.110013 0 0 1 48.11001,-48.11004 48.110013,48.110013 0 0 1 48.11004,48.11004 m 24.06256,0 a 72.172577,72.172577 0 0 1 -72.1726,72.17257 72.172577,72.172577 0 0 1 -72.17257,-72.17257 72.172577,72.172577 0 0 1 72.17257,-72.17261 72.172577,72.172577 0 0 1 72.1726,72.17261 m 27.07038,0 a 99.242967,99.242967 0 0 1 -99.24298,99.24294 99.242967,99.242967 0 0 1 -99.24295,-99.24294 99.242967,99.242967 0 0 1 99.24295,-99.243 99.242967,99.242967 0 0 1 99.24298,99.243 m 24.06256,0 A 123.30552,123.30552 0 0 1 490.04524,492.88735 123.30552,123.30552 0 0 1 366.73973,369.58184 123.30552,123.30552 0 0 1 490.04524,246.27628 123.30552,123.30552 0 0 1 613.35078,369.58184 m 22.55866,0 A 145.86418,145.86418 0 0 1 490.04524,515.44601 145.86418,145.86418 0 0 1 344.18107,369.58184 145.86418,145.86418 0 0 1 490.04524,223.71762 145.86418,145.86418 0 0 1 635.90944,369.58184 Z"
       style="display:none;opacity:0.995;fill:#eef4d7;fill-opacity:0.278431;stroke:#c700c9;stroke-width:1;stroke-miterlimit:4;stroke-dasharray:none;stroke-opacity:1"
       id="GO0005730"
       inkscape:label="nucleolus" />
    <path
       inkscape:label="nuclear_membrane"
       d="m 297.25997,750.40256 c 136.27294,24.02699 269.32559,21.00373 385.65418,-122.50192 M 643.59252,118.23216 c 120.9652,115.76323 143.92076,234.10567 111.91535,353.89445 M 35.620046,299.71649 c -36.7451754,113.64177 1.234446,224.6148 77.130834,334.23364 m 7.56185,-494.54479 C 219.19953,43.592019 335.49931,10.90079 466.64532,32.027105"
       style="display:none;fill:none;stroke:#e400dd;stroke-width:1;stroke-linecap:butt;stroke-linejoin:miter;stroke-miterlimit:4;stroke-dasharray:none;stroke-opacity:1"
       id="GO0031965" />
    <path
       sodipodi:nodetypes="cccccccccccccccccccccccccccccccccccccccccccccccc"
       id="GO0000790"
       d="m 303.37056,603.51952 3.26092,-12.74312 -19.10288,-33.47794 -42.76711,-10.94176 -21.36537,-23.64074 3.14156,-31.61967 16.44716,-38.33324 26.98293,-13.23189 11.05871,26.39849 18.73653,44.60874 11.37643,16.79502 22.81801,3.16141 23.69093,-25.4876 -5.44264,-21.1264 -22.57017,-3.848 -48.52955,5.51108 h -40.07964 l -29.59999,-6.72599 -10.34231,-22.67667 -33.17184,-20.16581 -20.96748,-18.4851 7.81358,-35.00767 29.93875,-18.11668 21.1209,25.36975 19.92891,22.39393 19.02871,-7.39118 19.74397,-22.01043 5.56607,-31.5779 -27.07651,-24.67476 -53.57539,-23.44214 -20.07709,-29.88416 19.23624,-17.65325 37.4947,2.47661 39.84763,-1.5258 6.00025,-21.36922 -24.73141,-39.05407 -10.73115,-32.38958 31.33822,-14.87214 27.23633,32.33006 10.19407,41.79506 1.01015,41.3275 v 28.582 l -32.57785,9.00586 -50.41546,-26.26396 -9.88243,-40.61413 28.35773,-32.97256 37.99072,5.05797 46.83327,51.55026"
       style="display:none;fill:none;stroke:#000000;stroke-width:1px;stroke-linecap:butt;stroke-linejoin:miter;stroke-opacity:1" />
    <path
       inkscape:label="nuclear_pore"
       d="m 498.40507,35.051836 c 42.34636,15.433749 84.69268,24.851602 127.03904,71.081374 m 128.55138,388.67893 c -12.69773,53.24772 -32.68524,91.91592 -57.47004,120.98954 m -567.1385,33.27213 c 39.5565,35.04685 78.45358,70.48937 137.62561,93.76691 M 102.16431,165.1156 C 78.816224,199.79447 57.576812,235.87916 46.206649,278.5433"
       style="display:none;fill:none;stroke:#e600dc;stroke-width:1;stroke-linecap:butt;stroke-linejoin:miter;stroke-miterlimit:4;stroke-dasharray:none;stroke-opacity:1"
       id="GO0005643" />
    <path
       id="unlocalized"
       style="display:none;fill:none;stroke:#000000;stroke-width:1px;stroke-linecap:butt;stroke-linejoin:miter;stroke-opacity:1"
       d="m 771.01027,614.67915 -68.9111,67.96192 -98.07123,81.23919 51.87414,7.70241 101.91622,-95.75868 3.32072,57.86224 -47.78118,37.86808 32.08689,1.12933 M 49.064056,635.77499 l 93.857484,93.064 70.33357,30.50613 -47.05703,4.4339 -80.885337,-35.20619 -52.796747,-60.39084 -1.658052,56.31687 33.192133,33.96675 M 600.69142,29.724497 l 92.17272,74.918803 69.83531,100.33462 5.53339,-69.98759 -49.5775,-72.701454 -73.80057,-39.806292 84.91317,6.427483 40.35302,28.493929 M 232.70033,17.822219 153.24453,67.187829 70.937444,131.99541 22.673929,219.84175 20.108565,175.28079 50.91014,102.01066 192.71372,20.085907 154.39587,14.873994 59.152742,59.533445 16.032411,108.12131"
       sodipodi:insensitive="true" />
  </g>
</svg>
