<?xml version="1.0" encoding="UTF-8" standalone="no"?>
<svg
   xmlns:dc="http://purl.org/dc/elements/1.1/"
   xmlns:cc="http://creativecommons.org/ns#"
   xmlns:rdf="http://www.w3.org/1999/02/22-rdf-syntax-ns#"
   xmlns:svg="http://www.w3.org/2000/svg"
   xmlns="http://www.w3.org/2000/svg"
   xmlns:sodipodi="http://sodipodi.sourceforge.net/DTD/sodipodi-0.dtd"
   xmlns:inkscape="http://www.inkscape.org/namespaces/inkscape"
   sodipodi:docname="diagram.svg"
   inkscape:version="1.0 (1.0+r73+1)"
   viewBox="0 0 800 800"
   version="1.1"
   id="SVGRoot">
  <defs
     id="defs2280" />
  <sodipodi:namedview
     inkscape:window-maximized="1"
     inkscape:window-y="27"
     inkscape:window-x="0"
     inkscape:window-height="713"
     inkscape:window-width="1366"
     showgrid="false"
     inkscape:document-rotation="0"
     inkscape:current-layer="layer1"
     inkscape:document-units="px"
     inkscape:cy="430.71006"
     inkscape:cx="166.61688"
     inkscape:zoom="0.56666079"
     inkscape:pageshadow="2"
     inkscape:pageopacity="0.0"
     borderopacity="1.0"
     bordercolor="#666666"
     pagecolor="#ffffff"
     id="base" />
  <metadata
     id="metadata2283">
    <rdf:RDF>
      <cc:Work
         rdf:about="">
        <dc:format>image/svg+xml</dc:format>
        <dc:type
           rdf:resource="http://purl.org/dc/dcmitype/StillImage" />
        <dc:title />
      </cc:Work>
    </rdf:RDF>
  </metadata>
  <g
     id="layer1"
     inkscape:groupmode="layer"
     inkscape:label="Layer 1">
    <path
       inkscape:label=""
       sodipodi:nodetypes="csccssccsccsccssccccccccsssccccccccc"
       d="M 541.7022,51.656729 C 529.32636,363.45811 262.92765,442.95117 74.257039,349.5565 21.759535,323.56962 3.862564,410.98137 101.11578,447.72389 l -4.3155,24.81885 C 75.641632,465.23526 74.586502,461.80041 52.301284,453.45973 8.30853,436.99426 -11.144928,496.17232 22.046599,520.80335 65.046313,552.71291 150.03181,573.42981 243.93329,578.76147 l -0.11685,26.69975 c -52.51675,2.20767 -79.1944,-4.54349 -114.84271,-15.30155 -44.225543,-13.34643 -77.391219,58.18277 -6.58833,83.48808 183.28875,57.68139 346.83482,4.3876 412.87047,-81.18792 38.73683,-67.32656 -12.01688,-85.93962 -35.25819,-72.28842 -49.5918,29.12853 -56.87112,59.23268 -163.12912,80.73587 l -0.48858,-27.16007 c 15.92377,-2.82449 48.69645,-13.65713 63.95321,-23.64737 67.22353,-44.01854 6.73142,-78.82254 -24.84126,-73.00626 -84.89803,15.63959 -117.13563,15.12867 -185.45018,14.35379 l 3.13685,-22.52057 c 127.07587,4.11299 197.51677,-21.59458 281.82191,-85.36952 l 21.09552,27.26121 c -53.00385,38.90156 -5.44966,82.74402 53.97133,52.9256 37.41514,-22.5779 37.63161,-30.49069 63.37393,-58.80002 l 21.34035,10.51784 c -62.73238,77.72266 17.2832,98.26201 54.48365,58.26172 26.39553,-26.7234 75.68771,-88.73691 96.49827,-177.67735 7.43206,-31.76307 11.23157,-66.96046 9.05836,-105.21115 -3.37297,-59.36674 -63.0695,-51.7005 -68.74593,-7.82086 -7.61246,58.84531 -21.95753,109.46639 -47.22458,154.04977 l -21.63964,-8.74117 C 702.46909,245.76385 712.8894,155.15148 702.28645,75.178432 691.23781,19.621917 636.1934,19.03943 637.12494,65.875687 626.07785,214.23382 605.93885,284.35997 549.63421,346.59837 L 533.78184,328.84504 C 582.14487,287.55589 621.55618,149.13632 614.45373,60.561758 608.17855,-4.1238105 540.33791,-5.2853935 541.70208,51.656706 Z"
       style="display:inline;opacity:1;fill:#cdde87;fill-opacity:0.278431;stroke:#89a02c;stroke-width:1.08468;stroke-linecap:butt;stroke-linejoin:miter;stroke-miterlimit:4;stroke-dasharray:none;stroke-opacity:1"
       id="path948">
      <title
         id="title946">Rough endoplasmic reticulum membrane</title>
    </path>
    <path
       id="p034529"
       style="display:inline;opacity:1;fill:#cdde87;fill-opacity:0.278431;stroke:#89a02c;stroke-width:1.08468;stroke-linecap:butt;stroke-linejoin:miter;stroke-miterlimit:4;stroke-dasharray:none;stroke-opacity:1"
       d="m 97.25699,384.58114 c -28.144864,-9.81132 -40.159856,24.48241 35.32744,49.77517 l -15.20734,69.64498 c -21.15859,-7.30745 -29.242416,-7.37567 -52.00176,-14.23856 -21.024578,-6.33984 -19.813606,18.65748 -3.968755,24.53679 69.910535,25.93973 121.382065,30.01013 206.406645,35.66936 l 2.01429,86.55762 c -33.97029,1.58405 -69.12689,-0.64826 -113.76625,-11.30494 -33.34421,-7.96041 -30.21393,20.93116 -2.37708,24.89449 111.28862,35.65053 252.85882,19.86481 349.89829,-64.30849 16.13158,-15.90489 7.26269,-36.78897 -14.58604,-20.90147 -61.64691,44.8271 -112.21491,61.75516 -176.48221,70.3102 l -5.92315,-87.65265 c 27.12936,-1.43973 42.68385,-8.19682 60.19385,-12.90135 47.93483,-12.87882 30.52849,-33.5913 -0.84318,-26.72543 -70.93318,15.52408 -151.89303,12.05899 -205.85067,4.95781 l 11.71298,-70.7246 c 135.63656,9.52791 235.48243,-28.67263 301.4412,-90.60146 l 55.6653,57.65108 c -37.3095,26.26535 -21.23203,51.15666 14.69306,24.8691 30.41161,-23.44331 35.04844,-32.20889 60.79076,-60.51821 l 64.08804,31.77417 c -41.14864,51.23926 -10.86034,63.01188 8.90768,38.34784 52.59792,-64.80651 94.16362,-140.37498 93.72219,-229.55081 -0.14036,-28.32851 -23.52408,-29.32394 -25.77494,-2.51129 -4.96467,59.14218 -24.24442,117.81168 -53.37604,159.0023 L 627.14286,341.12743 C 672.37982,233.68449 686.88294,159.28511 681.59612,94.544129 679.27271,73.588746 657.96522,85.802786 656.66876,103.21328 645.62178,251.57137 620.68799,304.70536 554.12307,381.70857 L 500.60846,327.86752 C 553.82534,272.20626 588.54492,188.31437 589.79333,79.378196 582.20841,34.885624 564.24583,54.078536 564.09372,78.792026 551.46318,359.39538 297.64718,460.28084 97.25719,384.58103 Z"
       sodipodi:nodetypes="cccssccsccsccssccccccccsscccccccccc"
       inkscape:label="">
      <title
         id="title2948">Rough endoplasmic reticulum membrane</title>
    </path>
    <path
       sodipodi:insensitive="true"
       id="GO0048237"
       style="display:none;fill:none;stroke:#e800dd;stroke-width:2.23004px;stroke-linecap:butt;stroke-linejoin:miter;stroke-opacity:1"
       d="m 282.24719,531.35233 9.55734,116.2806 M 602.417,348.17065 l 92.3873,49.3794 M 474.98623,329.05602 551.4447,405.51449 M 151.63066,416.66467 132.51607,517.0164 m 17.52175,117.87346 c 111.07075,32.44855 223.96784,17.41224 339.28439,-60.52961 m 266.0117,-361.58478 c -7.48127,74.22522 -19.15004,148.17129 -89.20155,218.22517 m -146.54537,0 C 652.95608,346.90908 651.14583,224.19485 670.91105,107.64508 M 57.650502,497.90178 C 160.51292,530.32837 264.3669,547.88098 371.44874,517.0164 M 570.55932,83.751818 C 595.62915,347.61563 289.87541,487.61977 91.10108,395.95718"
       inkscape:label="rough endoplasmic reticulum lumen" />
    <path
       sodipodi:insensitive="true"
       inkscape:label="rough endoplasmic reticulum membrane"
       sodipodi:nodetypes="cccccccccccccccccccccccccccccccccccc"
       id="GO0030867"
       d="m 686.2597,349.96342 c -12.25776,8.54422 -26.78507,-2.22364 -42.99413,-13.43601 28.96938,-67.00609 50.93033,-140.25622 48.62584,-215.21086 1.75299,-54.300143 -31.53751,-95.030699 -47.30624,1.12632 -15.40373,89.08817 -24.69411,172.0973 -93.48617,242.16298 L 517.77534,330.89571 C 548.5631,281.6481 585.31308,251.16839 604.69673,103.9549 601.96706,33.293657 559.34845,6.1589298 553.91481,86.400012 535.93893,294.77962 366.23201,449.07305 92.67886,378.12194 52.530336,341.11862 13.834019,394.34421 89.299832,431.05988 l 20.274108,5.63168 -9.01072,50.68528 -28.158495,-5.6317 C -12.303724,437.57407 20.86736,521.00165 58.888662,529.05142 l 191.477688,33.79015 v 50.68532 c -25.69663,3.64043 -49.19523,10.02846 -91.23347,-6.75806 -83.138773,-1.35532 -72.98309,20.61293 -3.37902,57.44331 118.2651,28.7157 232.63609,12.64884 342.40717,-56.31696 47.42358,-20.43196 38.60978,-119.20776 -34.91651,-49.55896 -35.05028,36.45631 -86.93774,49.34058 -143.04512,56.31697 l 2.25271,-57.44329 42.80087,-10.13705 c 59.00415,-7.70948 68.90589,-68.43432 1.12633,-54.0643 -63.43006,15.47483 -131.9099,10.75068 -199.36208,10.13705 l 9.01071,-47.30624 c 103.34701,9.67207 202.2183,-10.49383 292.84828,-85.60181 l 40.54822,39.42189 c -41.27459,48.85628 2.82527,65.4699 38.29552,33.79018 19.14779,-13.34121 38.29556,-19.75017 57.44332,-52.93797 l 40.54824,19.14779 -5.63172,14.64239 c -31.7111,68.49769 28.59051,55.77487 54.06429,21.40045 41.84301,-66.39788 94.48961,-129.19453 87.85446,-211.75181 15.82129,-54.53479 -27.49953,-92.47477 -52.93791,-10.13702 4.73104,43.17634 -22.994,86.35265 -37.16923,129.52902"
       style="display:none;fill:none;stroke:#e400e2;stroke-width:2.23004px;stroke-linecap:butt;stroke-linejoin:miter;stroke-opacity:1" />
    <path
       id="p345345345"
       style="display:inline;opacity:1;fill:#cdde87;fill-opacity:0.278431;stroke:#89a02c;stroke-width:1;stroke-linecap:butt;stroke-linejoin:miter;stroke-miterlimit:4;stroke-dasharray:none;stroke-opacity:1"
       d="m 664.3879,572.8048 c -9.43447,0.0986 -18.41642,3.7608 -25.62472,13.33483 -13.75085,18.26374 -2.9413,75.64474 10.65699,91.14362 -5.70303,0.79169 -6.70125,21.32983 -0.20853,27.39317 12.09828,11.29822 33.09213,-2.19073 49.63463,-1.58747 13.73713,0.50096 30.67342,13.3747 41.01314,4.3165 9.57845,-8.39125 9.89038,-37.53108 1.03331,-38.18893 -0.0549,-0.003 -0.064,0.0853 -0.095,0.12968 9.51412,-14.9858 -5.90743,-56.8231 -19.28782,-68.43179 -9.89115,-8.58147 -34.77685,-28.34308 -57.12172,-28.10982 z"
       sodipodi:nodetypes="sscsssscsss"
       inkscape:label="">
      <title
         id="title3600">Ribosome</title>
    </path>
    <path
       sodipodi:insensitive="true"
       d="m 685.47062,628.85697 c -2.098,0.0219 -4.09544,0.83631 -5.69843,2.9654 -3.05793,4.06151 -0.65408,16.82193 2.36991,20.26858 -1.26823,0.17601 -1.49022,4.74336 -0.0463,6.09172 2.69041,2.51252 7.35904,-0.48718 11.03779,-0.35303 3.05487,0.11144 6.82117,2.97429 9.12053,0.9599 2.13005,-1.86603 2.19941,-8.34617 0.22977,-8.49246 -0.0128,-7.5e-4 -0.0148,0.019 -0.0211,0.0288 2.11576,-3.33257 -1.3137,-12.63638 -4.28925,-15.21792 -2.19959,-1.90835 -7.7337,-6.30295 -12.70277,-6.25109 z m -8.1746,-22.13996 c -5.12922,0.0535 -10.01246,2.04463 -13.93142,7.24974 -7.47594,9.92949 -1.59909,41.12589 5.79389,49.55217 -3.10056,0.43043 -3.64327,11.59643 -0.11346,14.89288 6.5775,6.14253 17.99124,-1.19103 26.98493,-0.86306 7.46846,0.27236 16.67624,7.27146 22.29764,2.34677 5.20754,-4.5621 5.37713,-20.40456 0.5618,-20.76222 -0.0297,-0.002 -0.0349,0.0464 -0.0517,0.0705 5.17255,-8.14735 -3.21171,-30.89309 -10.48625,-37.2044 -5.37753,-4.66551 -18.90718,-15.40931 -31.05545,-15.28251 z m -7.9342,-21.48878 c -8.0713,0.0843 -15.75546,3.2174 -21.92225,11.40809 -11.76403,15.62487 -2.51632,64.71498 9.11718,77.97447 -4.87902,0.67729 -5.73301,18.24793 -0.17843,23.43519 10.35025,9.66575 28.31073,-1.8742 42.46302,-1.35811 11.75228,0.42858 26.24149,11.44223 35.08725,3.69282 8.19447,-7.17882 8.46134,-32.10827 0.88399,-32.67107 -0.0469,-0.004 -0.0548,0.0729 -0.0811,0.11088 8.13944,-12.82054 -5.05388,-48.61286 -16.50097,-58.54421 -8.46199,-7.34157 -29.75201,-24.24785 -48.86833,-24.0483 z"
       inkscape:label="ribosome"
       style="display:none;opacity:1;fill:#eef4d7;fill-opacity:0.278431;stroke:#cd3f87;stroke-width:1.84502;stroke-linecap:butt;stroke-linejoin:miter;stroke-miterlimit:4;stroke-dasharray:none;stroke-opacity:1"
       id="GO0005840" />
    <path
       d="m 55.603756,695.58484 172.030444,25.57631 208.67845,-15.27073 116.64677,-52.51366 50.68406,19.9153 -112.30443,55.32323 -257.55061,22.72324 -174.913982,-27.42436 v 23.43321 l 175.664432,33.41952 256.19338,-14.44531 129.14352,-58.25208 49.79088,36.70425 -121.83496,32.45729 M 509.29908,28.19191 c 5.82373,12.049017 -13.4684,112.92705 -13.4684,112.92705 L 435.24653,268.6062 344.75143,340.43257 206.30408,354.89741 107.22606,328.295 33.250413,301.60083 44.476712,282.80206 c 0,0 154.642858,26.24556 162.903608,27.12792 8.26076,0.88236 123.42541,-15.17263 123.42541,-15.17263 l 77.78656,-69.12569 34.54456,-91.55522 16.8462,-111.05629 -69.68361,2.398707 -11.17375,111.696303 -56.66702,95.47573 c 0,0 -79.44598,23.43861 -82.97543,23.43861 -3.52944,0 -102.1522,2.64708 -116.27,2.64708 -14.11779,0 -90.696778,-22.73172 -90.696778,-22.73172 l 1.785593,-32.58436 105.798835,0.0336 102.16227,4.31773 c 0,0 81.95937,-59.936 81.95937,-63.59882 0,-3.66282 23.24901,-79.002841 23.24901,-79.002841 L 329.17572,18.013241 269.57258,36.410644 277.3688,113.01333 179.04292,147.54501 62.832458,146.97805 59.912407,72.843503 162.97013,87.856436 215.00187,36.830593"
       style="display:none;fill:none;stroke:#000000;stroke-width:1px;stroke-linecap:butt;stroke-linejoin:miter;stroke-opacity:1"
       id="unlocalized" />
  </g>
</svg>
