<?xml version="1.0" encoding="UTF-8" standalone="no"?>
<svg
   xmlns:dc="http://purl.org/dc/elements/1.1/"
   xmlns:cc="http://creativecommons.org/ns#"
   xmlns:rdf="http://www.w3.org/1999/02/22-rdf-syntax-ns#"
   xmlns:svg="http://www.w3.org/2000/svg"
   xmlns="http://www.w3.org/2000/svg"
   xmlns:sodipodi="http://sodipodi.sourceforge.net/DTD/sodipodi-0.dtd"
   xmlns:inkscape="http://www.inkscape.org/namespaces/inkscape"
   sodipodi:docname="diagram.svg"
   inkscape:version="1.0 (1.0+r73+1)"
   viewBox="0 0 800 800"
   version="1.1"
   id="SVGRoot">
  <defs
     id="defs10">
    <inkscape:perspective
       id="perspective882"
       inkscape:persp3d-origin="400 : 266.66667 : 1"
       inkscape:vp_z="800 : 400 : 1"
       inkscape:vp_y="0 : 1000 : 0"
       inkscape:vp_x="0 : 400 : 1"
       sodipodi:type="inkscape:persp3d" />
    <filter
       inkscape:collect="always"
       style="color-interpolation-filters:sRGB"
       id="filter2922"
       x="-1.7814825e-05"
       width="1.0000356"
       y="-7.748805e-06"
       height="1.0000155">
      <feGaussianBlur
         inkscape:collect="always"
         stdDeviation="0.00051198783"
         id="feGaussianBlur2924" />
    </filter>
  </defs>
  <sodipodi:namedview
     inkscape:guide-bbox="true"
     showguides="false"
     inkscape:snap-nodes="false"
     inkscape:window-maximized="1"
     inkscape:window-y="27"
     inkscape:window-x="0"
     inkscape:window-height="713"
     inkscape:window-width="1366"
     showgrid="false"
     inkscape:document-rotation="0"
     inkscape:current-layer="layer1"
     inkscape:document-units="px"
     inkscape:cy="581.4457"
     inkscape:cx="415.0284"
     inkscape:zoom="0.70443979"
     inkscape:pageshadow="2"
     inkscape:pageopacity="0.0"
     borderopacity="1.0"
     bordercolor="#666666"
     pagecolor="#ffffff"
     id="base">
    <sodipodi:guide
       id="guide1004"
       orientation="1,0"
       position="489.28571,715" />
    <sodipodi:guide
       id="guide1006"
       orientation="0,-1"
       position="543.46207,164.61405" />
  </sodipodi:namedview>
  <metadata
     id="metadata13">
    <rdf:RDF>
      <cc:Work
         rdf:about="">
        <dc:format>image/svg+xml</dc:format>
        <dc:type
           rdf:resource="http://purl.org/dc/dcmitype/StillImage" />
        <dc:title />
      </cc:Work>
    </rdf:RDF>
  </metadata>
  <g
     style="display:inline"
     id="layer1"
     inkscape:label="Layer 1"
     inkscape:groupmode="layer">
    <ellipse
       style="opacity:1;fill:#c1db65;fill-opacity:0.273092;stroke:none;stroke-width:1;stroke-miterlimit:4;stroke-dasharray:none;stroke-opacity:0.301961"
       id="path897"
       cx="399.83514"
       cy="400.58356"
       rx="373.99045"
       ry="374.35068" />
    <circle
       style="display:inline;opacity:0.995;fill:#cdde87;fill-opacity:0.278431;stroke:#89a02c;stroke-width:1;stroke-miterlimit:4;stroke-dasharray:none;stroke-opacity:1"
       id="path1068"
       cx="278.85715"
       cy="632.85712"
       r="22.857143"
       inkscape:label="Golgi-associated vesicle">
      <title
         id="title1077">Golgi-associated vesicle</title>
    </circle>
    <ellipse
       cy="517.23596"
       cx="311.59311"
       id="circle1081"
       style="fill:#cdde87;fill-opacity:0.278431;stroke:#89a02c;stroke-width:0.871904;stroke-miterlimit:4;stroke-dasharray:none;stroke-opacity:1"
       rx="45.40556"
       ry="46.119843">
      <title
         id="title1079">Endosome membrane</title>
    </ellipse>
    <ellipse
       cy="517.18555"
       cx="311.23447"
       id="circle1085"
       style="display:inline;fill:#cdde87;fill-opacity:0.278431;stroke:#89a02c;stroke-width:0.817854;stroke-miterlimit:4;stroke-dasharray:none;stroke-opacity:1"
       rx="32.015835"
       ry="32.519485">
      <title
         id="title1083">Endosome lumen</title>
    </ellipse>
    <ellipse
       ry="54.017784"
       rx="52.589211"
       inkscape:label=""
       cy="622.17493"
       cx="570.96173"
       id="p8374923847"
       style="opacity:1;fill:#cdde87;fill-opacity:0.278431;stroke:#89a02c;stroke-width:1;stroke-miterlimit:4;stroke-dasharray:none;stroke-opacity:1">
      <title
         id="title970">Lysosome</title>
    </ellipse>
    <ellipse
       style="opacity:1;fill:#cdde87;fill-opacity:0.278431;stroke:#89a02c;stroke-width:1;stroke-miterlimit:4;stroke-dasharray:none;stroke-opacity:1"
       id="ellipse1028"
       cx="570.96173"
       cy="622.17493"
       inkscape:label=""
       rx="38.947353"
       ry="40.005352">
      <title
         id="title1026">Lysosome</title>
    </ellipse>
    <path
       sodipodi:nodetypes="csscc"
       style="opacity:1;fill:#cdde87;fill-opacity:0.278431;stroke:#89a02c;stroke-width:0.868771;stroke-linecap:butt;stroke-linejoin:miter;stroke-miterlimit:4;stroke-dasharray:none;stroke-opacity:1"
       d="m 482.51141,690.56409 c 30.01532,-0.9055 27.95944,-31.64055 1.44193,-33.13375 -102.68879,-5.78242 -104.13603,-25.99338 -147.74479,-62.19884 -16.66501,-13.83585 -46.48475,5.9672 -26.08453,29.58265 41.42528,43.5692 117.0622,73.08451 172.38739,65.74994 z"
       id="path916" />
    <ellipse
       transform="matrix(0.74612148,0.66580983,-0.74612148,0.66580983,0,0)"
       ry="139.14984"
       rx="80.788879"
       cy="-26.73078"
       cx="294.93265"
       id="path1407"
       style="opacity:1;fill:#cdde87;fill-opacity:0.278431;stroke:#89a02c;stroke-width:1.00324;stroke-miterlimit:4;stroke-dasharray:none;stroke-opacity:1">
      <title
         id="title906">Mitochondrion outer membrane</title>
    </ellipse>
    <ellipse
       style="opacity:1;fill:#cdde87;fill-opacity:0.278431;stroke:#89a02c;stroke-width:1.00424;stroke-miterlimit:4;stroke-dasharray:none;stroke-opacity:1"
       id="ellipse1409"
       cx="294.78857"
       cy="-24.762552"
       rx="68.635757"
       ry="127.85449"
       transform="matrix(0.75149753,0.65973591,-0.75149753,0.65973591,0,0)">
      <title
         id="title908">Mitochondrion intermembrane space</title>
    </ellipse>
    <path
       sodipodi:nodetypes="sssssccsssssssssssccs"
       d="m 253.21882,185.38033 c -12.09731,10.92123 40.60768,20.8558 22.37378,39.97138 -22.28465,23.36219 -40.5428,-25.58487 -49.67608,-16.02401 -13.36601,13.99174 36.72186,18.34998 14.24177,39.4453 -19.87794,18.65347 -36.01298,-29.19273 -40.11154,-9.72345 -3.04855,14.4814 -19.78504,33.3672 -46.35198,15.81701 -16.45376,-13.85374 -16.72773,-38.129 10.2421,-44.8986 21.27212,-6.30785 -21.43563,-10.65576 -4.90895,-32.31757 19.05672,-24.97799 31.86173,23.88633 43.38363,10.23761 9.23394,-10.93843 -38.72314,-19.23665 -20.15744,-40.59771 20.72196,-23.84197 35.66901,30.67591 48.3489,18.02661 9.27499,-9.25261 -37.27411,-22.04694 -18.93699,-40.84546 23.20307,-23.7869 38.81086,25.89974 47.23968,16.79646 14.15113,-15.28348 -32.9385,-17.69331 -11.4747,-38.45223 21.75247,-21.038107 34.67416,32.73394 37.21893,4.1403 2.27463,-25.55829 37.76986,-21.335048 47.72177,-7.438279 8.23612,11.500859 14.7696,33.616039 -9.44032,38.292249 -29.30148,5.65966 20.08439,14.06472 1.47139,35.60318 -18.43804,21.336 -35.18465,-21.85572 -41.83561,-13.33871 -10.85266,10.03835 41.99347,20.53055 19.23704,42.34533 -21.03281,23.30903 -35.78906,-28.59169 -48.58538,-17.03941 z"
       style="opacity:1;fill:#cdde87;fill-opacity:0.278431;stroke:#89a02c;stroke-width:1;stroke-miterlimit:4;stroke-dasharray:none;stroke-opacity:1"
       id="ellipse1411">
      <title
         id="title910">Mitochondrion inner membrane</title>
    </path>
    <path
       id="path893"
       style="opacity:1;fill:#cdde87;fill-opacity:0.278431;stroke:#89a02c;stroke-width:1;stroke-miterlimit:4;stroke-dasharray:none;stroke-opacity:1"
       d="m 244.00565,179.37787 c -18.52381,18.42417 25.97998,34.22276 22.19504,39.79454 -5.55758,8.18127 -31.22367,-33.36668 -46.51095,-16.86673 -21.24698,22.93242 18.81336,33.10929 14.80941,39.01326 -5.6844,8.38186 -31.53525,-35.09493 -41.70424,-13.09263 -2.23709,4.84031 -6.01811,29.37836 -25.94721,17.42528 -14.55463,-8.32614 -14.46754,-20.33538 8.13954,-29.62035 27.96503,-7.3655 -12.24433,-27.42594 -8.32565,-32.62579 7.16893,-9.51273 21.38875,35.83697 45.02438,12.53109 16.36053,-16.13228 -26.66942,-35.6165 -21.979,-42.95839 4.24503,-6.64472 26.30545,39.44341 48.74349,20.4925 20.63409,-17.42732 -22.49361,-35.67651 -18.08351,-43.53469 5.2395,-9.33607 26.02703,39.43687 46.53984,18.37413 21.03675,-21.60072 -17.8502,-31.87473 -11.81231,-38.20341 3.31153,-3.47102 31.74269,36.91976 35.73896,9.78857 4.0309,-27.366321 26.45917,-21.960541 32.79073,-12.32138 8.06155,12.27291 6.52981,17.97839 -17.01809,24.60063 -29.65936,8.34093 12.42039,31.00489 9.91387,34.26848 -5.72063,7.44852 -24.15946,-33.17886 -42.18526,-12.82934 -21.05595,20.01972 25.16853,32.02051 19.69506,42.05937 -4.2647,5.26185 -30.96309,-35.25362 -50.0241,-16.29514 z"
       sodipodi:nodetypes="sssssccsssssssssssccs">
      <title
         id="title912">Mitochondrion matrix</title>
    </path>
    <circle
       style="fill:#cdde87;fill-opacity:0.278431;stroke:#89a02c;stroke-width:1;stroke-miterlimit:4;stroke-dasharray:none;stroke-opacity:1"
       id="path937"
       cx="101.59311"
       cy="459.23596"
       r="52.484367">
      <title
         id="title939">Peroxisomal membrane</title>
    </circle>
    <circle
       style="fill:#cdde87;fill-opacity:0.278431;stroke:#89a02c;stroke-width:1;stroke-miterlimit:4;stroke-dasharray:none;stroke-opacity:1"
       id="path933"
       cx="101.17856"
       cy="459.17856"
       r="39.452858">
      <title
         id="title935">Peroxisome</title>
    </circle>
    <path
       id="path1032"
       style="opacity:1;fill:#cdde87;fill-opacity:0.278431;stroke:#2ca05a;stroke-width:1;stroke-miterlimit:4;stroke-dasharray:none;stroke-opacity:1"
       d="M 400,10.505859 A 389.49338,389.49338 0 0 0 10.505859,400 389.49338,389.49338 0 0 0 400,789.49414 389.49338,389.49338 0 0 0 789.49414,400 389.49338,389.49338 0 0 0 400,10.505859 Z m 0,14.980469 A 374.51285,374.51288 0 0 1 774.51367,400 374.51285,374.51288 0 0 1 400,774.51367 374.51285,374.51288 0 0 1 25.486328,400 374.51285,374.51288 0 0 1 400,25.486328 Z">
      <title
         id="title931">Plasma membrane</title>
    </path>
    <path
       id="p3234"
       style="opacity:1;fill:#cdde87;fill-opacity:0.278431;stroke:none;stroke-width:1;stroke-miterlimit:4;stroke-dasharray:none;stroke-opacity:1"
       inkscape:label=""
       d="m 603.34471,282.35714 c -36.09575,62.51967 -116.03936,83.9405 -178.55903,47.84475 -62.51967,-36.09575 -83.9405,-116.03936 -47.84475,-178.55903 23.50759,-40.71634 65.61259,-64.00123 109.39046,-65.31973 23.44276,-0.70606 47.36524,4.88682 69.16857,17.47498 62.51967,36.09575 83.9405,116.03936 47.84475,178.55903"
       sodipodi:nodetypes="cssssc">
      <title
         id="title870">Nuclear pores</title>
    </path>
    <path
       sodipodi:nodetypes="sssss"
       id="path930"
       d="m 733.39037,386.40682 c -10.27103,20.82902 -24.23111,39.31456 -54.37553,52.27691 -12.56242,5.40193 -2.40717,23.45814 12.7459,20.62561 27.48507,-5.13774 52.56701,-28.53562 58.54154,-49.81566 5.44633,-19.39863 -12.91442,-31.19353 -16.91191,-23.08686 z"
       style="opacity:1;fill:#cdde87;fill-opacity:0.278431;stroke:#89a02c;stroke-width:1;stroke-linecap:butt;stroke-linejoin:miter;stroke-miterlimit:4;stroke-dasharray:none;stroke-opacity:1" />
    <path
       id="path928"
       d="m 654.39305,455.59576 c -7.59305,-1.01253 -17.47752,4.31279 -20.13061,11.81301 -4.28411,12.11118 0.89407,33.64355 13.0518,35.92288 12.27779,2.30184 25.59049,-16.09222 25.30827,-29.06183 -0.19396,-8.91101 -9.72202,-17.53963 -18.22946,-18.67406 z"
       style="opacity:1;fill:#cdde87;fill-opacity:0.278431;stroke:#89a02c;stroke-width:1;stroke-linecap:butt;stroke-linejoin:miter;stroke-miterlimit:4;stroke-dasharray:none;stroke-opacity:1" />
    <path
       id="path926"
       d="m 651.77362,514.63707 c -11.71825,-4.31478 -30.21675,3.24963 -34.73077,15.41379 -4.48732,12.09222 4.20578,30.73997 16.00953,34.57311 12.09603,3.928 29.93187,-6.48144 33.82351,-19.1179 3.42818,-11.13159 -4.58644,-26.99695 -15.10227,-30.869 z"
       style="opacity:1;fill:#cdde87;fill-opacity:0.278431;stroke:#89a02c;stroke-width:1;stroke-linecap:butt;stroke-linejoin:miter;stroke-miterlimit:4;stroke-dasharray:none;stroke-opacity:1" />
    <path
       id="path924"
       d="m 701.58794,493.56329 c -7.59965,-4.7217 -20.11546,-10.29002 -26.50379,-3.6976 -9.46763,9.77009 -5.99481,33.52134 5.17578,40.67277 11.15308,7.14025 33.61243,-0.0251 37.84176,-13.07446 3.0533,-9.42075 -8.39543,-18.85683 -16.51375,-23.90071 z"
       style="opacity:1;fill:#cdde87;fill-opacity:0.278431;stroke:#89a02c;stroke-width:1;stroke-linecap:butt;stroke-linejoin:miter;stroke-miterlimit:4;stroke-dasharray:none;stroke-opacity:1" />
    <path
       id="path922"
       d="m 723.94694,455.55327 c -8.79306,3.31436 -18.5098,13.4115 -17.36799,22.94394 1.30826,10.9224 14.9828,22.16217 25.39923,19.61699 12.89382,-3.15054 24.03933,-24.17096 18.61316,-36.5128 -3.75432,-8.5392 -18.01549,-9.30065 -26.6444,-6.04813 z"
       style="opacity:1;fill:#cdde87;fill-opacity:0.278431;stroke:#89a02c;stroke-width:1;stroke-linecap:butt;stroke-linejoin:miter;stroke-miterlimit:4;stroke-dasharray:none;stroke-opacity:1" />
    <path
       id="p234729384"
       d="m 615.35771,486.36229 c -12.19785,13.77253 -34.94459,20.96898 -49.49189,18.64846 -4.66121,-0.74353 -18.80051,12.55222 5.17117,26.38773 21.65926,12.50092 60.42928,-15.39475 52.84886,-43.42072 -0.94945,-3.5107 -5.40952,-5.13668 -8.52814,-1.61547 z"
       style="opacity:1;fill:#cdde87;fill-opacity:0.278431;stroke:#89a02c;stroke-width:1;stroke-linecap:butt;stroke-linejoin:miter;stroke-miterlimit:4;stroke-dasharray:none;stroke-opacity:1" />
    <path
       sodipodi:nodetypes="sscss"
       style="opacity:1;fill:#cdde87;fill-opacity:0.278431;stroke:#89a02c;stroke-width:0.868771;stroke-linecap:butt;stroke-linejoin:miter;stroke-miterlimit:4;stroke-dasharray:none;stroke-opacity:1"
       d="m 291.68693,659.02161 c 56.5279,-3.79008 112.08416,28.86841 157.73161,65.83192 34.81351,28.19061 4.04726,47.96622 -13.98844,36.41041 -67.73781,-46.90192 -68.53565,-61.87248 -144.48718,-59.56886 -39.72091,1.20474 -32.7175,-40.42994 0.74401,-42.67347 z"
       id="path918" />
    <path
       sodipodi:nodetypes="sscss"
       id="path910"
       d="m 293.47264,671.52161 c 55.01765,-2.29283 111.80461,30.56464 154.16019,68.33192 12.93782,11.53629 -8.00034,11.45035 -10.41701,9.26755 -62.89433,-49.86516 -73.7278,-61.96396 -146.98719,-59.926 -17.1349,0.47667 -13.07073,-16.99356 3.24401,-17.67347 z"
       style="opacity:1;fill:#cdde87;fill-opacity:0.278431;stroke:#89a02c;stroke-width:0.868771;stroke-linecap:butt;stroke-linejoin:miter;stroke-miterlimit:4;stroke-dasharray:none;stroke-opacity:1" />
    <path
       sodipodi:nodetypes="sssss"
       id="path908"
       d="m 323.76105,618.50069 c 40.55945,44.03891 106.10025,64.76449 156.98259,60.44665 17.27209,-1.4657 8.21201,-9.51325 -1.33601,-10.40533 -86.58967,-8.09012 -95.3888,-12.544 -146.98717,-59.92599 -12.62579,-11.59406 -19.72143,-2.12632 -8.65941,9.88467 z"
       style="opacity:1;fill:#cdde87;fill-opacity:0.278431;stroke:#89a02c;stroke-width:0.868771;stroke-linecap:butt;stroke-linejoin:miter;stroke-miterlimit:4;stroke-dasharray:none;stroke-opacity:1" />
    <path
       sodipodi:nodetypes="sscss"
       style="opacity:1;fill:#cdde87;fill-opacity:0.278431;stroke:#89a02c;stroke-width:0.868771;stroke-linecap:butt;stroke-linejoin:miter;stroke-miterlimit:4;stroke-dasharray:none;stroke-opacity:1"
       d="m 364.00682,609.06254 c 28.81285,30.76695 64.6085,39.58919 100.519,30.50512 29.36528,-7.42836 24.49063,-38.76297 4.70368,-36.11567 -58.91627,14.62515 -68.32044,-4.55623 -89.85828,-29.63791 -12.1546,-14.15453 -36.44346,12.73981 -15.3644,35.24846 z"
       id="path914" />
    <path
       id="path906"
       d="m 371.33043,599.21356 c 24.42808,31.36269 59.45012,36.19316 94.20555,27.97973 10.80691,-2.5539 5.21788,-11.65513 3.18844,-11.36693 -55.33293,7.85764 -62.44859,7.70948 -91.62604,-28.62776 -6.96256,-8.67107 -12.28793,3.64409 -5.76795,12.01496 z"
       style="opacity:1;fill:#cdde87;fill-opacity:0.278431;stroke:#89a02c;stroke-width:0.868771;stroke-linecap:butt;stroke-linejoin:miter;stroke-miterlimit:4;stroke-dasharray:none;stroke-opacity:1" />
    <path
       sodipodi:nodetypes="ssssss"
       style="opacity:1;fill:#cdde87;fill-opacity:0.278431;stroke:#89a02c;stroke-width:0.94999;stroke-linecap:butt;stroke-linejoin:miter;stroke-miterlimit:4;stroke-dasharray:none;stroke-opacity:1"
       d="m 388.73298,566.97843 c 12.6031,41.91866 70.51743,39.46528 88.45446,21.68367 7.06777,-7.00653 -2.46462,-24.23744 -4.08607,-25.21582 -7.50445,-4.52824 -11.85671,-3.87004 -29.78862,6.41442 -14.29804,8.20032 -20.41393,-6.02803 -29.32334,-24.26404 -4.68024,-9.57963 -30.22348,4.86107 -25.25643,21.38177 z"
       id="path912" />
    <path
       id="p03489234"
       d="m 402.836,572.18195 c 17.8334,19.11102 41.17124,24.92073 61.50732,12.68471 7.95082,-4.78392 1.75637,-10.67493 0.27355,-11.22105 -7.52155,-2.77018 -4.52578,2.19334 -22.33925,8.52264 -9.15632,3.25333 -26.59825,-3.06135 -32.45969,-23.65759 -2.66885,-9.37791 -17.74528,2.13684 -6.98193,13.67129 z"
       style="opacity:1;fill:#cdde87;fill-opacity:0.278431;stroke:#89a02c;stroke-width:0.868771;stroke-linecap:butt;stroke-linejoin:miter;stroke-miterlimit:4;stroke-dasharray:none;stroke-opacity:1" />
    <path
       inkscape:label=""
       sodipodi:nodetypes="sscsssscsss"
       d="m 342.15162,291.18782 c -5.76206,0.0602 -11.24775,2.29689 -15.65019,8.14419 -8.39828,11.15451 -1.79639,46.19972 6.50871,55.6656 -3.4831,0.48352 -4.09276,13.02711 -0.12736,16.73027 7.38898,6.90034 20.21089,-1.33798 30.31415,-0.96954 8.3899,0.30596 18.73367,8.16854 25.04861,2.63628 5.85,-5.12492 6.04051,-22.92195 0.63109,-23.32373 -0.0335,-0.002 -0.0391,0.0521 -0.058,0.0792 5.81071,-9.15252 -3.60794,-34.70448 -11.77996,-41.79444 -6.04098,-5.2411 -21.23982,-17.31042 -34.88686,-17.16796 z"
       style="opacity:1;fill:#cdde87;fill-opacity:0.278431;stroke:#89a02c;stroke-width:1;stroke-linecap:butt;stroke-linejoin:miter;stroke-miterlimit:4;stroke-dasharray:none;stroke-opacity:1"
       id="p345345345">
      <title
         id="title3600">Ribosome</title>
    </path>
    <path
       inkscape:label=""
       sodipodi:nodetypes="sssssss"
       id="p9874"
       d="m 205.95381,574.40916 c 2.31444,20.9537 -7.96232,27.54309 -10.2636,33.78931 -3.85802,10.47174 7.08286,9.55016 3.62245,20.15502 -3.6523,11.19293 -28.31757,14.42433 -39.2431,10.07751 -21.94561,-8.73126 -37.61782,-29.08384 -36.22442,-53.94432 1.24151,-22.15032 16.56944,-41.15347 39.24311,-43.27402 17.23416,-1.61182 40.81441,14.62653 42.86556,33.1965 z"
       style="opacity:1;fill:#cdde87;fill-opacity:0.278431;stroke:#89a02c;stroke-width:1;stroke-linecap:butt;stroke-linejoin:miter;stroke-miterlimit:4;stroke-dasharray:none;stroke-opacity:1">
      <title
         id="title964">Vacuole</title>
    </path>
    <g
       style="opacity:1;fill:#cdde87;fill-opacity:0.278431;stroke:#89a02c;stroke-width:1;stroke-miterlimit:4;stroke-dasharray:none;stroke-opacity:1"
       inkscape:label=""
       id="p93874"
       transform="translate(-313.594,-210.17264)">
      <title
         id="title1047">Centrosome</title>
      <circle
         style="fill:#cdde87;fill-opacity:0.278431;stroke:#89a02c;stroke-width:1;stroke-miterlimit:4;stroke-dasharray:none;stroke-opacity:1"
         id="path982"
         cx="582.24884"
         cy="615.38593"
         r="41.416256" />
      <path
         style="opacity:1;fill:#cdde87;fill-opacity:0.278431;stroke:#89a02c;stroke-width:1;stroke-linecap:round;stroke-linejoin:round;stroke-miterlimit:4;stroke-dasharray:none;stroke-opacity:1"
         d="m 581.6736,556.24214 c 0.64546,22.86881 0.64546,22.86881 0.64546,22.86881"
         id="path1008" />
      <path
         id="path1010"
         d="m 581.66779,652.13481 c 0.65708,22.88042 0.65708,22.88042 0.65708,22.88042"
         style="opacity:1;fill:#cdde87;fill-opacity:0.278431;stroke:#89a02c;stroke-width:1;stroke-linecap:round;stroke-linejoin:round;stroke-miterlimit:4;stroke-dasharray:none;stroke-opacity:1" />
      <path
         style="opacity:1;fill:#cdde87;fill-opacity:0.278431;stroke:#89a02c;stroke-width:1;stroke-linecap:round;stroke-linejoin:round;stroke-miterlimit:4;stroke-dasharray:none;stroke-opacity:1"
         d="M 547.30472,614.88088 H 526.78436"
         id="path1012" />
      <path
         id="path1014"
         d="M 642.60928,614.88088 H 619.70061"
         style="opacity:1;fill:#cdde87;fill-opacity:0.278431;stroke:#89a02c;stroke-width:1;stroke-linecap:round;stroke-linejoin:round;stroke-miterlimit:4;stroke-dasharray:none;stroke-opacity:1" />
      <path
         style="opacity:1;fill:#cdde87;fill-opacity:0.278431;stroke:#89a02c;stroke-width:1;stroke-linecap:round;stroke-linejoin:round;stroke-miterlimit:4;stroke-dasharray:none;stroke-opacity:1"
         d="M 556.80911,591.9665 538.99825,577.1861"
         id="path1016" />
      <path
         id="path1018"
         d="M 624.70606,655.39899 607.40332,640.11655"
         style="opacity:1;fill:#cdde87;fill-opacity:0.278431;stroke:#89a02c;stroke-width:1;stroke-linecap:round;stroke-linejoin:round;stroke-miterlimit:4;stroke-dasharray:none;stroke-opacity:1" />
      <path
         style="opacity:1;fill:#cdde87;fill-opacity:0.278431;stroke:#89a02c;stroke-width:1;stroke-linecap:round;stroke-linejoin:round;stroke-miterlimit:4;stroke-dasharray:none;stroke-opacity:1"
         d="M 611.26127,591.42431 628.9979,574.69783"
         id="path1020" />
      <path
         id="path1022"
         d="m 541.29411,656.38131 16.31816,-15.81308"
         style="opacity:1;fill:#cdde87;fill-opacity:0.278431;stroke:#89a02c;stroke-width:1;stroke-linecap:round;stroke-linejoin:round;stroke-miterlimit:4;stroke-dasharray:none;stroke-opacity:1" />
    </g>
    <path
       sodipodi:nodetypes="ccccc"
       id="p237828347"
       d="M 184.69078,375.36243 230.33997,362.46951 94.89982,270.82693 52.482531,282.97421 Z"
       style="opacity:1;fill:#cdde87;fill-opacity:0.278431;stroke:#89a02c;stroke-width:1;stroke-linecap:butt;stroke-linejoin:miter;stroke-miterlimit:4;stroke-dasharray:none;stroke-opacity:1"
       inkscape:label="">
      <title
         id="title885">Microtubules</title>
    </path>
    <path
       id="circle905"
       style="opacity:1;fill:#cdde87;fill-opacity:0.278431;stroke:#89a02c;stroke-width:1;stroke-miterlimit:4;stroke-dasharray:none;stroke-opacity:1"
       inkscape:label=""
       d="m 592.01541,275.81617 c -32.48327,56.26268 -104.42608,75.5397 -160.68876,43.05642 -56.26268,-32.48327 -75.5397,-104.42608 -43.05642,-160.68876 21.14033,-36.61613 58.99372,-57.567 98.36099,-58.78001 21.12269,-0.65086 42.68121,4.38064 62.32777,15.72359 56.26268,32.48327 75.5397,104.42608 43.05642,160.68876"
       sodipodi:nodetypes="cssssc">
      <title
         id="title903">Nucleoplasm</title>
    </path>
    <circle
       style="opacity:1;fill:#cdde87;fill-opacity:0.278431;stroke:#89a02c;stroke-width:1;stroke-miterlimit:4;stroke-dasharray:none;stroke-opacity:1"
       id="circle899"
       cx="521.45758"
       cy="208.91878"
       r="53.228928"
       inkscape:label="">
      <title
         id="title897">Nucleolus</title>
    </circle>
    <path
       style="opacity:1;fill:#cdde87;fill-opacity:0.278431;stroke:#89a02c;stroke-width:1;stroke-linecap:butt;stroke-linejoin:miter;stroke-miterlimit:4;stroke-dasharray:none;stroke-opacity:1"
       d="m 509.64873,100.58501 c 13.24699,4.58712 18.06446,-6.8621 2.29284,-11.95094 -63.03924,-8.08524 -89.29856,15.00898 -116.0171,37.04177 -9.98879,12.95383 2.36113,17.58561 10.90745,8.49341 29.28707,-29.83692 69.00355,-37.87739 102.81681,-33.58424 z"
       id="path915"
       sodipodi:nodetypes="ccccc">
      <title
         id="title900">Nuclear envelope</title>
    </path>
    <path
       style="opacity:1;fill:#cdde87;fill-opacity:0.278431;stroke:#89a02c;stroke-width:1;stroke-linecap:butt;stroke-linejoin:miter;stroke-miterlimit:4;stroke-dasharray:none;stroke-opacity:1"
       d="m 580.50017,122.10186 c -10.82376,-7.95296 -17.50014,2.57793 -10.12298,9.13764 35.42829,32.90926 41.75278,77.64018 34.98671,108.63126 -3.65853,9.20255 7.87989,14.94786 12.54594,3.8899 10.46281,-57.5058 -13.04414,-95.72709 -37.40967,-121.6588 z"
       id="path917"
       sodipodi:nodetypes="ccccc">
      <title
         id="title902">Nuclear envelope</title>
    </path>
    <path
       style="opacity:1;fill:#cdde87;fill-opacity:0.278431;stroke:#89a02c;stroke-width:1;stroke-linecap:butt;stroke-linejoin:miter;stroke-miterlimit:4;stroke-dasharray:none;stroke-opacity:1"
       d="m 376.44911,186.49479 c -13.08789,46.844 7.23558,87.87708 24.30465,106.79142 5.94347,8.95369 -3.48077,15.42631 -12.39177,5.14665 -25.31749,-30.63509 -35.26431,-65.05219 -25.21148,-111.43581 2.51729,-10.32851 15.96271,-8.63835 13.2986,-0.50226 z"
       id="path919"
       sodipodi:nodetypes="ccccc">
      <title
         id="title898">Nuclear envelope</title>
    </path>
    <path
       style="opacity:1;fill:#cdde87;fill-opacity:0.278431;stroke:#89a02c;stroke-width:1;stroke-linecap:butt;stroke-linejoin:miter;stroke-miterlimit:4;stroke-dasharray:none;stroke-opacity:1"
       d="m 580.59754,292.86117 c -28.87614,34.60137 -77.90925,49.42675 -121.86894,37.6525 -7.5321,-1.28843 -11.22756,10.78796 1.01202,14.06481 44.58968,9.09396 93.15665,0.31608 127.99509,-40.2112 8.98328,-9.28468 -0.85128,-17.89735 -7.13817,-11.50611 z"
       id="path921"
       sodipodi:nodetypes="ccccc">
      <title
         id="title904">Nuclear envelope</title>
    </path>
    <path
       style="display:inline;opacity:1;fill:#cdde87;fill-opacity:0.278431;stroke:#89a02c;stroke-width:10;stroke-linecap:butt;stroke-linejoin:miter;stroke-miterlimit:4;stroke-dasharray:none;stroke-opacity:0.26175"
       d="m 470.72293,177.74624 c 0,0 -14.83119,-24.15756 -24.34828,-24.94308 -11.87804,-0.9804 -20.88835,15.4812 -14.16007,23.68038 6.02875,7.34673 21.01637,12.40126 26.59572,6.1222 3.93829,-4.4322 4.70576,-47.92863 -17.26668,-46.17567 -19.69743,1.57146 15.05107,28.6448 3.55348,35.19253 -5.1361,2.92495 -30.86595,-5.10863 -28.79986,7.77792 1.77779,11.08837 27.03714,14.14659 29.74602,25.04496 1.70809,6.87199 -3.14237,17.37949 -10.10153,18.68783 -9.98734,1.87765 -11.23115,-24.52138 -23.90918,-9.18275 -16.63581,20.12699 12.9338,13.23719 14.80402,29.56526 1.24339,10.8555 47.21123,-2.39764 49.04189,8.37438 1.07753,6.34042 -10.41919,11.93158 -15.54533,8.04768 -9.68132,-7.33521 -5.7717,-27.76143 -14.76669,-25.38688 -8.78534,2.31922 -13.38608,19.96514 -11.94107,26.12655 2.11156,9.00357 12.95572,6.38723 20.15356,12.19362 11.01971,8.88943 1.85315,22.08286 1.85315,22.08286"
       id="path1111"
       sodipodi:nodetypes="csssssssssssssssc">
      <title
         id="title1115">Chromatin</title>
    </path>
    <path
       sodipodi:nodetypes="sssss"
       style="opacity:1;fill:#cdde87;fill-opacity:0.278431;stroke:#89a02c;stroke-width:1;stroke-linecap:butt;stroke-linejoin:miter;stroke-miterlimit:4;stroke-dasharray:none;stroke-opacity:1"
       d="m 613.45886,498.63269 c -3.97386,10.22687 -29.96178,16.09067 -37.57191,15.71913 -2.68775,-0.13122 -7.6131,4.18267 1.61681,9.24297 8.74499,4.79444 31.23235,-7.78283 37.12626,-20.25056 1.90503,-4.02985 -0.41087,-6.66818 -1.17116,-4.71154 z"
       id="path934" />
    <path
       style="opacity:1;fill:#cdde87;fill-opacity:0.278431;stroke:#89a02c;stroke-width:1;stroke-linecap:butt;stroke-linejoin:miter;stroke-miterlimit:4;stroke-dasharray:none;stroke-opacity:1"
       d="m 647.7849,524.43659 c -7.08915,-2.6103 -18.28013,1.96591 -21.01096,9.32482 -2.71467,7.31538 2.54435,18.59663 9.68523,20.91556 7.3177,2.37632 18.10778,-3.92105 20.46209,-11.56569 2.07393,-6.73422 -2.77464,-16.33223 -9.13636,-18.67469 z"
       id="path936" />
    <path
       style="opacity:1;fill:#cdde87;fill-opacity:0.278431;stroke:#89a02c;stroke-width:1;stroke-linecap:butt;stroke-linejoin:miter;stroke-miterlimit:4;stroke-dasharray:none;stroke-opacity:1"
       d="m 653.58485,467.00315 c -3.96965,-0.52935 -9.13727,2.25474 -10.5243,6.17586 -2.23974,6.33173 0.46742,17.58888 6.82349,18.78052 6.41884,1.20339 13.37873,-8.41303 13.23119,-15.19356 -0.10141,-4.65869 -5.08268,-9.16974 -9.53038,-9.76282 z"
       id="path938" />
    <path
       style="opacity:1;fill:#cdde87;fill-opacity:0.278431;stroke:#89a02c;stroke-width:1;stroke-linecap:butt;stroke-linejoin:miter;stroke-miterlimit:4;stroke-dasharray:none;stroke-opacity:1"
       d="m 698.37176,500.8515 c -4.37325,-2.71713 -11.57554,-5.92144 -15.25172,-2.1278 -5.4482,5.62224 -3.44975,19.29003 2.97842,23.40535 6.41811,4.10889 19.34245,-0.0144 21.77623,-7.52377 1.75705,-5.42122 -4.8312,-10.85124 -9.50293,-13.75378 z"
       id="path940" />
    <path
       style="opacity:1;fill:#cdde87;fill-opacity:0.278431;stroke:#89a02c;stroke-width:1;stroke-linecap:butt;stroke-linejoin:miter;stroke-miterlimit:4;stroke-dasharray:none;stroke-opacity:1"
       d="m 726.15778,464.43328 c -4.94993,1.86578 -10.41984,7.54984 -9.77708,12.91599 0.73647,6.14863 8.43437,12.4759 14.29817,11.04312 7.25842,-1.77355 13.53262,-13.60672 10.47803,-20.55438 -2.11344,-4.80704 -10.14159,-5.23568 -14.99912,-3.40473 z"
       id="path942" />
    <path
       sodipodi:nodetypes="sssss"
       style="opacity:1;fill:#cdde87;fill-opacity:0.278431;stroke:#89a02c;stroke-width:1;stroke-linecap:butt;stroke-linejoin:miter;stroke-miterlimit:4;stroke-dasharray:none;stroke-opacity:1"
       d="m 736.09213,399.32606 c -4.98858,13.39992 -25.24526,34.93099 -44.84055,43.00894 -6.43395,2.65233 -3.96838,5.86585 0.86064,5.95874 20.45578,0.39345 47.4898,-26.40079 48.29594,-42.47101 0.60826,-12.12552 -2.41584,-11.6008 -4.31603,-6.49667 z"
       id="path944" />
    <path
       id="path948"
       style="opacity:1;fill:#cdde87;fill-opacity:0.278431;stroke:#89a02c;stroke-width:1;stroke-linecap:butt;stroke-linejoin:miter;stroke-miterlimit:4;stroke-dasharray:none;stroke-opacity:1"
       d="m 633.53321,212.62664 c -5.58123,137.09414 -125.72103,172.04598 -210.80722,130.98182 -23.67519,-11.42602 -31.74632,27.00755 12.11269,43.16265 l -1.9462,10.91245 c -9.54207,-3.21298 -10.01791,-4.72323 -20.06804,-8.39049 -19.83974,-7.23961 -28.61281,18.78005 -13.64418,29.60992 19.3919,14.03013 57.71844,23.13902 100.06589,25.48327 l -0.0527,11.73945 c -23.68386,0.97068 -35.71488,-1.9977 -51.79147,-6.72785 -19.94472,-5.86821 -34.90169,25.58205 -2.97119,36.70839 82.65909,25.36159 156.41468,1.92916 186.19527,-35.69704 17.46944,-29.60243 -5.41934,-37.78629 -15.90065,-31.78408 -22.36478,12.80736 -25.64759,26.04368 -73.56755,35.49829 l -0.22034,-11.94185 c 7.18126,-1.24189 21.961,-6.00482 28.84146,-10.39738 30.31629,-19.35425 3.03571,-34.65702 -11.20285,-32.0997 -38.2871,6.87649 -52.82553,6.65184 -83.63385,6.31114 l 1.41465,-9.90194 c 57.30835,1.80842 89.0756,-9.49479 127.09532,-37.53563 l 9.51361,11.98633 c -23.90354,17.10439 -2.45768,36.38123 24.33985,23.27055 16.87338,-9.92715 16.97101,-13.40628 28.58021,-25.85344 l 9.62402,4.62453 c -28.29089,34.17342 7.79433,43.20424 24.57089,25.61675 11.90379,-11.74986 34.13345,-39.01621 43.51854,-78.12191 3.35169,-13.96572 5.06519,-29.44147 4.08512,-46.25969 -1.52114,-26.10262 -28.44292,-22.73189 -31.00287,-3.43871 -3.43304,25.87336 -9.90234,48.13065 -21.29721,67.73325 l -9.75899,-3.84335 c 20.41003,-36.29989 25.10935,-76.14073 20.32766,-111.30361 -4.98269,-24.42732 -29.80647,-24.68343 -29.38637,-4.09027 -4.98199,65.23072 -14.06422,96.06409 -39.45635,123.42933 l -7.14906,-7.80586 c 21.81064,-18.15419 39.58425,-79.01509 36.38121,-117.95992 -2.82997,-28.44122 -33.42457,-28.95195 -32.80935,-3.91541 z"
       sodipodi:nodetypes="csccssccsccsccssccccccccsssccccccccc"
       inkscape:label="">
      <title
         id="title946">Rough endoplasmic reticulum membrane</title>
    </path>
    <path
       inkscape:label=""
       sodipodi:nodetypes="cccssccsccsccssccccccccsscccccccccc"
       d="m 433.09845,359.00824 c -12.6927,-4.31388 -18.11119,10.76453 15.93188,21.88535 l -6.85817,30.6218 c -9.54205,-3.21297 -13.18767,-3.24297 -23.45162,-6.26047 -9.48161,-2.78753 -8.93549,8.2034 -1.78982,10.78844 31.52807,11.40529 54.74057,13.19498 93.08474,15.68325 l 0.9084,38.05802 c -15.31983,0.69648 -31.17467,-0.28503 -51.30601,-4.97061 -15.03749,-3.50006 -13.6258,9.2031 -1.07201,10.94572 50.18865,15.67497 114.03362,8.73424 157.79623,-28.27543 7.27498,-6.99313 3.27531,-16.17553 -6.57797,-9.19005 -27.80137,19.70977 -50.6064,27.15277 -79.5895,30.91428 l -2.67121,-38.53948 c 12.23473,-0.63302 19.24946,-3.60401 27.14607,-5.67252 21.61753,-5.66261 13.76766,-14.76956 -0.38025,-11.75074 -31.98927,6.82569 -68.50033,5.30214 -92.83401,2.17987 l 5.28229,-31.09649 c 61.16903,4.18927 106.19726,-12.6069 135.94318,-39.83603 l 25.10379,25.34827 c -16.82574,11.54846 -9.57517,22.49277 6.62624,10.93455 13.71496,-10.30765 15.80606,-14.16174 27.41527,-26.6089 l 28.90225,13.9706 c -18.5571,22.52909 -4.89776,27.70533 4.01716,16.86094 23.72048,-28.4944 42.46567,-61.72066 42.2666,-100.92986 -0.0633,-12.4556 -10.60883,-12.89328 -11.62392,-1.10418 -2.23895,26.00389 -10.93368,51.79994 -24.07138,69.9108 l -29.23166,-12.97304 c 20.40085,-47.24096 26.94143,-79.95319 24.55719,-108.41878 -1.04781,-9.21375 -10.657,-3.84343 -11.24168,3.81169 -4.98194,65.23071 -16.22651,88.59289 -46.24579,122.44998 l -24.13388,-23.67306 c 23.99961,-24.47337 39.65736,-61.35932 40.22036,-109.25683 -3.42063,-19.56268 -11.52134,-11.12386 -11.58994,-0.25773 -5.69609,123.37686 -120.16138,167.7346 -210.53274,134.45059 z"
       style="display:inline;opacity:1;fill:#cdde87;fill-opacity:0.278431;stroke:#89a02c;stroke-width:1;stroke-linecap:butt;stroke-linejoin:miter;stroke-miterlimit:4;stroke-dasharray:none;stroke-opacity:1"
       id="p034529">
      <title
         id="title2948">Rough endoplasmic reticulum membrane</title>
    </path>
    <path
       sodipodi:insensitive="true"
       d="M 768.05673,301.03537 A 382.37003,382.37003 0 0 1 497.68028,769.34111 382.37003,382.37003 0 0 1 29.374561,498.96466 382.37003,382.37003 0 0 1 299.751,30.658942 382.37003,382.37003 0 0 1 768.05673,301.03537 Z"
       style="display:none;opacity:0.995;fill:none;fill-opacity:0.278431;stroke:#f100f1;stroke-width:1;stroke-miterlimit:4;stroke-dasharray:none;stroke-opacity:1"
       id="GO0005886"
       inkscape:label="plasma membrane" />
    <path
       sodipodi:insensitive="true"
       d="m 403.9798,562.59405 c 15.98989,22.71825 34.36267,32.09228 57.07362,17.1726 m -88.38835,12.12183 c 24.09395,35.28073 56.63627,36.76799 91.4188,29.29442 M 324.68282,608.05092 c 43.67393,52.4732 99.22929,63.90144 157.5838,65.65991 M 284.7818,680.7819 c 64.49326,-0.24423 115.81479,21.46441 156.06857,61.61931"
       style="display:none;fill:none;stroke:#00f3ee;stroke-width:1px;stroke-linecap:butt;stroke-linejoin:miter;stroke-opacity:1"
       id="GO0005796"
       inkscape:label="Golgi lumen" />
    <path
       sodipodi:insensitive="true"
       d="m 383.77675,585.82756 c -13.47617,-8.88668 -25.69782,-14.16309 -19.69797,14.14213 31.51555,40.32003 70.04903,39.91538 101.52032,34.3452 23.63806,-9.38176 11.75655,-24.76643 -2.52537,-22.22337 -32.3994,1.89886 -58.036,8.64056 -79.29698,-26.26396 z m -51.01271,14.64722 c -17.01998,-5.50327 -26.2314,-1.76894 -17.67767,17.17259 62.78781,59.65634 107.9099,70.20183 168.1904,66.67006 13.48363,-1.17851 24.04892,-12.96362 -1.01015,-20.20305 -65.05381,-6.2691 -101.99554,-12.0206 -149.50258,-63.6396 z m -52.52793,65.65991 c -5.43768,9.285 -16.97946,18.23088 0.50508,28.78934 69.3568,-3.01645 99.89957,12.50126 160.10918,63.13454 12.9176,1.47688 17.29476,-4.33163 17.17259,-14.64721 -53.8003,-54.27142 -109.20314,-83.48286 -177.78685,-77.27667 z m 128.28937,-117.1777 c 10.50104,18.0189 18.84067,42.80162 52.02286,17.1726 8.67933,4.08122 14.5912,9.29712 15.65736,14.64721 -17.86268,20.73965 -67.22696,25.53896 -82.8325,-17.1726 -0.70172,-10.95746 7.28214,-11.25868 15.15228,-14.64721 z"
       style="display:none;fill:none;stroke:#c700c9;stroke-width:1px;stroke-linecap:butt;stroke-linejoin:miter;stroke-opacity:1"
       id="GO0000139"
       inkscape:label="Golgi membrane" />
    <path
       sodipodi:insensitive="true"
       style="display:none;fill:none;stroke:#de00e2;stroke-width:1px;stroke-linecap:butt;stroke-linejoin:miter;stroke-opacity:1"
       d="m 308.6016,106.06602 12.62691,11.11167 -6.06092,5.55584 -11.61675,-11.61675 -7.57615,6.06091 9.09138,10.60661 -15.15229,9.09137 -4.04061,-3.53553 -24.74874,25.75888 3.53553,11.11168 -15.65736,-11.61675 v 10.6066 l -18.18275,18.18275 1.51523,6.06091 -12.12183,-9.59645 -2.52538,13.63706 -9.59645,8.5863 v 12.12183 l -18.18274,-12.12183 1.01015,13.13198 -15.15229,1.01015 11.11168,7.57615 -3.53553,6.56599 -14.14214,-10.10153 -5.55584,7.57615 16.66752,10.10152"
       id="GO0005759"
       inkscape:label="mitochondrial matrix" />
    <path
       sodipodi:insensitive="true"
       style="display:none;fill:none;stroke:#e200dc;stroke-width:1px;stroke-linecap:butt;stroke-linejoin:miter;stroke-opacity:1"
       d="m 321.22851,97.984796 -14.14214,-4.545686 -13.13198,4.545686 -9.59645,24.748734 -8.5863,-5.05076 -17.17259,-14.64721 -12.12183,9.59645 21.71828,19.69797 -5.05076,12.12183 -10.60661,4.04061 -24.24366,-24.24366 h -10.6066 l -4.04061,10.6066 23.73859,23.23351 -3.53554,13.13199 -11.61675,0.50507 -28.28427,-24.74874 -8.08122,2.02031 -3.53554,9.59645 27.7792,25.25381 -6.06092,10.6066 -10.10152,2.52538 -23.73859,-21.2132 -6.06091,2.52538 -2.52538,10.10153 16.16244,17.67767 -6.56599,5.55584 -20.20306,10.10152 v 18.18275 l 16.16245,15.65736 20.20305,-4.04061 12.6269,-24.74874 11.61676,6.06092 17.17259,15.15229 11.61675,-6.56599 -1.01015,-7.57615 -19.1929,-13.13198 v -14.64721 l 5.55584,-3.03046 13.13199,4.04061 18.18274,16.66752 13.13198,1.01015 2.02031,-9.09137 -26.26397,-23.73859 3.53554,-10.6066 13.13198,-3.03046 26.76904,24.24366 13.63706,-8.08122 -6.56599,-12.6269 -21.2132,-15.65737 1.51523,-9.59645 9.09137,-4.54568 26.26396,19.69797 7.57615,1.01015 3.53553,-8.58629 -18.18274,-21.21321 4.04061,-6.56599 20.20305,-8.58629 5.55584,-12.62691 z"
       id="GO0005743"
       inkscape:label="mitochondrial inner membrane" />
    <path
       sodipodi:insensitive="true"
       style="display:none;fill:none;stroke:#da00ba;stroke-width:1px;stroke-linecap:butt;stroke-linejoin:miter;stroke-opacity:1"
       d="m 342.44171,107.58125 0.50508,27.77919 -15.15229,9.09137 6.56599,16.16244 -12.62691,23.73859 -8.58629,0.50507 v 8.5863 l -17.67767,22.22336 -9.09138,-1.51523 -4.04061,13.13198 -20.20305,12.12183 -8.08122,-4.04061 -5.05076,12.12183 -22.72843,13.63706 -42.42641,6.06092 h -6.06091 l -25.25382,-4.54569 -18.18274,-24.74874 6.56599,-29.29442 15.65736,-5.05076 -10.10152,-12.62691 20.20305,-29.7995 9.09137,4.54569 -2.52538,-11.61676 14.64721,-17.17259 14.14214,0.50508 v -9.09138 l 19.69797,-16.66751 12.62691,2.52538 4.54569,-11.11168 25.75888,-12.121832 12.12184,11.616752 8.08122,-15.657362 18.68782,-2.020305"
       id="GO0005758"
       sodipodi:nodetypes="cccccccccccccccccccccccccccccccccc"
       inkscape:label="mitochondrial intermembrane space" />
    <path
       d="M 369.2342,-26.73078 A 74.301552,134.37631 0 0 1 294.93265,107.64553 74.301552,134.37631 0 0 1 220.6311,-26.73078 74.301552,134.37631 0 0 1 294.93265,-161.10709 74.301552,134.37631 0 0 1 369.2342,-26.73078"
       transform="matrix(0.74612148,0.66580983,-0.74612148,0.66580983,0,0)"
       inkscape:label="mitochondrial outer membrane"
       style="display:none;opacity:1;fill:none;fill-opacity:0.278431;stroke:#cd0087;stroke-width:0.951448;stroke-miterlimit:4;stroke-dasharray:none;stroke-opacity:1"
       id="GO0005741" />
    <path
       sodipodi:insensitive="true"
       id="GO0030061"
       style="display:none;fill:none;stroke:#0000e6;stroke-width:1px;stroke-linecap:butt;stroke-linejoin:miter;stroke-opacity:1"
       d="m 285.87317,163.13963 11.61675,11.61676 m -39.39595,13.13198 19.1929,18.68782 m -48.48732,8.08122 16.66752,13.13199 m -59.599,-54.04316 14.14213,12.6269 m 42.93149,-64.64976 12.12183,12.12183 m -42.93149,15.15229 c 14.14214,14.14213 14.64721,14.14213 14.64721,14.14213 v 0 0"
       inkscape:label="mitochondrial crista" />
    <path
       sodipodi:insensitive="true"
       sodipodi:nodetypes="csssssssssssssssc"
       id="GO0000790"
       d="m 470.72293,175.74624 c 0,0 -14.83119,-24.15756 -24.34828,-24.94308 -11.87804,-0.9804 -20.88835,15.4812 -14.16007,23.68038 6.02875,7.34673 21.01637,12.40126 26.59572,6.1222 3.93829,-4.4322 4.70576,-47.92863 -17.26668,-46.17567 -19.69743,1.57146 15.05107,28.6448 3.55348,35.19253 -5.1361,2.92495 -30.86595,-5.10863 -28.79986,7.77792 1.77779,11.08837 27.03714,14.14659 29.74602,25.04496 1.70809,6.87199 -3.14237,17.37949 -10.10153,18.68783 -9.98734,1.87765 -11.23115,-24.52138 -23.90918,-9.18275 -16.63581,20.12699 12.9338,13.23719 14.80402,29.56526 1.24339,10.8555 47.21123,-2.39764 49.04189,8.37438 1.07753,6.34042 -10.41919,11.93158 -15.54533,8.04768 -9.68132,-7.33521 -5.7717,-27.76143 -14.76669,-25.38688 -8.78534,2.31922 -13.38608,19.96514 -11.94107,26.12655 2.11156,9.00357 12.95572,6.38723 20.15356,12.19362 11.01971,8.88943 1.85315,22.08286 1.85315,22.08286"
       style="display:none;opacity:1;fill:none;fill-opacity:0.278431;stroke:#dd0bdd;stroke-width:1;stroke-linecap:butt;stroke-linejoin:miter;stroke-miterlimit:4;stroke-dasharray:none;stroke-opacity:1;filter:url(#filter2922)"
       inkscape:label="nuclear chromatin" />
    <path
       sodipodi:insensitive="true"
       d="m 520.48987,268.57949 c -8.88616,5.16263 -19.01979,8.11662 -30.01749,8.11662 -5.16341,0 -10.17572,-0.65115 -14.96028,-1.8763 m -1.75971,-117.97105 c 5.31023,-1.53399 10.91977,-1.91371 16.71999,-1.91371 2.223,0 4.41799,0.12069 6.57886,0.35592 m 44.20785,110.81 c -12.7345,12.64227 -31.4866,20.69758 -50.78671,20.69758 -6.71561,0 -13.21198,-0.94471 -19.3651,-2.7093 m -0.94279,-136.47976 c 5.5286,-1.40125 14.34712,-2.77688 20.30789,-2.77688 9.74795,0 19.034,1.99047 27.47879,5.58962 m 41.88574,106.19674 c -13.80816,24.2202 -39.63027,39.7769 -69.36453,39.7769 -7.02622,0 -13.84105,-0.91096 -20.33425,-2.62193 m -0.54669,-155.95418 c 6.73243,-1.84961 13.56585,-2.58447 20.88094,-2.58447 17.4921,0 33.67401,5.64597 46.84486,15.22604 m 38.51394,91.27758 c -10.93699,37.03138 -45.0143,63.69102 -85.3588,63.69102 -7.58048,0 -14.9397,-0.95345 -21.96573,-2.7477 m -0.77617,-173.46396 c 7.33527,-1.96802 14.7906,-3.01704 22.7419,-3.01704 26.24274,0 49.83378,11.42678 66.12938,29.60652 m 29.39092,60.00783 c 0,53.09608 -42.76589,96.13895 -95.5203,96.13895 -8.56026,0 -16.85751,-1.13333 -24.75173,-3.25905 m 1.38981,-186.02249 c 8.15768,-2.28184 14.48187,-2.99635 23.36192,-2.99635 52.7544,0 95.5203,43.04287 95.5203,96.13894 m 7.9786,0 A 103.49889,104.16922 0 0 1 490.47238,319.9848 103.49889,104.16922 0 0 1 386.97349,215.81558 103.49889,104.16922 0 0 1 490.47238,111.64636 103.49889,104.16922 0 0 1 593.97128,215.81558 m 6.98127,0 A 110.48016,111.19571 0 0 1 490.47238,327.01129 110.48016,111.19571 0 0 1 379.99222,215.81558 110.48016,111.19571 0 0 1 490.47238,104.61987 110.48016,111.19571 0 0 1 600.95255,215.81558 Z"
       style="display:none;opacity:0.995;fill:none;fill-opacity:0.273092;stroke:#ff02d1;stroke-width:1;stroke-miterlimit:4;stroke-dasharray:none;stroke-opacity:1"
       id="GO0005654"
       inkscape:label="nucleoplasm" />
    <path
       d="m 529.00602,208.69547 a 7.5287204,7.5287204 0 0 1 -7.52873,7.52872 7.5287204,7.5287204 0 0 1 -7.52872,-7.52872 7.5287204,7.5287204 0 0 1 7.52872,-7.52873 7.5287204,7.5287204 0 0 1 7.52873,7.52873 m 8.53827,0 a 16.066992,16.066992 0 0 1 -16.067,16.06699 16.066992,16.066992 0 0 1 -16.06699,-16.06699 16.066992,16.066992 0 0 1 16.06699,-16.067 16.066992,16.066992 0 0 1 16.067,16.067 m 8.03602,0 a 24.103012,24.103012 0 0 1 -24.10302,24.10301 24.103012,24.103012 0 0 1 -24.10301,-24.10301 24.103012,24.103012 0 0 1 24.10301,-24.10302 24.103012,24.103012 0 0 1 24.10302,24.10302 m 9.04052,0 a 33.143536,33.143536 0 0 1 -33.14354,33.14353 33.143536,33.143536 0 0 1 -33.14353,-33.14353 33.143536,33.143536 0 0 1 33.14353,-33.14354 33.143536,33.143536 0 0 1 33.14354,33.14354 m 8.03602,0 a 41.179554,41.179554 0 0 1 -41.17956,41.17955 41.179554,41.179554 0 0 1 -41.17955,-41.17955 41.179554,41.179554 0 0 1 41.17955,-41.17956 41.179554,41.179554 0 0 1 41.17956,41.17956 m 7.53377,0 a 48.713322,48.713322 0 0 1 -48.71333,48.71332 48.713322,48.713322 0 0 1 -48.71332,-48.71332 48.713322,48.713322 0 0 1 48.71332,-48.71333 48.713322,48.713322 0 0 1 48.71333,48.71333 z"
       style="display:none;opacity:0.995;fill:#eef4d7;fill-opacity:0.278431;stroke:#c700c9;stroke-width:1;stroke-miterlimit:4;stroke-dasharray:none;stroke-opacity:1"
       id="GO0005730"
       inkscape:label="nucleolus"
       sodipodi:insensitive="true" />
    <path
       inkscape:label="nuclear_membrane"
       d="m 457.09403,335.87572 c 45.5102,8.02414 89.94494,7.01448 128.79445,-40.91118 m -13.13199,-170.2107 c 40.39797,38.6607 48.06429,78.18276 37.37565,118.18785 m -240.41631,-57.5787 c -12.27155,37.95221 0.41226,75.01316 25.75889,111.62186 M 398.0001,131.82491 C 431.02469,99.826757 469.86458,88.909068 513.66257,95.964492"
       style="display:none;fill:none;stroke:#e400dd;stroke-width:1px;stroke-linecap:butt;stroke-linejoin:miter;stroke-opacity:1"
       id="GO0031965"
       sodipodi:insensitive="true" />
    <path
       inkscape:label="nuclear_pore"
       d="m 524.26917,96.974644 c 14.14214,5.154306 28.28427,8.299526 42.42641,23.738586 m 42.93148,129.8046 c -4.24058,17.7828 -10.91568,30.69657 -19.1929,40.4061 m -189.4036,11.11168 c 13.21043,11.70437 26.20064,23.54088 45.96194,31.31473 M 391.93919,140.4112 c -7.79741,11.58148 -14.8906,23.63245 -18.68782,37.88072"
       style="display:none;fill:none;stroke:#e600dc;stroke-width:1px;stroke-linecap:butt;stroke-linejoin:miter;stroke-opacity:1"
       id="GO0005643"
       sodipodi:insensitive="true" />
    <path
       inkscape:label="smooth_endoplasmic_reticulum_membrane"
       d="m 732.88529,394.99312 c -12.03879,20.0714 -17.5554,30.14851 -47.05192,44.9533 -8.57692,4.3049 -6.95286,16.89215 8.20021,14.05962 27.48507,-5.13774 46.75864,-25.00009 52.73317,-46.28013 5.44633,-19.39863 -9.23223,-20.4841 -13.88146,-12.73279 z m -6.66551,64.8533 c -8.79306,3.31436 -14.97426,8.36074 -13.83245,17.89318 1.30826,10.9224 8.92188,17.86902 19.33831,15.32384 12.89382,-3.15054 16.71573,-18.36259 12.80478,-27.67397 -3.61225,-8.60026 -9.68173,-8.79557 -18.31064,-5.54305 z m -26.39961,37.75748 c -7.59965,-4.7217 -14.55962,-10.7951 -20.94795,-4.20268 -9.46763,9.77009 -5.99481,25.69266 5.17578,32.84409 11.15308,7.14025 24.52106,2.50028 28.75039,-10.54908 3.0533,-9.42075 -4.8599,-13.04845 -12.97822,-18.09233 z m -49.81432,22.58901 c -11.71825,-4.31478 -23.65076,-0.0334 -28.16478,12.13079 -4.48732,12.09222 1.17533,22.40621 12.97908,26.23935 12.09603,3.928 23.36588,-3.45098 27.25752,-16.08744 3.42818,-11.13159 -1.55599,-18.41065 -12.07182,-22.2827 z m 4.63974,-59.04131 c -7.59305,-1.01253 -13.68945,0.77726 -16.34254,8.27748 -4.28411,12.11118 -0.8737,26.0674 11.28403,28.34673 12.27779,2.30184 18.51943,-11.04146 18.23721,-24.01107 -0.19396,-8.91101 -4.67126,-11.47871 -13.1787,-12.61314 z m -40.32467,31.36282 c -10.14731,11.45727 -33.61585,19.21172 -45.71764,17.28129 -3.87763,-0.61853 -9.55745,10.90735 7.33232,19.17385 17.21521,8.42578 49.35665,-19.66213 43.96459,-36.12139 -0.94188,-2.8751 -2.98491,-3.26302 -5.57927,-0.33375 z"
       style="display:none;opacity:1;fill:#eef4d7;fill-opacity:0.278431;stroke:#cd0a87;stroke-width:1;stroke-linecap:butt;stroke-linejoin:miter;stroke-miterlimit:4;stroke-dasharray:none;stroke-opacity:1"
       id="GO0030868"
       sodipodi:insensitive="true" />
    <path
       inkscape:label="smooth endoplasmic reticulum lumen"
       d="m 612.67857,503.03571 c -11.2214,10.86586 -24.60191,19.13386 -35.35714,15.17858 M 645,527.32143 c -6.28263,-2.10871 -17.21198,7.58513 -15.71429,8.75 -0.0594,6.26696 3.65974,10.37471 6.78572,14.82143 8.35905,0.23363 15.08515,-1.8318 17.85714,-9.46429 -1.46811,-3.58641 -0.3763,-5.14526 -5.89286,-10.35714 -6.37026,1.61348 -11.64892,2.4378 -13.75,4.99999 -0.34705,3.62663 2.72803,8.6948 5.71429,10.89286 3.3892,-1.70558 7.13637,-2.51621 9.64285,-6.42857 -1.54761,-4.03865 -3.09523,-4.33004 -4.64285,-5.17857 -2.60576,1.43136 -7.18219,1.71317 -4.46428,6.25001 m 46.07142,-41.42858 c 8.11485,1.23329 13.95793,5.38743 18.75,10.89286 -4.02807,9.13174 -9.59522,8.51599 -15,8.92857 -9.63057,-5.95182 -5.39619,-11.27342 -5.35714,-16.78571 6.79192,2.32143 12.96719,5.71428 15,8.03571 0.95058,4.92623 -4.96304,4.804 -8.75,3.57142 -5.1123,-2.54526 -2.68308,-4.51041 -1.96428,-6.60713 l 5.89285,3.57142 m -47.5,-40.17857 c 0.48398,-0.79862 5.67304,-5.22441 12.67857,3.57143 -0.66161,4.4272 -0.65741,8.98756 -5.89285,12.5 -4.12948,1.83039 -6.58281,0.30846 -7.85715,-3.57143 -0.7842,-3.15823 -1.64018,-6.34038 0.35715,-8.57143 3.58805,-2.48595 8.87169,-3.24414 9.28571,2.67857 -0.28669,2.45676 -0.601,4.90246 -3.21428,6.42858 -3.18772,-0.18743 -2.67951,-1.60683 -3.21429,-2.67857 -1.86696,-4.49144 1.25576,-4.17435 3.03571,-4.10715 m 66.25001,-1.24999 c 0.88235,-4.37636 4.1186,-7.70655 9.28571,-10.17857 9.04515,-0.19171 8.43669,3.02374 9.82143,5.53571 1.60939,5.6353 -2.51132,11.68462 -8.03571,12.67857 -7.04932,-0.82861 -9.02007,-1.61277 -7.5,-6.25 1.20576,-4.52219 3.21003,-5.67178 5.35714,-6.42857 2.62982,-0.6178 5.86982,0.74038 6.25,3.21429 -1.18696,5.94593 -4.15689,5.32333 -6.78572,2.32142 m 10,-73.92857 c -8.94001,21.44404 -24.64036,34.43765 -45,41.60714 h 0.17857"
       style="display:none;fill:none;stroke:#f100e1;stroke-width:1px;stroke-linecap:butt;stroke-linejoin:miter;stroke-opacity:1"
       id="GO0048238"
       sodipodi:insensitive="true" />
    <path
       inkscape:label="rough endoplasmic reticulum lumen"
       d="m 517.85714,424.28571 4.28572,52.14286 m 139.28571,-134.28571 41.42857,22.14285 m -98.57143,-30.71428 34.28572,34.28571 m -179.28572,5 -8.57142,45 m 7.85714,52.85715 c 49.80666,14.55067 100.43229,7.80805 152.14286,-27.14286 M 730,281.42857 c -3.35478,33.28428 -8.58731,66.44338 -40,97.85714 m -65.71429,0 c 59.80574,-37.70857 58.99398,-92.73642 67.85715,-145 m -275,175 c 46.12585,14.54082 92.69635,22.41181 140.71428,8.57143 m 89.28572,-194.28571 c 11.24189,118.32255 -125.86506,181.1036 -215,140"
       style="display:none;fill:none;stroke:#e800dd;stroke-width:1px;stroke-linecap:butt;stroke-linejoin:miter;stroke-opacity:1"
       id="GO0048237"
       sodipodi:insensitive="true" />
    <path
       style="display:none;fill:none;stroke:#e400e2;stroke-width:1px;stroke-linecap:butt;stroke-linejoin:miter;stroke-opacity:1"
       d="m 699.02556,342.94679 c -5.49666,3.83142 -12.01104,-0.99715 -19.27956,-6.02502 12.99054,-30.04706 22.83833,-62.89408 21.80494,-96.50546 0.78608,-24.34942 -14.14213,-42.61393 -21.2132,0.50507 -6.90738,39.94917 -11.07339,77.17235 -41.92133,108.5914 l -14.94308,-15.11639 c 13.80592,-22.08375 30.28546,-35.75155 38.97753,-101.76544 -1.22405,-31.68611 -20.3352,-43.85394 -22.77177,-7.87201 -8.0608,93.44217 -84.16125,162.63086 -206.82872,130.81476 -18.00351,-16.59313 -35.35582,7.27443 -1.51523,23.73858 l 9.09137,2.52538 -4.04061,22.72843 -12.62691,-2.52538 c -37.9852,-19.80732 -23.11053,17.60351 -6.06091,21.21321 l 85.86296,15.15228 v 22.72844 c -11.52296,1.63246 -22.06026,4.49701 -40.91117,-3.03046 -37.28132,-0.60776 -32.72728,9.24331 -1.51523,25.75889 53.03277,12.87677 104.31933,5.67202 153.54318,-25.25381 21.26582,-9.16216 17.3135,-53.45547 -15.65736,-22.22336 -15.71735,16.34784 -38.98486,22.12544 -64.14469,25.25381 l 1.01016,-25.75889 19.19289,-4.54568 c 26.45881,-3.45711 30.89897,-30.6875 0.50508,-24.24366 -28.44349,6.93927 -59.1514,4.82085 -89.3985,4.54568 l 4.04061,-21.2132 c 46.34314,4.33718 90.67928,-4.70567 131.31983,-38.3858 l 18.18275,17.67767 c -18.50846,21.90827 1.26691,29.35821 17.17259,15.15229 8.5863,-5.9825 17.17259,-8.85642 25.75889,-23.73859 l 18.18275,8.5863 -2.52539,6.56599 c -14.21997,30.71592 12.82064,25.01072 24.24366,9.59645 18.76337,-29.77432 42.3713,-57.93378 39.39595,-94.95434 7.09462,-24.45465 -12.33142,-41.46779 -23.73858,-4.54568 2.12152,19.36126 -10.31102,38.72251 -16.66752,58.08377"
       id="GO0030867"
       sodipodi:nodetypes="cccccccccccccccccccccccccccccccccccc"
       inkscape:label="rough endoplasmic reticulum membrane"
       sodipodi:insensitive="true" />
    <path
       id="GO0005773"
       style="display:none;opacity:1;fill:#eef4d7;fill-opacity:0.278431;stroke:#cd5e87;stroke-width:1;stroke-linecap:butt;stroke-linejoin:miter;stroke-miterlimit:4;stroke-dasharray:none;stroke-opacity:1"
       inkscape:label="Vacuole"
       d="m 182.9082,600.20622 c 0.41907,3.9987 -4.18317,4.62571 -4.59987,5.8177 -0.69857,1.99837 -2.78585,6.81536 -2.58612,8.92448 -0.87676,9.78752 -6.33541,-7.43116 -6.18174,-12.25839 0.2248,-4.22707 2.35921,-7.21252 6.46474,-7.61719 3.1206,-0.3076 6.53159,1.58959 6.90299,5.1334 z m 6.0808,-2.30978 c 0.80089,7.64189 -5.26428,10.61471 -6.06062,12.89272 -1.33504,3.81908 -3.27644,5.10739 -2.89473,9.13811 0.52186,5.51067 1.00101,6.89268 -4.56539,5.30738 -7.91978,-2.25554 -12.50837,-13.52476 -12.02619,-22.59147 0.42961,-8.07831 4.50866,-13.78376 12.3547,-14.55712 5.96374,-0.58785 12.48245,3.03784 13.19223,9.81038 z m 8.25531,-1.56212 c -0.20284,11.33838 -4.75197,13.78158 -7.25682,16.49562 -2.75749,2.98776 -4.9396,7.48934 -2.67427,13.25683 4.13716,10.53317 -7.51163,7.43706 -13.29779,5.01084 -11.6224,-4.87344 -18.81547,-14.90513 -18.07753,-28.78128 0.65751,-12.36344 7.44687,-21.64194 19.45485,-22.82553 9.12721,-0.89967 22.03798,6.42338 21.85156,16.84352 z m 7.27098,-2.35477 c 1.58521,15.12553 -8.13417,19.82097 -10.24701,24.10467 -4.78528,9.70194 3.6351,8.96585 1.265,16.62103 -2.50153,8.07967 -14.96187,6.90868 -22.44496,3.77091 -15.03096,-6.3027 -24.33358,-19.27643 -23.37921,-37.22211 0.85032,-15.98932 9.63083,-27.98897 25.16045,-29.51968 11.80399,-1.16352 28.24087,8.84034 29.64573,22.24518 z m 6.76315,-2.95845 c 1.97736,18.86736 -8.58838,24.44351 -10.5545,30.0678 -3.29611,9.42907 4.97987,8.95639 2.02344,18.50534 -3.12036,10.07846 -21.33617,10.84525 -30.67046,6.93124 -18.74938,-7.86189 -30.35333,-24.04512 -29.16287,-46.43028 1.06069,-19.94483 12.01336,-34.913 31.38476,-36.82239 14.72412,-1.45135 35.22722,11.0273 36.97963,27.74829 z"
       sodipodi:insensitive="true" />
    <path
       id="GO0005874"
       style="display:none;fill:none;stroke:#c200cc;stroke-width:1px;stroke-linecap:butt;stroke-linejoin:miter;stroke-opacity:1"
       d="m 93,289.57143 95,65 m -0.12319,7.56748 15.13901,-3.71092 -108.98316,-76.37709 -14.20879,5.4963 z m -0.2777,8.57665 31.61669,-9.79991 -122.79524,-85.4416 -31.661464,9.34882 z"
       inkscape:label="microtubule"
       sodipodi:insensitive="true" />
    <path
       id="GO0005813"
       style="display:none;opacity:0.995;fill:#eef4d7;fill-opacity:0.278431;stroke:#c200cc;stroke-width:1;stroke-miterlimit:4;stroke-dasharray:none;stroke-opacity:1"
       d="m 277.24008,405 a 7.5257888,7.5257888 0 0 1 -7.52579,7.52579 A 7.5257888,7.5257888 0 0 1 262.18851,405 7.5257888,7.5257888 0 0 1 269.71429,397.47421 7.5257888,7.5257888 0 0 1 277.24008,405 m 9.84683,0 A 17.372616,17.372616 0 0 1 269.71429,422.37262 17.372616,17.372616 0 0 1 252.34168,405 17.372616,17.372616 0 0 1 269.71429,387.62738 17.372616,17.372616 0 0 1 287.08691,405 m 9.84683,0 A 27.219442,27.219442 0 0 1 269.71429,432.21944 27.219442,27.219442 0 0 1 242.49485,405 27.219442,27.219442 0 0 1 269.71429,377.78056 27.219442,27.219442 0 0 1 296.93374,405 m 9.14348,0 A 36.362926,36.362926 0 0 1 269.71429,441.36293 36.362926,36.362926 0 0 1 233.35137,405 36.362926,36.362926 0 0 1 269.71429,368.63707 36.362926,36.362926 0 0 1 306.07722,405 Z"
       inkscape:label="centrosome"
       sodipodi:insensitive="true" />
    <path
       d="m 147.70957,459.23596 a 46.116459,46.116459 0 0 1 -46.11646,46.11646 46.116459,46.116459 0 0 1 -46.11646,-46.11646 46.116459,46.116459 0 0 1 46.11646,-46.11646 46.116459,46.116459 0 0 1 46.11646,46.11646"
       inkscape:label="peroxisomal membrane"
       style="display:none;fill:#eef4d7;fill-opacity:0.278431;stroke:#cd3487;stroke-width:1;stroke-miterlimit:4;stroke-dasharray:none;stroke-opacity:1"
       id="GO0005778" />
    <path
       id="GO0005782"
       style="display:none;fill:#eef4d7;fill-opacity:0.278431;stroke:#cd2587;stroke-width:1;stroke-miterlimit:4;stroke-dasharray:none;stroke-opacity:1"
       d="m 110.30151,459.17856 a 9.1229544,9.1229544 0 0 1 -9.12295,9.12295 9.1229544,9.1229544 0 0 1 -9.122956,-9.12295 9.1229544,9.1229544 0 0 1 9.122956,-9.12296 9.1229544,9.1229544 0 0 1 9.12295,9.12296 m 10.5802,0 a 19.703154,19.703154 0 0 1 -19.70315,19.70315 19.703154,19.703154 0 0 1 -19.703155,-19.70315 19.703154,19.703154 0 0 1 19.703155,-19.70316 19.703154,19.703154 0 0 1 19.70315,19.70316 m 10.5802,0 a 30.283352,30.283352 0 0 1 -30.28335,30.28335 30.283352,30.283352 0 0 1 -30.283354,-30.28335 30.283352,30.283352 0 0 1 30.283354,-30.28335 30.283352,30.283352 0 0 1 30.28335,30.28335"
       inkscape:label="peroxisomal matrix"
       sodipodi:insensitive="true" />
    <path
       d="m 616.73001,622.17493 a 45.768284,47.011566 0 0 1 -45.76828,47.01156 45.768284,47.011566 0 0 1 -45.76828,-47.01156 45.768284,47.011566 0 0 1 45.76828,-47.01157 45.768284,47.011566 0 0 1 45.76828,47.01157"
       inkscape:label="lysosomal membrane"
       style="display:none;opacity:1;fill:#eef4d7;fill-opacity:0.278431;stroke:#cd4287;stroke-width:0.870298;stroke-miterlimit:4;stroke-dasharray:none;stroke-opacity:1"
       id="GO0005765" />
    <path
       id="GO1990836"
       style="display:none;opacity:1;fill:#eef4d7;fill-opacity:0.278431;stroke:#eb4287;stroke-width:1;stroke-miterlimit:4;stroke-dasharray:none;stroke-opacity:1"
       inkscape:label="lysosomal matrix"
       d="m 577.75328,622.17493 a 6.7915516,6.9760418 0 0 1 -6.79155,6.97604 6.7915516,6.9760418 0 0 1 -6.79155,-6.97604 6.7915516,6.9760418 0 0 1 6.79155,-6.97605 6.7915516,6.9760418 0 0 1 6.79155,6.97605 m 12.66744,0 a 19.45899,19.987587 0 0 1 -19.45899,19.98758 19.45899,19.987587 0 0 1 -19.45899,-19.98758 19.45899,19.987587 0 0 1 19.45899,-19.98759 19.45899,19.987587 0 0 1 19.45899,19.98759 m 10.7186,0 a 30.177591,30.997356 0 0 1 -30.17759,30.99735 30.177591,30.997356 0 0 1 -30.17759,-30.99735 30.177591,30.997356 0 0 1 30.17759,-30.99736 30.177591,30.997356 0 0 1 30.17759,30.99736"
       sodipodi:insensitive="true" />
    <path
       id="GO0005840"
       style="display:none;opacity:1;fill:#eef4d7;fill-opacity:0.278431;stroke:#cd3f87;stroke-width:1;stroke-linecap:butt;stroke-linejoin:miter;stroke-miterlimit:4;stroke-dasharray:none;stroke-opacity:1"
       inkscape:label="ribosome"
       d="m 354.62422,324.9683 c -1.13713,0.0119 -2.21974,0.45328 -3.08856,1.60725 -1.6574,2.20134 -0.35452,9.11751 1.28449,10.9856 -0.68738,0.0954 -0.8077,2.57091 -0.0251,3.30172 1.45821,1.36179 3.98862,-0.26405 5.9825,-0.19134 1.65574,0.0604 3.69708,1.61207 4.94334,0.52027 1.15449,-1.0114 1.19209,-4.52364 0.12454,-4.60293 -0.007,-4.1e-4 -0.008,0.0103 -0.0114,0.0156 1.14674,-1.80625 -0.71203,-6.84893 -2.32478,-8.24813 -1.19218,-1.03433 -4.19168,-3.41621 -6.88492,-3.3881 z m -4.43065,-11.99989 c -2.78005,0.029 -5.42677,1.10819 -7.55085,3.92937 -4.05197,5.3818 -0.86671,22.29029 3.1403,26.85735 -1.68051,0.23329 -1.97466,6.28528 -0.0615,8.07196 3.56501,3.32926 9.75128,-0.64554 14.62587,-0.46778 4.04792,0.14762 9.03855,3.94114 12.08536,1.27195 2.82249,-2.47266 2.91441,-11.0593 0.30449,-11.25315 -0.0161,-10e-4 -0.0189,0.0251 -0.028,0.0382 2.80353,-4.41588 -1.74075,-16.7441 -5.68356,-20.16484 -2.91463,-2.52871 -10.24772,-8.35187 -16.8321,-8.28314 z m -4.30035,-11.64695 c -4.37465,0.0457 -8.53948,1.74383 -11.88189,6.1832 -6.37612,8.4687 -1.36385,35.07562 4.94152,42.26228 -2.64443,0.36709 -3.10729,9.8904 -0.0967,12.7019 5.60984,5.23886 15.34445,-1.01581 23.01502,-0.73609 6.36975,0.23229 14.22292,6.2017 19.01733,2.00151 4.44142,-3.89093 4.58606,-17.40273 0.47913,-17.70777 -0.0254,-0.002 -0.0297,0.0395 -0.044,0.0601 4.41159,-6.94875 -2.73921,-26.34824 -8.94355,-31.73105 -4.58641,-3.97914 -16.12563,-13.14237 -26.4867,-13.03421 z"
       sodipodi:insensitive="true" />
    <path
       id="GO0005798"
       style="display:none;opacity:0.992767;fill:#eef4d7;fill-opacity:0.278431;stroke:#cd2587;stroke-width:1;stroke-miterlimit:4;stroke-dasharray:none;stroke-opacity:1"
       d="m 286.3364,632.85712 a 7.47925,7.47925 0 0 1 -7.47925,7.47925 7.47925,7.47925 0 0 1 -7.47925,-7.47925 7.47925,7.47925 0 0 1 7.47925,-7.47925 7.47925,7.47925 0 0 1 7.47925,7.47925 m 7.68894,0 a 15.168197,15.168197 0 0 1 -15.16819,15.16819 15.168197,15.168197 0 0 1 -15.1682,-15.16819 15.168197,15.168197 0 0 1 15.1682,-15.1682 15.168197,15.168197 0 0 1 15.16819,15.1682"
       sodipodi:insensitive="true"
       inkscape:label="Golgi-associated vesicle" />
    <path
       d="m 350.63123,517.23596 a 39.038124,39.652241 0 0 1 -39.03812,39.65224 39.038124,39.652241 0 0 1 -39.03812,-39.65224 39.038124,39.652241 0 0 1 39.03812,-39.65224 39.038124,39.652241 0 0 1 39.03812,39.65224"
       inkscape:label="endosome membrane"
       style="display:none;fill:none;fill-opacity:0.278431;stroke:#cd2187;stroke-width:1;stroke-miterlimit:4;stroke-dasharray:none;stroke-opacity:1"
       id="GO0010008" />
    <path
       id="GO0031904"
       style="display:none;fill:none;fill-opacity:0.278431;stroke:#cd2187;stroke-width:1;stroke-miterlimit:4;stroke-dasharray:none;stroke-opacity:1"
       d="m 316.44059,517.23596 a 4.8474798,4.9237366 0 0 1 -4.84748,4.92374 4.8474798,4.9237366 0 0 1 -4.84748,-4.92374 4.8474798,4.9237366 0 0 1 4.84748,-4.92373 4.8474798,4.9237366 0 0 1 4.84748,4.92373 m 10.57879,0 a 15.426272,15.668946 0 0 1 -15.42627,15.66895 15.426272,15.668946 0 0 1 -15.42627,-15.66895 15.426272,15.668946 0 0 1 15.42627,-15.66894 15.426272,15.668946 0 0 1 15.42627,15.66894 m 9.72253,0 a 25.1488,25.54442 0 0 1 -25.1488,25.54442 25.1488,25.54442 0 0 1 -25.1488,-25.54442 25.1488,25.54442 0 0 1 25.1488,-25.54442 25.1488,25.54442 0 0 1 25.1488,25.54442"
       inkscape:label="endosome lumen"
       sodipodi:insensitive="true" />
    <path
       id="GO0005737"
       style="display:none;fill:none;stroke:#f000db;stroke-width:1px;stroke-linecap:butt;stroke-linejoin:miter;stroke-opacity:1"
       d="M 732.85714,525.71429 C 685.99962,653.42803 599.67834,724.13856 484.28571,752.85714 L 470,740 C 583.34473,717.71171 664.93832,662.8566 703.14286,547.42857 L 684,556.85714 c -19.32794,51.1661 -28.64278,53.86578 -48.28572,74.57143 M 71.428571,532.85714 C 120.96933,624.53516 157.37415,719.7161 372.85714,767.14286 l 12.85715,-12.85715 C 296.65234,724.52705 151.60033,713.4551 217.14286,620 l 18.57143,-14.28571 C 184.41757,667.66637 212.31032,702.12408 398.85714,740 M 54.285714,320 C 157.91656,388.13054 261.09272,456.39581 264.28571,554.28571 L 250,568.57143 C 215.69419,414.72336 124.35112,392.01982 42.857143,347.14286 l -8.571429,18.57143 C 139.19953,393.72062 212.54729,457.41031 230,584.28571 l -15.71429,14.28572 C 212.22724,552.15056 196.31521,508.80826 160,470 m 200,-65.71429 c 30.08093,60.4544 79.34004,109.80564 181.42857,128.57143 l -10,15.71429 c -92.24375,-25.41056 -159.96316,-63.72867 -180,-127.14286 L 335.71429,440 c 44.43332,70.44367 113.54682,95.64035 180,125.71429 l -80,-20 C 387.728,519.45143 376.11448,520.33706 370,508.57142 M 343.71429,238.28571 C 297.52381,253.22837 251.33334,264.79214 205.14286,324 L 228,338.28571 c 26.78309,-52.62429 70.48912,-71.4027 120,-78.57142 l 10,22.85714 c -53.38916,-2.88486 -86.58554,23.39761 -105.71429,70 M 687.71429,185.71429 C 581.86831,51.892714 444.64687,41.335989 347.14286,37.142857 l -1.42857,17.142858 c 42.00297,5.136175 103.06018,2.757446 121.42857,11.428571"
       inkscape:label="cytoplasm"
       sodipodi:insensitive="true" />
    <path
       id="unlocalized"
       style="display:none;fill:none;stroke:#000000;stroke-width:1px;stroke-linecap:butt;stroke-linejoin:miter;stroke-opacity:1"
       d="M 103.75873,791.53196 C 65.41265,766.1875 35.07136,735.34603 11.66727,699.74069 m 112.32992,91.52774 C 75.18959,761.76776 38.45076,723.97928 11.84475,679.23243 m 135.8087,112.98844 C 86.71018,759.27269 43.05432,714.45297 13.44852,659.98487 M 169.27031,792.21852 C 94.57004,756.00728 43.90118,703.2933 12.07971,637.63653 M 197.82119,792.3409 C 105.57021,754.06709 46.41018,693.06922 12.22224,614.92264 M 228.07145,793.60616 C 113.39488,753.36142 45.03517,681.31018 9.95788,586.40341 M 254.00666,793.52246 C 118.22935,751.49347 43.16465,667.77221 9.66536,555.50736 M 279.28199,792.55403 C 119.2295,748.77069 38.5839,650.45744 9.26004,516.90078 m 686.61143,272.63118 c 38.34608,-25.34446 68.68737,-56.18593 92.09146,-91.79127 m -112.32992,91.52774 c 48.8076,-29.50067 85.54643,-67.28915 112.15244,-112.036 m -135.8087,112.98844 c 60.94327,-32.94818 104.59913,-77.7679 134.20493,-132.236 M 630.35989,790.21852 C 705.06016,754.00728 755.72902,701.2933 787.55049,635.63653 M 601.80901,790.3409 C 694.05999,752.06709 753.22002,691.06922 787.40796,612.92264 M 571.55875,791.60616 C 686.23532,751.36142 754.59503,679.31018 789.67232,584.40341 M 545.62354,791.52246 C 681.40085,749.49347 756.46555,665.77221 789.96484,553.50736 M 520.34821,790.55403 C 680.4007,746.77069 761.0463,648.45744 790.37016,514.90078 M 699.87147,8.028941 c 38.34608,25.344456 68.68737,56.185924 92.09146,91.791269 M 679.63301,8.292475 c 48.8076,29.500669 85.54643,67.289148 112.15244,112.035995 M 655.97675,7.340029 C 716.92002,40.288214 760.57588,85.107932 790.18168,139.57603 M 634.35989,7.34238 c 74.70027,36.211243 125.36913,88.92522 157.1906,154.58199 M 605.80901,7.220004 C 698.05999,45.493813 757.22002,106.49168 791.40796,184.63826 M 575.55875,5.9547364 C 690.23532,46.199483 758.59503,118.25072 793.67232,213.15749 M 549.62354,6.038444 C 685.40085,48.067431 760.46555,131.78869 793.96484,244.05354 M 524.34821,7.006866 C 684.4007,50.790208 765.0463,149.10346 794.37016,282.66012 M 97.758731,6.028941 C 59.41265,31.373397 29.071361,62.214865 5.6672715,97.820212 M 117.99719,6.2924754 C 69.189587,35.793144 32.450755,73.581623 5.8447528,118.32847 M 141.65345,5.340029 C 80.710178,38.288214 37.054323,83.107932 7.4485183,137.57603 M 163.27031,5.3423795 C 88.570037,41.553623 37.901177,94.267601 6.0797124,159.92437 M 191.82119,5.2200035 C 99.570206,43.493813 40.410182,104.49168 6.2222373,182.63826 M 222.07145,3.9547364 C 107.39488,44.199483 39.035175,116.25072 3.9578824,211.15749 M 248.00666,4.0384436 C 112.22935,46.067431 37.164654,129.78869 3.6653605,242.05354 M 273.28199,5.006866 C 113.2295,48.790208 32.583902,147.10346 3.2600355,280.66012 M 300.74328,6.0461378 C 114.16006,50.243459 28.807848,163.95765 5.0983875,320.00284 M 4.5178541,421.18504 C 18.092466,917.00891 780.43152,927.00332 793.88824,418.97684 M 5.9404111,406.39979 C 1.0643471,-162.06964 838.45851,-96.467307 795.29421,409.93771"
       sodipodi:insensitive="true"
       sodipodi:nodetypes="cccccccccccccccccccccccccccccccccccccccccccccccccccccccccccccccccccccc" />
  </g>
</svg>
