<?xml version="1.0" encoding="UTF-8" standalone="no"?>
<svg
   xmlns:dc="http://purl.org/dc/elements/1.1/"
   xmlns:cc="http://creativecommons.org/ns#"
   xmlns:rdf="http://www.w3.org/1999/02/22-rdf-syntax-ns#"
   xmlns:svg="http://www.w3.org/2000/svg"
   xmlns="http://www.w3.org/2000/svg"
   xmlns:sodipodi="http://sodipodi.sourceforge.net/DTD/sodipodi-0.dtd"
   xmlns:inkscape="http://www.inkscape.org/namespaces/inkscape"
   inkscape:version="1.0 (4035a4fb49, 2020-05-01)"
   sodipodi:docname="ribosome.svg"
   id="SVGRoot"
   version="1.1"
   viewBox="0 0 800 800"
  >
  <defs
     id="defs815" />
  <sodipodi:namedview
     inkscape:snap-others="false"
     inkscape:object-nodes="false"
     inkscape:document-rotation="0"
     inkscape:window-maximized="1"
     inkscape:window-y="-8"
     inkscape:window-x="-8"
     inkscape:window-height="745"
     inkscape:window-width="1366"
     showgrid="false"
     inkscape:current-layer="layer1"
     inkscape:document-units="px"
     inkscape:cy="436.41579"
     inkscape:cx="440.43995"
     inkscape:zoom="1.28"
     inkscape:pageshadow="2"
     inkscape:pageopacity="0.0"
     borderopacity="1.0"
     bordercolor="#666666"
     pagecolor="#ffffff"
     id="base" />
  <metadata
     id="metadata818">
    <rdf:RDF>
      <cc:Work
         rdf:about="">
        <dc:format>image/svg+xml</dc:format>
        <dc:type
           rdf:resource="http://purl.org/dc/dcmitype/StillImage" />
        <dc:title></dc:title>
      </cc:Work>
    </rdf:RDF>
  </metadata>
  <g
     transform="translate(0,100)"
     id="layer1"
     inkscape:groupmode="layer"
     inkscape:label="Layer 1">
    <path
       sodipodi:nodetypes="ssssss"
       inkscape:connector-curvature="0"
       id="path1371"
       d="M 138.74539,5.5655243 C 271.25094,-172.01792 513.54537,19.715354 590.31517,86.921556 663.48065,150.97243 747.83405,382.15642 695.26825,464.25122 649.73756,535.35888 550.32712,485.48545 451.81936,495.49551 354.67233,505.36729 260.11937,573.87252 198.27661,518.7931 119.76324,448.86622 60.923678,109.8619 138.74539,5.5655243 Z"
       style="display:inline;fill:#eef4d7;fill-opacity:0.278431;stroke:#cdde87;stroke-width:1;stroke-linecap:butt;stroke-linejoin:miter;stroke-miterlimit:4;stroke-dasharray:none;stroke-opacity:1">
      <title
         id="title3600">Ribosome large subunit</title>
    </path>
    <path
       sodipodi:nodetypes="sssaaas"
       inkscape:connector-curvature="0"
       id="path1373"
       d="m 190.43986,510.72127 c 65.94832,72.77884 172.34357,-13.27913 278.48435,-16.85294 94.94595,-3.19686 180.4859,38.5271 227.16749,-30.83317 34.41924,-51.14067 46.63032,164.08086 -5.64164,210.28778 -56.42654,49.87951 -148.8474,-21.0138 -223.81465,-23.77229 -90.27662,-3.32186 -204.84799,70.95694 -270.87137,8.74251 -35.65309,-33.59623 -32.74408,-177.83178 -5.32418,-147.57189 z"
       style="display:inline;fill:#eef4d7;fill-opacity:0.278431;stroke:#cdde87;stroke-width:1;stroke-linecap:butt;stroke-linejoin:miter;stroke-miterlimit:4;stroke-dasharray:none;stroke-opacity:1">
      <title
         id="title3602">Ribosome small subunit</title>
    </path>
    <path
       sodipodi:nodetypes="casssacsc"
       inkscape:connector-curvature="0"
       id="path1381"
       d="m 610.00566,359.84625 c -3.73609,64.67963 -50.37104,21.27127 -61.535,43.99961 -13.07234,26.61354 47.96952,92.73485 3.00297,89.05744 -24.73696,-2.02301 -14.1239,-1.07952 -54.07055,-4.40482 -20.79865,-1.73137 -13.35843,0.0367 -30.50006,-0.14592 -18.11383,-0.19305 16.51112,-69.78743 -3.91014,-92.97312 -25.73759,-29.22163 -108.61421,27.62737 -114.74573,-18.69685 -3.7422,-63.71883 15.12988,-69.942 128.34946,-50.03634 54.47354,9.57726 140.79163,-71.8129 133.40905,33.2 z"
       style="display:inline;fill:#eef4d7;fill-opacity:0.278431;stroke:#cdde87;stroke-width:1;stroke-linecap:butt;stroke-linejoin:miter;stroke-miterlimit:4;stroke-dasharray:none;stroke-opacity:1">
      <title
         id="title3604">tRNA</title>
    </path>
    <path
       inkscape:connector-curvature="0"
       id="circle1531"
       d="m 562.63855,-88.560468 a 18.472688,18.564 0 0 0 -18.47109,18.564341 18.472688,18.564 0 0 0 6.29342,13.938777 18.472688,18.564 0 0 0 -3.26154,-0.308373 18.472688,18.564 0 0 0 -18.47109,18.564349 18.472688,18.564 0 0 0 3.61082,10.988885 18.472688,18.564 0 0 0 -7.5266,-1.625256 18.472688,18.564 0 0 0 -18.47112,18.564349 18.472688,18.564 0 0 0 2.54747,9.361691 18.472688,18.564 0 0 0 -8.89105,-2.294361 18.472688,18.564 0 0 0 -18.47304,18.564344 18.472688,18.564 0 0 0 3.59349,10.963675 18.472688,18.564 0 0 0 -4.85952,-0.674928 18.472688,18.564 0 0 0 -18.47303,18.564345 18.472688,18.564 0 0 0 8.35649,15.515543 18.472688,18.564 0 0 0 -16.78244,18.471262 18.472688,18.564 0 0 0 15.85222,18.352943 18.472688,18.564 0 0 0 -13.8316,17.955362 18.472688,18.564 0 0 0 18.47302,18.56241 18.472688,18.564 0 0 0 6.44396,-1.17725 18.472688,18.564 0 0 0 -4.91161,12.57343 18.472688,18.564 0 0 0 18.47304,18.56238 18.472688,18.564 0 0 0 5.44811,-0.84557 18.472688,18.564 0 0 0 -5.06213,12.73631 18.472688,18.564 0 0 0 18.47303,18.56434 18.472688,18.564 0 0 0 5.57163,-0.88826 18.472688,18.564 0 0 0 -7.99174,15.26148 18.472688,18.564 0 0 0 15.14202,18.24627 18.472688,18.564 0 0 0 -14.31216,18.06205 18.472688,18.564 0 0 0 8.08051,15.3468 18.472688,18.564 0 0 0 -4.0663,-0.47127 18.472688,18.564 0 0 0 -18.47304,18.56239 18.472688,18.564 0 0 0 4.93669,12.60833 18.472688,18.564 0 0 0 -6.20271,-1.10355 18.472688,18.564 0 0 0 -18.47304,18.56434 18.472688,18.564 0 0 0 18.47304,18.56437 18.472688,18.564 0 0 0 18.47305,-18.56437 18.472688,18.564 0 0 0 -4.93285,-12.60444 18.472688,18.564 0 0 0 6.19886,1.09969 18.472688,18.564 0 0 0 18.47303,-18.56437 18.472688,18.564 0 0 0 -8.0805,-15.34487 18.472688,18.564 0 0 0 4.0663,0.4713 18.472688,18.564 0 0 0 18.47305,-18.56435 18.472688,18.564 0 0 0 -15.14012,-18.24435 18.472688,18.564 0 0 0 14.30832,-18.06397 18.472688,18.564 0 0 0 -18.4711,-18.56242 18.472688,18.564 0 0 0 -5.56971,0.8844 18.472688,18.564 0 0 0 7.98979,-15.25954 18.472688,18.564 0 0 0 -18.47302,-18.56434 18.472688,18.564 0 0 0 -5.45005,0.84752 18.472688,18.564 0 0 0 5.06406,-12.7363 18.472688,18.564 0 0 0 -18.47302,-18.56436 18.472688,18.564 0 0 0 -6.44397,1.17723 18.472688,18.564 0 0 0 4.91162,-12.57146 18.472688,18.564 0 0 0 -15.85222,-18.352951 18.472688,18.564 0 0 0 13.83161,-17.955354 18.472688,18.564 0 0 0 -8.35842,-15.515543 18.472688,18.564 0 0 0 16.78437,-18.471262 18.472688,18.564 0 0 0 -3.59348,-10.965603 18.472688,18.564 0 0 0 4.85951,0.676867 18.472688,18.564 0 0 0 18.47303,-18.564356 18.472688,18.564 0 0 0 -2.54748,-9.3597477 18.472688,18.564 0 0 0 8.88915,2.2924214 18.472688,18.564 0 0 0 18.47304,-18.5643477 18.472688,18.564 0 0 0 -3.61279,-10.990824 18.472688,18.564 0 0 0 7.52662,1.627194 18.472688,18.564 0 0 0 18.47305,-18.564348 18.472688,18.564 0 0 0 -6.29344,-13.938776 18.472688,18.564 0 0 0 3.2596,0.308372 18.472688,18.564 0 0 0 18.47306,-18.564349 18.472688,18.564 0 0 0 -18.47306,-18.564341 z"
       style="display:inline;opacity:1;fill:#f7faed;fill-opacity:1;stroke:#cdde87;stroke-width:1;stroke-miterlimit:4;stroke-dasharray:none;stroke-opacity:1">
      <title
         id="title3606">Growing peptide chain</title>
    </path>
    <path
       inkscape:connector-curvature="0"
       id="rect1587"
       d="m 36.494285,339.75615 c -3.88401,-0.11483 -7.334401,1.32196 -9.234134,4.24404 -3.377306,5.19483 -0.537928,13.05564 6.366298,17.62575 l 14.491209,9.59219 c 4.656713,3.08241 9.931941,3.84788 13.913136,2.43165 -1.275686,4.77782 1.195179,10.87175 6.505185,15.00659 l 13.719823,10.68303 c 4.57151,3.55979 9.99455,4.68879 14.132725,3.3691 -2.182249,4.54676 -0.692551,11.1212 4.054023,16.12394 l 11.9856,12.62985 c 4.475,4.71652 10.45819,6.57323 14.98107,5.09438 -2.41765,4.2194 -1.73218,10.63286 2.12459,16.02737 l 10.13878,14.18087 c 4.37648,6.12138 11.27157,8.74272 16.24421,6.48255 -3.52937,4.19572 -2.94214,11.608 1.67603,17.5462 l 10.69807,13.75668 c 4.60974,5.92731 11.58876,8.26667 16.46568,5.82726 -0.52043,0.58991 -0.96506,1.24675 -1.31382,1.97525 -2.67816,5.59435 1.1514,13.01503 8.58662,16.63908 l 15.60418,7.60555 c 7.43523,3.62406 15.57616,2.03779 18.25431,-3.55659 2.67818,-5.59434 -1.1514,-13.01502 -8.5866,-16.63906 l -15.6042,-7.60555 c -5.08957,-2.48076 -10.50833,-2.51832 -14.281,-0.50186 3.57164,-4.18752 2.99619,-11.63225 -1.6385,-17.59167 l -10.69808,-13.75478 c -4.51059,-5.79986 -11.29158,-8.17385 -16.15035,-5.98825 3.42564,-4.10619 3.04316,-11.33846 -1.2312,-17.31703 l -10.13878,-14.18092 c -4.10376,-5.73993 -10.42242,-8.40003 -15.29451,-6.84803 2.57625,-4.55329 1.15425,-11.45929 -3.78187,-16.66179 l -11.98374,-12.62987 c -4.40137,-4.63891 -10.26254,-6.51257 -14.75771,-5.16631 2.38374,-4.94097 0.008,-11.96738 -5.906467,-16.57279 L 82.115038,370.89996 c -4.654188,-3.62416 -10.189441,-4.72364 -14.354199,-3.28955 1.341368,-4.98524 -1.573746,-11.25633 -7.451121,-15.14674 l -14.489334,-9.59029 c -3.020598,-1.99942 -6.305201,-3.02789 -9.326099,-3.11723 z m 731.641855,32.24601 c -4.28222,-0.10334 -9.12881,2.40213 -12.57494,6.95411 l -10.51977,13.89681 c -3.77906,4.99173 -4.75949,10.97301 -2.91852,15.23197 -4.8059,-1.26621 -10.87567,1.40218 -14.86283,6.96545 l -10.15565,14.16952 c -3.51047,4.89812 -4.39716,10.63844 -2.72146,14.81532 -4.50287,-1.85512 -10.7495,-0.22539 -15.50096,4.46184 l -12.391,12.22269 c -4.4412,4.38114 -6.26726,10.14274 -5.06938,14.62024 -3.75541,-2.42384 -9.49486,-2.6074 -14.90602,-0.0455 l -15.68862,7.42757 c -5.95645,2.8201 -9.63804,8.07698 -9.5701,12.94233 -2.18366,-4.54174 -8.21353,-7.43767 -15.04112,-6.78745 l -17.25208,1.64195 c -6.01452,0.57279 -10.91041,3.73469 -12.88461,7.81009 -1.01696,-5.10027 -6.48733,-9.37877 -13.53027,-10.12053 l -17.23707,-1.81619 c -6.71898,-0.70766 -12.7057,2.02939 -15.01295,6.43139 -0.73024,-5.4522 -6.57921,-9.9709 -14.04076,-10.48227 l -17.28962,-1.18362 c -7.90691,-0.54189 -14.62735,3.61942 -15.52535,9.43498 -0.9897,-5.48068 -7.1879,-9.68118 -14.75207,-9.68118 h -17.32905 c -8.25723,0 -14.9041,5.00042 -14.9041,11.21328 0,6.21285 6.64687,11.21518 14.9041,11.21518 h 17.32905 c 7.64397,0 13.89753,-4.28989 14.78586,-9.85541 0.97258,5.25807 6.7198,9.5526 13.98445,10.05047 l 17.28959,1.18553 c 6.59723,0.45213 12.37005,-2.37247 14.62635,-6.69654 0.71477,5.34281 6.33021,9.90874 13.62787,10.67734 l 17.23516,1.81426 c 6.77937,0.71405 12.80836,-2.08093 15.06929,-6.55259 1.12854,5.71802 7.91312,9.63147 15.74305,8.88578 l 17.25207,-1.64192 c 7.88523,-0.75095 13.84912,-5.9458 13.81369,-11.82689 2.67549,5.52675 10.73007,7.16103 18.15108,3.64748 l 15.68864,-7.42751 c 6.82648,-3.23205 10.66269,-9.66121 9.28855,-15.03692 4.53347,2.80358 11.5608,1.34679 16.78287,-3.80465 l 12.39286,-12.22459 c 4.75953,-4.69518 6.51271,-10.97322 4.76161,-15.5596 4.94254,2.01144 11.64356,-0.62676 15.93263,-6.61131 l 10.15567,-14.16952 c 3.58537,-5.00268 4.43823,-10.88594 2.61447,-15.08237 4.73808,1.251 10.75385,-1.27302 14.81966,-6.64348 l 10.51975,-13.89494 c 5.01256,-6.62101 5.10877,-14.98864 0.21586,-18.76013 -1.52904,-1.17861 -3.35941,-1.76351 -5.30588,-1.8105 z M 442.35513,484.21265 c -0.50365,-0.006 -1.01462,0.009 -1.52964,0.0418 l -17.29335,1.11545 c -7.58341,0.48945 -13.52454,5.12142 -14.11959,10.68872 -2.81513,-4.32189 -9.41467,-6.26552 -16.20104,-4.38419 l -16.70964,4.63227 c -7.9622,2.20733 -13.05938,8.80742 -11.42818,14.79826 1.63121,5.99087 9.35556,9.03645 17.31776,6.82911 l 16.70964,-4.63227 c 6.53894,-1.81275 11.13594,-6.58849 11.6703,-11.55605 2.48786,3.91125 7.96514,6.41017 14.17965,6.00906 l 17.29335,-1.11734 c 8.24041,-0.53185 14.55767,-5.95055 14.16466,-12.15073 -0.36848,-5.81267 -6.49901,-10.18813 -14.05392,-10.27395 z m -89.20323,21.02703 c -1.87045,0.007 -3.83633,0.31085 -5.80324,0.94312 l -16.51072,5.30837 c -7.86763,2.52904 -12.69841,9.32928 -10.82944,15.249 1.86895,5.91971 9.70911,8.64987 17.57674,6.12082 l 16.51072,-5.30837 c 7.86764,-2.52905 12.69656,-9.32929 10.82757,-15.24901 -1.40172,-4.43979 -6.16029,-7.08567 -11.77163,-7.06393 z m -46.30768,14.84562 c -0.98316,0.006 -1.99087,0.0863 -3.0105,0.24808 l -17.11881,2.71764 c -8.15685,1.29515 -13.95245,7.27847 -12.99533,13.41579 0.95711,6.13733 8.29377,10.03512 16.45064,8.73997 l 17.11881,-2.71763 c 8.15686,-1.29515 13.95436,-7.27846 12.99724,-13.4158 -0.8375,-5.37017 -6.56012,-9.02565 -13.44205,-8.98805 z m -67.13516,2.2347 c -6.88098,0.12206 -12.51693,3.91047 -13.23184,9.29864 -0.81703,6.15791 5.11333,12.00528 13.29752,13.11089 l 17.17702,2.31992 c 8.18417,1.10562 15.42899,-2.96083 16.24606,-9.11872 0.81703,-6.15792 -5.11335,-12.00527 -13.29754,-13.11088 l -17.177,-2.32184 c -1.02302,-0.13819 -2.03124,-0.19543 -3.01422,-0.17801 z"
       style="display:inline;opacity:1;fill:#f7faed;fill-opacity:1;stroke:#cdde87;stroke-width:1;stroke-miterlimit:4;stroke-dasharray:none;stroke-opacity:1">
      <title
         id="title3608">mRNA</title>
    </path>
    <path
       d="m 374.03111,207.8003 c 16.24434,-21.7706 45.94811,1.73468 55.3596,9.97374 8.96963,7.85223 19.31082,36.19393 12.86658,46.25823 -5.58177,8.71735 -17.76886,2.60318 -29.84529,3.83035 -11.90961,1.21022 -23.50121,9.60853 -31.08274,2.85614 -9.62524,-8.57259 -16.8386,-50.13238 -7.29815,-62.91846 z m -39.91322,-34.30655 c 35.96658,-48.20225 101.73363,3.84076 122.5716,22.08283 19.85963,17.38562 42.75605,80.13692 28.48787,102.42027 -12.35859,19.30107 -39.342,5.7637 -66.08041,8.48078 -26.36904,2.67955 -52.03398,21.27423 -68.82023,6.32377 C 328.96549,293.82084 312.9944,201.80339 334.11789,173.49375 Z m -38.5369,-33.12356 c 55.00873,-73.722475 155.59551,5.87421 187.46594,33.77437 30.37412,26.59026 65.39282,122.56463 43.5705,156.64568 -18.90173,29.51984 -60.17124,8.81524 -101.06604,12.97085 -40.32988,4.0982 -79.58286,32.53766 -105.25644,9.67183 C 287.7007,324.40328 263.27388,183.66808 295.58099,140.37019 Z M 259.79673,109.6126 c 72.69073,-97.419825 205.61011,7.76241 247.72496,44.6308 40.13758,35.13743 86.41269,161.96178 57.57581,206.99785 C 540.12,400.24994 485.58481,372.89006 431.5448,378.38144 378.25128,383.79697 326.38083,421.378 292.45474,391.16218 249.3834,352.80126 217.10482,166.82816 259.79673,109.6126 Z M 224.01247,78.855011 c 90.37272,-121.117176 255.62471,9.650604 307.98399,55.487229 49.90103,43.6846 107.43255,201.35893 71.58111,257.35002 -31.05328,48.49754 -98.85414,14.48238 -166.03936,21.30953 -66.25716,6.73286 -130.74508,53.45546 -172.92368,15.88966 C 211.06609,381.19924 170.93576,149.98824 224.01247,78.855011 Z m -31.65531,-27.20864 c 106.01449,-142.080214 299.8684,11.320936 361.29006,65.090989 58.53793,51.24556 126.02704,236.21027 83.97041,301.89233 -36.428,56.89152 -115.96388,16.989 -194.77756,24.9978 -77.72499,7.89818 -153.37452,62.70756 -202.85342,18.63985 C 177.17001,406.32053 130.0939,135.09138 192.35716,51.646371 Z M 162.07817,25.620715 C 283.05435,-136.5111 504.26662,38.539361 574.35664,99.897917 641.15595,158.37569 718.16972,369.44424 670.17769,444.39593 628.60865,509.31648 537.84797,463.78256 447.91142,472.92164 359.2172,481.93447 272.89134,544.47903 216.42955,494.1921 144.74767,430.34959 91.027768,120.84221 162.07817,25.620715 Z"
       style="display:none;fill:none;fill-opacity:0.278431;stroke:#cd3487;stroke-width:1;stroke-linecap:butt;stroke-linejoin:miter;stroke-miterlimit:4;stroke-dasharray:none;stroke-opacity:1"
       id="path894">
      <title
         id="title892">Ribosome large subunit</title>
    </path>
    <path
       d="m 560.9375,354.6875 -53.90625,9.375 0.78125,19.53125 m 67.28157,-23.57723 c -3.78474,18.45108 -42.84134,5.75615 -54.78777,21.28496 -13.22097,17.18555 -7.22125,64.64586 -7.22125,64.64586 0,0 2.00529,1.45045 -8.29918,1.44799 -15.56708,-0.1659 3.62903,-36.31552 -5.92382,-59.5271 -18.95932,-46.06748 -96.70848,-26.88343 -96.70848,-26.88343 -8.27017,-27.29422 -0.49304,-11.49692 94.76408,-8.69916 47.51228,1.39547 82.83633,-31.73489 78.17642,7.73088 z m 11.47409,-1.73277 c -10.76734,28.74213 -54.36243,16.28556 -64.66,39.31211 -8.64951,19.34131 11.59672,62.49494 11.59672,62.49494 -30.58121,-8.10346 -30.39285,-3.76663 -42.38311,-3.76949 -18.11383,-0.19305 12.34597,-38.4503 -2.34764,-65.62937 -25.73759,-47.60733 -111.62073,-14.00935 -111.62073,-14.00935 -17.8047,-59.03133 5.78973,-36.10431 116.63071,-32.84884 55.2852,1.62376 95.47913,-40.5629 92.78405,14.45 z m 14.0625,-0.78125 c -3.73609,51.39838 -51.28341,20.01181 -63.0975,42.43711 -11.4093,21.65694 30.78202,77.10985 0.65922,73.43244 -30.58121,-8.10346 -46.7991,-2.98538 -58.78936,-2.98824 -18.11383,-0.19305 11.56472,-50.16905 -3.12889,-77.34812 -25.73759,-47.60733 -112.52046,20.89459 -117.87073,-18.69685 -3.7422,-63.71883 24.53973,-44.69806 135.38071,-41.44259 55.2852,1.62376 109.54163,-51.5004 106.84655,24.60625 z"
       style="display:none;fill:none;stroke:#de00f4;stroke-width:1px;stroke-linecap:butt;stroke-linejoin:miter;stroke-opacity:1"
       id="path861" />
    <path
       d="m 637.50096,588.32426 -390.01359,5.52427 m -20.39424,-19.9888 c 54.34633,17.49621 142.0239,-3.19232 229.49178,-4.05147 78.2425,-0.76855 148.73378,9.262 187.20287,-7.41237 28.36401,-12.29433 38.42685,39.44541 -4.64913,50.55367 -46.49966,11.99115 -122.66131,-5.05178 -184.43988,-5.71492 -74.39464,-0.79857 -168.80994,17.05821 -223.21813,2.10172 -29.38079,-8.07661 -26.98353,-42.75117 -4.38751,-35.47663 z m -22.73177,-30.5952 c 60.97638,45.36721 159.35032,-8.27762 257.48898,-10.50539 87.78781,-1.99279 166.87878,24.01614 210.04097,-19.22007 31.82432,-31.8789 43.11479,102.28095 -5.21631,131.08436 -52.17245,31.09274 -137.62557,-13.0991 -206.94091,-14.81863 -83.47052,-2.07069 -189.40416,44.23151 -250.44995,5.44971 -32.96515,-20.94245 -30.27545,-110.85269 -4.92278,-91.98998 z"
       style="display:none;fill:none;stroke:#f40dd8;stroke-width:1px;stroke-linecap:butt;stroke-linejoin:miter;stroke-opacity:1"
       id="path906" />
    <path
       sodipodi:nodetypes="ccc"
       id="path909"
       d="M 561.71875,-75.78125 C 555.91525,-16.323834 471.02423,18.930145 473.41964,78.256353 468.17668,180.25762 588.38309,197.01234 495.3125,310.15625"
       style="display:none;fill:none;stroke:#ed00eb;stroke-width:1px;stroke-linecap:butt;stroke-linejoin:miter;stroke-opacity:1" />
    <path
       sodipodi:nodetypes="cscc"
       id="path911"
       d="m 37.5,350 c 50.153393,36.46984 83.24527,59.243 102.92801,96.79974 90.59759,172.86969 198.61656,47.89498 326.95817,44.73788 C 654.00438,505.94997 665.6544,522.1296 765.625,385.9375"
       style="display:none;fill:none;stroke:#f500e4;stroke-width:1px;stroke-linecap:butt;stroke-linejoin:miter;stroke-opacity:1" />
  </g>
</svg>
