<?xml version="1.0" encoding="UTF-8" standalone="no"?>
<svg
   xmlns:dc="http://purl.org/dc/elements/1.1/"
   xmlns:cc="http://creativecommons.org/ns#"
   xmlns:rdf="http://www.w3.org/1999/02/22-rdf-syntax-ns#"
   xmlns:svg="http://www.w3.org/2000/svg"
   xmlns="http://www.w3.org/2000/svg"
   xmlns:sodipodi="http://sodipodi.sourceforge.net/DTD/sodipodi-0.dtd"
   xmlns:inkscape="http://www.inkscape.org/namespaces/inkscape"
   id="SVGRoot"
   version="1.1"
   viewBox="0 0 800 800"
   inkscape:version="1.0 (1.0+r73+1)"
   sodipodi:docname="drawing.svg">
  <defs
     id="defs833" />
  <sodipodi:namedview
     inkscape:snap-global="false"
     inkscape:snap-nodes="false"
     inkscape:object-nodes="false"
     id="base"
     pagecolor="#ffffff"
     bordercolor="#666666"
     borderopacity="1.0"
     inkscape:pageopacity="0.0"
     inkscape:pageshadow="2"
     inkscape:zoom="0.49497475"
     inkscape:cx="193.19588"
     inkscape:cy="434.10591"
     inkscape:document-units="px"
     inkscape:current-layer="layer1"
     inkscape:document-rotation="0"
     showgrid="false"
     inkscape:window-width="1366"
     inkscape:window-height="713"
     inkscape:window-x="0"
     inkscape:window-y="27"
     inkscape:window-maximized="1" />
  <metadata
     id="metadata836">
    <rdf:RDF>
      <cc:Work
         rdf:about="">
        <dc:format>image/svg+xml</dc:format>
        <dc:type
           rdf:resource="http://purl.org/dc/dcmitype/StillImage" />
        <dc:title />
      </cc:Work>
    </rdf:RDF>
  </metadata>
  <g
     inkscape:label="Layer 1"
     inkscape:groupmode="layer"
     id="layer1">
    <path
       sodipodi:nodetypes="sssssssss"
       id="path884"
       d="m 241.10073,39.033419 c 37.6845,-12.942399 121.01032,-5.195147 158.23183,9.024087 67.37017,25.73652 118.23311,67.475414 164.12802,123.106024 56.82152,68.87509 68.50021,161.70724 86.33693,249.19618 5.28586,25.9271 21.55021,71.13503 -3.61938,79.29877 -102.99419,33.40608 -332.24236,47.82288 -451.57771,-16.36837 -50.1128,-26.95599 -31.21182,-110.07666 -36.7192,-166.71223 -6.58383,-67.70533 -23.10185,-141.92605 4.67658,-204.02047 14.64455,-32.735648 44.62546,-61.875346 78.54293,-73.523991 z"
       style="fill:#cdde87;fill-opacity:0.394764;stroke:#89a02c;stroke-width:1;stroke-linecap:butt;stroke-linejoin:miter;stroke-miterlimit:4;stroke-dasharray:none;stroke-opacity:1" />
    <path
       inkscape:label="small ribosomal subunit"
       sodipodi:nodetypes="ssssssss"
       id="path886"
       d="m 197.79396,484.78146 c -40.71048,-26.28279 -46.08306,129.71722 -20.24411,176.05352 29.13855,52.25337 102.29939,53.27637 156.94369,53.53542 45.90991,0.21765 86.38039,-40.23734 132.18682,-43.7265 49.58189,-3.77674 99.87495,41.59582 147.40619,25.2035 35.33869,-12.18743 76.20141,-43.39939 81.6734,-84.70172 5.08866,-38.40896 -18.96844,-119.47364 -52.20634,-110.4622 -201.51755,54.63532 -396.23946,16.06834 -445.75965,-15.90202 z"
       style="fill:#cdde87;fill-opacity:0.278431;stroke:#89a02c;stroke-width:1;stroke-linecap:butt;stroke-linejoin:miter;stroke-miterlimit:4;stroke-dasharray:none;stroke-opacity:1">
      <title
         id="title1641">small ribosomal subunit</title>
    </path>
    <path
       sodipodi:nodetypes="sssssssss"
       id="path888"
       d="m 332.94173,439.10315 c -12.65198,-16.13457 -17.04712,-46.91507 -2.59185,-61.45611 40.5783,-40.81906 65.31762,10.23472 172.55729,6.25507 23.13185,-0.85842 37.51121,58.82122 -5.07703,69.25747 -20.64119,5.05813 -49.45286,-12.45213 -63.66785,3.34589 -15.44439,17.16432 26.65414,69.05249 3.66181,71.17282 -19.8656,1.83199 -39.91774,0.0806 -58.60648,-1.6513 -23.20823,-2.15075 19.43521,-52.38696 6.29705,-71.63887 -10.28721,-15.07428 -41.31159,-0.92382 -52.57294,-15.28497 z"
       style="fill:#cdde87;fill-opacity:0.278431;stroke:#89a02c;stroke-width:1px;stroke-linecap:butt;stroke-linejoin:miter;stroke-opacity:1" />
    <path
       d="m 496.77445,48.670258 a 14.674966,14.674966 0 0 1 -14.67496,14.674965 14.674966,14.674966 0 0 1 -14.67497,-14.674965 14.674966,14.674966 0 0 1 14.67497,-14.674966 14.674966,14.674966 0 0 1 14.67496,14.674966 m -14,26 a 14.674966,14.674966 0 0 1 -14.67496,14.674965 14.674966,14.674966 0 0 1 -14.67497,-14.674965 14.674966,14.674966 0 0 1 14.67497,-14.674966 14.674966,14.674966 0 0 1 14.67496,14.674966 m -22,20 a 14.674966,14.674966 0 0 1 -14.67496,14.674962 14.674966,14.674966 0 0 1 -14.67497,-14.674962 14.674966,14.674966 0 0 1 14.67497,-14.674966 14.674966,14.674966 0 0 1 14.67496,14.674966 m -22,20.000002 a 14.674966,14.674966 0 0 1 -14.67496,14.67496 14.674966,14.674966 0 0 1 -14.67497,-14.67496 14.674966,14.674966 0 0 1 14.67497,-14.674968 14.674966,14.674966 0 0 1 14.67496,14.674968 m -14,26 a 14.674966,14.674966 0 0 1 -14.67496,14.67496 14.674966,14.674966 0 0 1 -14.67497,-14.67496 14.674966,14.674966 0 0 1 14.67497,-14.67497 14.674966,14.674966 0 0 1 14.67496,14.67497 m 2,30 a 14.674966,14.674966 0 0 1 -14.67496,14.67496 14.674966,14.674966 0 0 1 -14.67497,-14.67496 14.674966,14.674966 0 0 1 14.67497,-14.67497 14.674966,14.674966 0 0 1 14.67496,14.67497 m 14,26 a 14.674966,14.674966 0 0 1 -14.67496,14.67496 14.674966,14.674966 0 0 1 -14.67497,-14.67496 14.674966,14.674966 0 0 1 14.67497,-14.67497 14.674966,14.674966 0 0 1 14.67496,14.67497 m 18,24 a 14.674966,14.674966 0 0 1 -14.67496,14.67496 14.674966,14.674966 0 0 1 -14.67497,-14.67496 14.674966,14.674966 0 0 1 14.67497,-14.67497 14.674966,14.674966 0 0 1 14.67496,14.67497 m 12,28 a 14.674966,14.674966 0 0 1 -14.67496,14.67496 14.674966,14.674966 0 0 1 -14.67497,-14.67496 14.674966,14.674966 0 0 1 14.67497,-14.67497 14.674966,14.674966 0 0 1 14.67496,14.67497 m 6,28 a 14.674966,14.674966 0 0 1 -14.67496,14.67496 14.674966,14.674966 0 0 1 -14.67497,-14.67496 14.674966,14.674966 0 0 1 14.67497,-14.67497 14.674966,14.674966 0 0 1 14.67496,14.67497 m 2,30 a 14.674966,14.674966 0 0 1 -14.67496,14.67496 14.674966,14.674966 0 0 1 -14.67497,-14.67496 14.674966,14.674966 0 0 1 14.67497,-14.67497 14.674966,14.674966 0 0 1 14.67496,14.67497 m 0,30 a 14.674966,14.674966 0 0 1 -14.67496,14.67496 14.674966,14.674966 0 0 1 -14.67497,-14.67496 14.674966,14.674966 0 0 1 14.67497,-14.67497 14.674966,14.674966 0 0 1 14.67496,14.67497 m -8,30 a 14.674966,14.674966 0 0 1 -14.67496,14.67496 14.674966,14.674966 0 0 1 -14.67497,-14.67496 14.674966,14.674966 0 0 1 14.67497,-14.67497 14.674966,14.674966 0 0 1 14.67496,14.67497 z"
       style="fill:#e5eec1;fill-opacity:1;stroke:#89a02c;stroke-width:1;stroke-miterlimit:4;stroke-dasharray:none;stroke-opacity:1"
       id="circle916" />
    <path
       d="m 726.25529,455.50426 26.65192,-5.55134 c 9.13472,-0.61317 12.64287,18.30584 4.25255,20.41644 l -26.65193,5.55133 c -10.03975,2.21047 -14.1954,-17.29226 -4.25254,-20.41643 z m -691.832655,7.6865 26.772748,-4.93582 c 9.14642,-0.40255 12.217764,18.59226 3.781036,20.509 l -26.772748,4.93582 c -10.088005,1.97857 -13.793234,-17.61472 -3.781036,-20.509 z m 42.905383,-7.4975 27.142082,-2.10945 c 9.13837,0.55599 10.20682,19.76782 1.61592,20.79192 l -27.142078,2.10945 c -10.239586,0.91294 -11.875863,-18.96037 -1.615924,-20.79192 z m 607.709592,17.00229 24.99453,-10.78962 c 8.82558,-2.4348 16.06096,15.39453 8.26529,19.14681 l -24.99454,10.78962 c -9.39146,4.18129 -17.37836,-14.08988 -8.26528,-19.14681 z m -564.48132,-20.59668 27.19885,1.1684 c 9.00529,1.65042 7.75667,20.85137 -0.89504,20.83541 l -27.19884,-1.1684 c -10.27508,-0.32451 -9.51067,-20.25041 0.89503,-20.83541 z m 526.8147,35.4922 25.67211,-9.06007 c 8.97107,-1.8273 14.97379,16.45392 6.94038,19.66587 l -25.67212,9.06007 c -9.65472,3.53113 -16.37708,-15.24214 -6.94037,-19.66587 z m -39.13717,9.96311 26.64377,-5.59032 c 9.13381,-0.62654 12.66965,18.28731 4.28242,20.41019 l -26.64378,5.59033 c -10.03649,2.22515 -14.22069,-17.27147 -4.28241,-20.4102 z m -39.78364,9.58533 26.78977,-4.84258 c 9.14777,-0.37071 12.15296,18.63467 3.70961,20.52203 l -26.78977,4.84259 c -10.09483,1.94343 -13.73182,-17.66264 -3.70961,-20.52204 z m -41.29695,4.81666 27.0974,-2.62175 c 9.14725,0.38329 10.57838,19.5715 2.00836,20.75769 l -27.09739,2.62175 c -10.22052,1.10618 -12.23188,-18.73268 -2.00837,-20.75769 z m -41.95729,3.93476 27.10933,-2.4953 c 9.14536,0.42596 10.48696,19.62064 1.9115,20.76684 l -27.10933,2.49529 c -10.22557,1.05849 -12.14435,-18.78954 -1.9115,-20.76683 z m -41.09921,0.75891 h 27.22393 c 9.06782,1.26241 8.64442,20.49926 0,20.85462 h -27.22393 c -10.27954,0.11678 -10.37101,-19.82357 0,-20.85462 z m -278.20389,-58.6144 24.5555,11.75456 c 7.63393,5.05392 -1.05393,22.2224 -9.00448,18.8105 l -24.55549,-11.75457 c -9.32238,-4.3331 -0.79518,-22.35844 9.00447,-18.81049 z m 37.72944,18.12398 24.75355,11.33154 c 7.71952,4.9222 -0.6725,22.23721 -8.68041,18.96222 l -24.75356,-11.33155 c -9.39535,-4.17252 -1.17866,-22.3415 8.68042,-18.96221 z m 37.74893,15.36988 26.22692,7.30007 c 8.39722,3.6477 2.83099,22.06651 -5.59214,20.09087 l -26.22692,-7.30007 c -9.93439,-2.64395 -4.67553,-21.87856 5.59214,-20.09087 z m 38.90521,10.86256 26.74397,5.08946 c 8.67194,2.93537 4.65971,21.75391 -3.89874,20.48695 l -26.74396,-5.08946 c -10.12014,-1.80702 -6.48219,-21.41292 3.89873,-20.48695 z m 39.2072,8.7256 27.01577,3.36011 c 8.84268,2.37195 6.04821,21.40946 -2.57398,20.69516 l -27.01577,-3.36011 c -10.21536,-1.15287 -7.84499,-20.95204 2.57398,-20.69516 z m 40.61311,5.53238 h 27.22393 c 9.06782,1.26241 8.64442,20.49926 0,20.85462 h -27.22393 c -10.27954,0.11678 -10.37101,-19.82357 0,-20.85462 z m 42,0 h 27.22393 c 9.06782,1.26241 8.64442,20.49926 0,20.85462 h -27.22393 c -10.27954,0.11678 -10.37101,-19.82357 0,-20.85462 z"
       style="fill:#e5eec1;fill-opacity:1;stroke:#89a02c;stroke-width:1;stroke-miterlimit:4;stroke-dasharray:none;stroke-opacity:1"
       id="path967" />
    <path
       inkscape:label="small"
       id="GO0015935"
       d="m 190.91439,515.5603 60.69279,13.43061 99.29976,26.53922 141.8406,-2.8452 102.05078,-15.73041 63.68609,-18.5771 20.26515,41.61708 -2.62033,53.09405 -31.45194,49.31327 -51.32289,20.89216 -75.61157,-18.02194 -47.45754,-9.27717 -51.78166,2.12655 -31.96943,28.11585 -77.53954,11.62719 -73.0184,-8.30662 -52.47742,-33.78462 -11.01619,-77.47776 11.98739,-41.11956 86.95923,12.83901 69.66426,26.74464 111.85333,-6.01833 140.6148,-16.75999 56.10543,-17.66645 11.42857,41.44941 -15.46133,54.36558 -50.70322,31.24277 -87.80386,-18.97426 h -85.33177 l -41.40861,18.3136 -61.89091,21.08956 -73.25753,-7.58022 -48.80232,-24.89537 -8.32136,-52.92585 6.31636,-50.00296 75.05685,19.31719 47.29544,16.04841 60.66712,11.10299 112.95388,-18.07713 106.76278,-11.12828 39.65245,-4.44719 -5.61445,58.16781 -47.62739,24.73772 -135.3152,-19.01201 -71.06354,14.76091 -54.25568,21.13622 -77.63933,0.008 -40.6379,-23.58076 -5.93428,-38.46278 17.76494,-27.95306 115.75073,32.92734 74.43826,-0.66145 80.44739,-12.21305 113.23015,-10.60869 16.18286,-2.42109 -2.43391,36.24337 -36.98155,14.16129 -95.9633,-17.22883 -113.58809,13.93136 -53.8249,24.27665 -69.90526,-11.19908 -36.55814,-19.96661 12.34584,-24.76222 75.37598,22.85889 24.61587,4.13731"
       style="display:none;fill:none;stroke:#000000;stroke-width:1px;stroke-linecap:butt;stroke-linejoin:miter;stroke-opacity:1" />
    <path
       inkscape:label="large"
       d="m 460.95223,131.16686 -16.97536,24.47192 35.09522,73.82886 15.0701,71.54986 2.5817,58.06087 44.0244,5.00793 13.76404,65.51871 -19.10471,41.56682 -40.548,9.34326 7.90204,17.46072 124.89432,-22.23258 -7.34749,-91.33601 -33.48755,-87.73202 -47.86953,-81.09389 -52.13832,-64.64298 -21.81955,8.76757 35.43606,73.57347 16.41845,78.36396 2.21174,34.91232 45.32506,4.84153 10.12721,93.33692 -8.60587,17.21462 35.79076,-4.50243 -0.26455,-56.20911 -25.42314,-77.96914 -59.22765,-99.29021 27.67404,99.09001 M 272.44563,46.283198 l -86.87042,82.610932 -6.70349,118.68835 1.84749,121.23248 15.04521,81.69015 121.3072,38.84229 26.05595,-11.34487 -42.32247,-44.71474 -3.66979,-73.53032 46.57148,-28.69912 79.47009,17.21509 -7.15507,-85.99033 -30,-68.24947 -16.15775,-58.9124 26.16346,-46.658607 -97.10322,-36.917049 -97.15319,84.979726 -0.8807,83.34229 -2.18087,86.17453 8.43127,84.12702 1.2687,40.6298 63.02625,23.35052 7.74802,-60.87594 -8.46657,-60.41412 70.39807,-24.65184 52.33961,4.9374 -0.53035,-41.13443 -49.94467,-130.8592 18.27017,-40.98151 -54.96482,-24.383632 -80.16405,72.504642 -4.56996,129.45997 7.53806,101.98661 -0.69345,32.5534 28.34115,4.1405 -3.19981,-55.224 -7.73865,-54.55772 92.70416,-19.34404 27.98824,-2.93571 -27.41163,-93.97011 -18.75423,-46.21199 6.26858,-32.90558 -17.83984,-9.04294 -58.22274,61.48949 -4.501,113.69873 84.18819,-17.33433 -18.20142,-82.84175 -12.98833,-21.49392 -27.06111,27.96556 1.00939,61.03302 31.67367,-8.27292 -12.72308,-33.00415"
       style="display:none;fill:none;stroke:#000000;stroke-width:1px;stroke-linecap:butt;stroke-linejoin:miter;stroke-opacity:1"
       id="GO0015934" />
    <path
       inkscape:label="unlocalized"
       d="m 708.06431,509.52889 67.83909,-18.15508 5.6257,137.51212 -11.39064,68.14976 -22.22421,4.31615 6.46877,-49.93923 1.42857,-102.07781 -3.86606,-22.39668 -35.19165,4.47815 -0.0649,29.74095 17.32264,1.19882 -14.05622,131.92801 -29.80878,7.14286 9.37229,-45.42027 M 33.037523,512.02157 141.72328,495.98563 l -2.73917,69.23052 0.54317,85.92695 35.29275,47.70917 -53.09478,-1.20832 -11.36384,-57.39109 0.33783,-111.7014 -83.393288,18.73884 1.187155,33.5634 51.868787,-15.78639 6.238011,66.66216 1.760341,63.64066 -26.585082,-2.64814 -4.974802,-56.35725 -2.843671,-35.30761 -19.739925,18.959 -4.045672,88.71128 M 538.24096,25.918339 506.0723,84.103829 569.91943,143.846 l 65.0735,92.59983 34.65289,158.45738 4.17881,48.25928 88.61756,-18.49609 6.60557,-33.21499 -70.12913,23.29573 -9.8053,-64.65533 -34.43028,-137.47698 -62.46905,-96.11561 -52.14015,-35.930809 27.6729,-48.612234 29.84968,14.70666 -16.39875,29.00419 39.17437,29.841353 60.16279,108.05952 39.52977,169.89968 39.34483,-19.75303 2.80639,-26.19559 -25.81787,12.70107 -22.74989,-100.06208 -25.09199,-88.2901 -60.35034,-76.451896 -15.68656,-19.17027 19.29373,-34.069541 19.31606,21.937801 -5.77235,14.919629 63.86117,79.575437 41.67288,166.9761 23.27227,-21.60187 -4.30001,-39.72791 L 733.77406,159.46668 712.51543,105.2907 676.14371,73.84262 663.86108,33.739951 652.53139,19.28785 l 35.26602,-1.07278 13.78279,40.094496 45.26689,54.484864 14.26104,60.00373 M 203.88005,29.990496 142.7454,111.64729 l -16.51184,77.15367 14.44419,85.48183 3.34399,96.23884 -7.93013,52.59753 -84.830537,19.33707 -28.886457,-0.61567 9.595272,-26.3801 43.691602,4.12598 47.88051,-21.88982 3.14968,-104.59791 -22.38866,-108.60386 17.2151,-79.87839 49.27442,-76.904625 -22.09569,-4.940163 -44.05848,65.733598 -22.997048,89.56619 12.038182,81.21813 15.931966,73.93289 -10.145223,50.46064 -31.307634,14.21692 -35.100795,-2.68014 -3.668039,-28.764 31.519971,2.78604 32.433145,-35.97883 -31.612963,-105.94883 1.899392,-74.44554 23.088423,-69.383851 32.560643,-62.033081 -33.093916,-2.762516 -19.2613,71.171961 -36.188202,71.943987 14.285714,69.19879 16.513258,72.56086 -2.655465,33.79255 -29.93927,6.30563 1.334054,-47.39855 -2.756587,-57.8377"
       style="display:none;fill:none;stroke:#000000;stroke-width:1px;stroke-linecap:butt;stroke-linejoin:miter;stroke-opacity:1"
       id="unlocalized" />
  </g>
</svg>
