<?xml version="1.0" encoding="UTF-8" standalone="no"?>
<svg
   xmlns:dc="http://purl.org/dc/elements/1.1/"
   xmlns:cc="http://creativecommons.org/ns#"
   xmlns:rdf="http://www.w3.org/1999/02/22-rdf-syntax-ns#"
   xmlns:svg="http://www.w3.org/2000/svg"
   xmlns="http://www.w3.org/2000/svg"
   xmlns:sodipodi="http://sodipodi.sourceforge.net/DTD/sodipodi-0.dtd"
   xmlns:inkscape="http://www.inkscape.org/namespaces/inkscape"
   id="SVGRoot"
   version="1.1"
   viewBox="0 0 800 800"
   preserveAspectRatio="xMidYMid meet"
   height="auto"
   width="100%"
   inkscape:version="1.0 (4035a4fb49, 2020-05-01)"
   sodipodi:docname="generic_cell.svg">
  <defs
     id="defs10">
    <inkscape:perspective
       sodipodi:type="inkscape:persp3d"
       inkscape:vp_x="0 : 400 : 1"
       inkscape:vp_y="0 : 1000 : 0"
       inkscape:vp_z="800 : 400 : 1"
       inkscape:persp3d-origin="400 : 266.66667 : 1"
       id="perspective882" />
  </defs>
  <sodipodi:namedview
     id="base"
     pagecolor="#ffffff"
     bordercolor="#666666"
     borderopacity="1.0"
     inkscape:pageopacity="0.0"
     inkscape:pageshadow="2"
     inkscape:zoom="3.959798"
     inkscape:cx="493.64889"
     inkscape:cy="339.42188"
     inkscape:document-units="px"
     inkscape:current-layer="layer1"
     inkscape:document-rotation="0"
     showgrid="false"
     inkscape:window-width="1366"
     inkscape:window-height="745"
     inkscape:window-x="-8"
     inkscape:window-y="-8"
     inkscape:window-maximized="1"
     inkscape:snap-nodes="false"
     showguides="true"
     inkscape:guide-bbox="true">
    <sodipodi:guide
       position="489.28571,715"
       orientation="1,0"
       id="guide1004" />
    <sodipodi:guide
       position="543.46207,164.61405"
       orientation="0,-1"
       id="guide1006" />
    <sodipodi:guide
       id="guide913"
       orientation="0,-1"
       position="545.71429,556.42857" />
  </sodipodi:namedview>
  <metadata
     id="metadata13">
    <rdf:RDF>
      <cc:Work
         rdf:about="">
        <dc:format>image/svg+xml</dc:format>
        <dc:type
           rdf:resource="http://purl.org/dc/dcmitype/StillImage" />
        <dc:title />
      </cc:Work>
    </rdf:RDF>
  </metadata>
  <g
     inkscape:label="Layer 1"
     inkscape:groupmode="layer"
     id="layer1">
    <path
       d="M 400 10.505859 A 389.49338 389.49338 0 0 0 10.505859 400 A 389.49338 389.49338 0 0 0 400 789.49414 A 389.49338 389.49338 0 0 0 789.49414 400 A 389.49338 389.49338 0 0 0 400 10.505859 z M 400 25.486328 A 374.51285 374.51288 0 0 1 774.51367 400 A 374.51285 374.51288 0 0 1 400 774.51367 A 374.51285 374.51288 0 0 1 25.486328 400 A 374.51285 374.51288 0 0 1 400 25.486328 z "
       style="opacity:0.99867504;fill:#f3f3f3;fill-opacity:0.3019608;stroke:#dddddd;stroke-width:1;stroke-miterlimit:4;stroke-dasharray:none;stroke-opacity:1"
       id="path1032" />
    <path
       sodipodi:nodetypes="cssssc"
       d="m 603.34471,306.35714 c -36.09575,62.51967 -116.03936,83.9405 -178.55903,47.84475 -62.51967,-36.09575 -83.9405,-116.03936 -47.84475,-178.55903 23.50759,-40.71634 65.61259,-64.00123 109.39046,-65.31973 23.44276,-0.70606 47.36524,4.88682 69.16857,17.47498 62.51967,36.09575 83.9405,116.03936 47.84475,178.55903"
       inkscape:label="nucleus"
       style="opacity:0.998675;fill:#f3f3f3;fill-opacity:0.27843139;stroke:none;stroke-width:1;stroke-miterlimit:4;stroke-dasharray:none;stroke-opacity:1"
       id="nucleus">
      <desc
         id="desc872">Nucleus</desc>
      <title
         id="title870">Nucleus</title>
    </path>
    <path
       inkscape:connector-curvature="0"
       d="m 627.12717,470.47129 c -6.97436,13.96997 -24.04112,24.86614 -36.47657,26.15929 -3.98453,0.41435 -12.65522,14.41992 10.03565,20.49648 20.50201,5.49039 46.15764,-25.89448 33.78706,-47.20475 -1.54961,-2.66941 -5.56301,-3.02272 -7.34614,0.54898 z m 93.4877,-21.13544 c -7.18918,3.45264 -14.6576,12.70831 -12.98711,20.68332 1.91403,9.13788 14.30697,17.62938 22.92558,14.70697 10.66841,-3.61746 18.53682,-22.21422 13.03619,-32.2476 -3.80585,-6.94201 -15.91969,-6.5309 -22.97466,-3.14269 z m -19.9855,30.52391 c -6.7746,-3.42995 -17.76835,-7.21205 -22.6819,-1.16575 -7.28199,8.96072 -2.58892,28.78502 7.38457,34.00511 9.95786,5.21194 28.41674,-2.50751 31.02729,-13.85332 1.88465,-8.19091 -8.493,-15.32204 -15.72996,-18.98604 z m -40.55812,21.5022 c -10.22671,-2.78126 -25.30726,4.98262 -28.22398,15.60105 -2.89948,10.55566 5.82972,25.6789 16.09308,28.04662 10.51749,2.4263 24.82734,-7.69397 27.18292,-18.66569 2.07505,-9.66511 -5.8747,-22.4861 -15.05202,-24.98198 z m 0.0446,-50.71346 c -6.44428,-0.85934 -14.83332,3.6603 -17.08501,10.0258 -3.63597,10.27887 0.7588,28.55357 11.07717,30.48806 10.42026,1.95359 21.71886,-13.65761 21.47934,-24.66502 -0.16461,-7.56285 -8.25116,-14.88604 -15.4715,-15.84884 z m 65.47582,-49.94609 c -7.8249,18.45845 -17.24217,33.16199 -44.78772,43.0066 -9.23029,3.29889 1.15248,15.86875 7.86817,14.78264 22.64737,-3.66278 41.54191,-22.57202 48.32346,-40.91773 5.92912,-16.03956 -8.40983,-23.9343 -11.40391,-16.87151 z"
       style="opacity:0.998675;fill:#f3f3f3;fill-opacity:0.278431;stroke:#dddddd;stroke-width:1;stroke-linecap:butt;stroke-linejoin:miter;stroke-miterlimit:4;stroke-dasharray:none;stroke-opacity:1"
       id="smooth_endoplasmic_reticulum"
       sodipodi:nodetypes="ssssssssssssssssssssssssssssss"
       inkscape:label="smooth_endoplasmic_reticulum">
      <desc
         id="desc978">Smooth endoplasmic reticulum membrane</desc>
      <title
         id="title2956">Smooth endoplasmic reticulum membrane</title>
    </path>
    <path
       id="rough_endoplasmic_reticulum"
       style="opacity:0.998675;fill:#f3f3f3;fill-opacity:0.278431;stroke:#dddddd;stroke-width:1;stroke-linecap:butt;stroke-linejoin:miter;stroke-miterlimit:4;stroke-dasharray:none;stroke-opacity:1"
       d="m 637.59144,176.22367 c -4.64541,-0.002 -7.69744,4.75027 -6.27381,13.5426 25.85044,159.65087 -77.95166,221.65535 -193.29505,188.49385 -30.01425,-8.62915 -41.10392,13.71987 12.92157,26.54242 l -0.74495,16.14027 c -11.71101,-2.43371 -21.46596,-7.14037 -33.84081,-10.03785 -24.42884,-5.71988 -19.85261,14.98671 4.71289,21.95797 35.34596,10.03054 61.48124,12.82155 107.10113,6.76825 l 4.59893,16.84669 c -27.79631,4.51008 -45.03871,5.80872 -67.18106,1.63051 -18.02381,-3.40106 -18.54275,12.69961 1.04671,16.75048 90.61204,9.62174 169.26321,-20.81943 206.13249,-73.15518 5.06054,-10.18628 -6.89162,-13.5289 -17.97936,-4.42106 -35.1406,28.86566 -58.1439,47.99761 -102.73826,53.86409 l -4.94967,-14.05365 c 8.29358,-2.48508 26.51328,-9.77627 35.5331,-13.33799 24.69246,-9.75042 13.71766,-27.50692 -2.02286,-20.60818 -43.1122,18.89531 -81.60156,21.03961 -110.50461,18.60162 l 2.18568,-15.40755 c 48.80637,3.89246 99.24609,-7.37721 133.72828,-39.36348 l 15.25238,11.36523 c -16.69268,12.23232 -5.19677,22.09527 7.16229,14.91794 18.49095,-14.10616 21.10482,-18.94904 33.02883,-35.27954 l 14.91015,6.35473 c -11.1277,18.62691 0.45783,25.75408 8.67592,17.74356 13.87718,-21.36764 34.04871,-46.37579 37.74812,-119.66638 1.56588,-31.0226 -18.06316,-25.00708 -17.58533,-10.95807 1.05404,30.98881 -2.6035,55.84697 -20.0607,97.97126 l -13.44663,-7.65136 c 18.91509,-45.71437 24.72217,-100.90099 14.08616,-141.6949 -7.83601,-8.45079 -16.07827,-0.7209 -15.68017,8.39106 3.39242,77.64506 -5.82513,119.64703 -37.93276,153.26355 l -10.87735,-9.52708 c 24.82923,-32.27551 39.56763,-79.36564 33.42601,-135.93882 -3.22664,-29.72208 -9.39486,-40.04178 -17.13721,-40.04498 z"
       sodipodi:nodetypes="sssccssccsccsccssccccccccssccccccsss"
       inkscape:label="rough_endoplasmic_reticulum">
      <desc
         id="desc976">Rough endoplasmic reticulum membrane</desc>
      <title
         id="title2948">Rough endoplasmic reticulum membrane</title>
    </path>
    <path
       inkscape:connector-curvature="0"
       d="m 367.51581,594.34815 c 12.50619,32.69239 42.41111,35.32384 70.79807,14.60075 8.62658,-6.29758 4.20475,-16.71663 2.78141,-17.84908 -8.65768,-6.88843 -6.44268,10.74644 -33.52432,15.15416 -11.03964,1.79678 -20.74979,-10.5123 -27.49661,-34.21962 -3.07198,-10.79446 -19.04672,5.35304 -12.55855,22.31379 z m -29.7693,19.27537 c 26.85606,33.94437 72.44415,40.27314 113.36848,30.56175 12.43658,-2.9512 6.00605,-13.41565 3.67006,-13.08392 -63.69103,9.04455 -71.88152,8.87401 -105.46626,-32.95201 -8.01426,-9.98085 -19.15014,5.89622 -11.57228,15.47418 z m -48.68234,3.88341 c 43.12891,50.76341 116.24735,70.29641 181.85772,67.83308 19.93846,-0.74859 9.60727,-15.93937 5.86179,-16.08797 -102.12122,-4.0516 -115.25615,-6.30525 -169.18974,-68.97788 -12.87007,-14.95545 -30.6993,2.90905 -18.52977,17.23277 z m -18.57268,45.55529 c 66.32755,-6.13849 132.26053,31.01913 177.44626,78.65353 13.73158,14.47572 -4.27573,18.11301 -7.05744,15.60049 -75.84423,-68.50411 -86.81074,-76.07648 -169.18976,-68.97788 -19.65792,1.69391 -19.91448,-23.54406 -1.19906,-25.27614 z"
       style="opacity:0.998675;fill:#f3f3f3;fill-opacity:0.27843139;stroke:#dddddd;stroke-width:1;stroke-linecap:butt;stroke-linejoin:miter;stroke-miterlimit:4;stroke-dasharray:none;stroke-opacity:1"
       id="golgi_membrane"
       sodipodi:nodetypes="sssssssscssssssssscss"
       inkscape:label="golgi_membrane">
      <desc
         id="desc980">Golgi membrane</desc>
      <title
         id="title2971">Golgi membrane</title>
    </path>
    <path
       id="ribosome"
       style="opacity:0.998675;fill:#f3f3f3;fill-opacity:0.27843139;stroke:#dddddd;stroke-width:1;stroke-linecap:butt;stroke-linejoin:miter;stroke-miterlimit:4;stroke-dasharray:none;stroke-opacity:1"
       d="m 363.09185,329.15207 c -4.67166,0.0488 -9.11926,1.86223 -12.6886,6.60301 -6.80901,9.04367 -2.08779,37.70958 4.64568,45.38417 -2.44516,-2.51217 -2.68691,10.30936 0.52809,13.31175 5.99071,5.59454 16.38625,-1.08479 24.5776,-0.78607 6.80222,0.24806 15.18857,6.62275 20.30849,2.1374 4.74297,-4.1551 3.63474,-23.50877 0.51167,-18.91003 -0.0154,0.0225 -0.0317,0.0422 -0.047,0.0642 4.71111,-7.42053 -2.92519,-28.13712 -9.55076,-33.8854 -4.89781,-4.24929 -17.22047,-14.03465 -28.28499,-13.91915 z"
       sodipodi:nodetypes="sscsssscss"
       inkscape:label="ribosome">
      <desc
         id="desc974">Ribosome</desc>
      <title
         id="title3600">Ribosome</title>
    </path>
    <path
       style="opacity:0.998675;fill:#f3f3f3;fill-opacity:0.27843139;stroke:#dddddd;stroke-width:1;stroke-linecap:butt;stroke-linejoin:miter;stroke-miterlimit:4;stroke-dasharray:none;stroke-opacity:1"
       d="m 139.87863,324.88522 c 2.43312,20.9485 -8.37063,27.53625 -10.78992,33.78092 -4.05586,10.46914 7.44607,9.54779 3.80821,20.15001 -3.83959,11.19015 -29.76969,14.42075 -41.255474,10.07501 -23.070973,-8.72909 -42.732714,-31.09643 -38.081998,-53.93092 4.434903,-21.7749 17.684605,-40.6383 41.255482,-43.26328 18.07349,-2.01277 42.90736,14.6229 45.0637,33.18826 z"
       id="vacuole"
       sodipodi:nodetypes="sssssss"
       inkscape:label="vacuole">
      <desc
         id="desc966">Vacuole</desc>
      <title
         id="title964">Vacuole</title>
    </path>
    <ellipse
       style="opacity:0.998675;fill:#f3f3f3;fill-opacity:0.27843139;stroke:#dddddd;stroke-width:1;stroke-miterlimit:4;stroke-dasharray:none;stroke-opacity:1"
       id="lysosome"
       cx="174.98192"
       cy="594.90082"
       inkscape:label="lysosome"
       rx="52.589211"
       ry="54.017784">
      <desc
         id="desc972">Lysosome</desc>
      <title
         id="title970">Lysosome</title>
    </ellipse>
    <g
       id="centrosome_group"
       inkscape:label="centrosome_group"
       style="opacity:0.99435833;fill:#f3f3f3;stroke:#dddddd;fill-opacity:0.27843139;stroke-opacity:1;stroke-width:1;stroke-miterlimit:4;stroke-dasharray:none">
      <desc
         id="desc1049">Centrosome</desc>
      <title
         id="title1047">Centrosome</title>
      <circle
         r="41.416256"
         cy="615.38593"
         cx="582.24884"
         id="path982"
         style="fill:#f3f3f3;stroke:#dddddd;stroke-width:1;stroke-miterlimit:4;stroke-dasharray:none;stroke-opacity:1;fill-opacity:0.27843139" />
      <path
         id="path1008"
         d="m 581.6736,556.24214 c 0.64546,22.86881 0.64546,22.86881 0.64546,22.86881"
         style="opacity:1;fill:#f3f3f3;stroke:#dddddd;stroke-width:1;stroke-linecap:round;stroke-linejoin:round;stroke-miterlimit:4;stroke-dasharray:none;stroke-opacity:1;fill-opacity:0.27843139" />
      <path
         style="opacity:1;fill:#f3f3f3;stroke:#dddddd;stroke-width:1;stroke-linecap:round;stroke-linejoin:round;stroke-miterlimit:4;stroke-dasharray:none;stroke-opacity:1;fill-opacity:0.27843139"
         d="m 581.66779,652.13481 c 0.65708,22.88042 0.65708,22.88042 0.65708,22.88042"
         id="path1010" />
      <path
         id="path1012"
         d="M 547.30472,614.88088 H 526.78436"
         style="opacity:1;fill:#f3f3f3;stroke:#dddddd;stroke-width:1;stroke-linecap:round;stroke-linejoin:round;stroke-miterlimit:4;stroke-dasharray:none;stroke-opacity:1;fill-opacity:0.27843139" />
      <path
         style="opacity:1;fill:#f3f3f3;stroke:#dddddd;stroke-width:1;stroke-linecap:round;stroke-linejoin:round;stroke-miterlimit:4;stroke-dasharray:none;stroke-opacity:1;fill-opacity:0.27843139"
         d="M 642.60928,614.88088 H 619.70061"
         id="path1014" />
      <path
         id="path1016"
         d="M 556.80911,591.9665 538.99825,577.1861"
         style="opacity:1;fill:#f3f3f3;stroke:#dddddd;stroke-width:1;stroke-linecap:round;stroke-linejoin:round;stroke-miterlimit:4;stroke-dasharray:none;stroke-opacity:1;fill-opacity:0.27843139" />
      <path
         style="opacity:1;fill:#f3f3f3;stroke:#dddddd;stroke-width:1;stroke-linecap:round;stroke-linejoin:round;stroke-miterlimit:4;stroke-dasharray:none;stroke-opacity:1;fill-opacity:0.27843139"
         d="M 624.70606,655.39899 607.40332,640.11655"
         id="path1018" />
      <path
         id="path1020"
         d="M 611.26127,591.42431 628.9979,574.69783"
         style="opacity:1;fill:#f3f3f3;stroke:#dddddd;stroke-width:1;stroke-linecap:round;stroke-linejoin:round;stroke-miterlimit:4;stroke-dasharray:none;stroke-opacity:1;fill-opacity:0.27843139" />
      <path
         style="opacity:1;fill:#f3f3f3;stroke:#dddddd;stroke-width:1;stroke-linecap:round;stroke-linejoin:round;stroke-miterlimit:4;stroke-dasharray:none;stroke-opacity:1;fill-opacity:0.27843139"
         d="m 541.29411,656.38131 16.31816,-15.81308"
         id="path1022" />
    </g>
    <g
       id="perixosome_group"
       inkscape:label="perixosome_group"
       transform="matrix(1.0713619,0,0,1.0713619,-38.568938,-31.762066)"
       style="opacity:0.998675;fill:#f3f3f3;fill-opacity:0.27843139;stroke:#dddddd;stroke-width:0.93339142;stroke-miterlimit:4;stroke-dasharray:none;stroke-opacity:1">
      <desc
         id="desc1070">Perixosome</desc>
      <title
         id="title1068">Perixosome</title>
      <ellipse
         cy="483.27466"
         cx="338.41873"
         id="path1024"
         style="opacity:1;fill:#f3f3f3;fill-opacity:0.27843139;stroke:#dddddd;stroke-width:0.93339142;stroke-miterlimit:4;stroke-dasharray:none;stroke-opacity:1"
         rx="39.18095"
         ry="39.180954" />
      <circle
         cy="483.27466"
         cx="338.4187"
         id="path1026"
         style="opacity:1;fill:#f3f3f3;fill-opacity:0.27843139;stroke:#dddddd;stroke-width:0.93339142;stroke-miterlimit:4;stroke-dasharray:none;stroke-opacity:1"
         r="49.936951" />
      <path
         id="path1028"
         d="m 319.46133,469.25647 16.66752,-6.06092 15.15229,6.56599 11.11167,14.14214 -8.58629,13.13198 -16.66752,9.09138 -18.18275,-21.71828 z"
         style="fill:#f3f3f3;fill-opacity:0.278431;stroke:#dddddd;stroke-width:0.933391;stroke-linecap:butt;stroke-linejoin:miter;stroke-miterlimit:4;stroke-dasharray:none;stroke-opacity:1" />
    </g>
    <path
       inkscape:label="microtubules"
       style="opacity:0.998675;fill:#f3f3f3;fill-opacity:0.278431;stroke:#dddddd;stroke-width:1;stroke-linecap:butt;stroke-linejoin:miter;stroke-miterlimit:4;stroke-dasharray:none;stroke-opacity:1"
       d="m 103.70985,458.14035 124.8926,-87.87153 -0.53603,32.67875 33.64919,10.89292 -123.44015,87.64258 -0.84586,-33.71871 z"
       id="microtubules"
       sodipodi:nodetypes="ccccccc">
      <desc
         id="desc887">Microtubules</desc>
      <title
         id="title885">Microtubules</title>
    </path>
    <ellipse
       style="fill:#f3f3f3;fill-opacity:0.27843139;stroke:#dddddd;stroke-width:1.00324067;stroke-miterlimit:4;stroke-dasharray:none;stroke-opacity:1"
       id="path1407"
       cx="294.93265"
       cy="-26.73078"
       rx="80.788879"
       ry="139.14984"
       transform="matrix(0.74612148,0.66580983,-0.74612148,0.66580983,0,0)" />
    <ellipse
       transform="matrix(0.75149753,0.65973591,-0.75149753,0.65973591,0,0)"
       ry="127.85449"
       rx="68.635757"
       cy="-24.762552"
       cx="294.78857"
       id="ellipse1409"
       style="fill:#f3f3f3;fill-opacity:0.27843139;stroke:#dddddd;stroke-width:1.00423687;stroke-miterlimit:4;stroke-dasharray:none;stroke-opacity:1" />
    <path
       id="ellipse1411"
       style="fill:#f3f3f3;fill-opacity:0.278431;stroke:#dddddd;stroke-width:1;stroke-miterlimit:4;stroke-dasharray:none;stroke-opacity:1"
       d="m 253.21882,185.38033 c -12.09731,10.92123 40.60768,20.8558 22.37378,39.97138 -22.28465,23.36219 -40.5428,-25.58487 -49.67608,-16.02401 -13.36601,13.99174 36.72186,18.34998 14.24177,39.4453 -19.87794,18.65347 -36.01298,-29.19273 -40.11154,-9.72345 -3.04855,14.4814 -19.78504,33.3672 -46.35198,15.81701 -16.45376,-13.85374 -16.72773,-38.129 10.2421,-44.8986 21.27212,-6.30785 -21.43563,-10.65576 -4.90895,-32.31757 19.05672,-24.97799 31.86173,23.88633 43.38363,10.23761 9.23394,-10.93843 -38.72314,-19.23665 -20.15744,-40.59771 20.72196,-23.84197 35.66901,30.67591 48.3489,18.02661 9.27499,-9.25261 -37.27411,-22.04694 -18.93699,-40.84546 23.20307,-23.7869 38.81086,25.89974 47.23968,16.79646 14.15113,-15.28348 -32.9385,-17.69331 -11.4747,-38.45223 21.75247,-21.038107 34.67416,32.73394 37.21893,4.1403 2.27463,-25.55829 38.9135,-22.08666 47.72177,-7.438279 10.25643,17.056699 14.7696,33.616039 -9.44032,38.292249 -29.30148,5.65966 20.08439,14.06472 1.47139,35.60318 -18.43804,21.336 -35.18465,-21.85572 -41.83561,-13.33871 -10.85266,10.03835 41.99347,20.53055 19.23704,42.34533 -21.03281,23.30903 -35.78906,-28.59169 -48.58538,-17.03941 z"
       sodipodi:nodetypes="sssssccsssssssssssccs" />
    <path
       sodipodi:nodetypes="sssssccsssssssssssccs"
       d="m 244.00565,179.37787 c -18.52381,18.42417 25.97998,34.22276 22.19504,39.79454 -5.55758,8.18127 -31.22367,-33.36668 -46.51095,-16.86673 -21.24698,22.93242 18.81336,33.10929 14.80941,39.01326 -5.6844,8.38186 -31.53525,-35.09493 -41.70424,-13.09263 -2.23709,4.84031 -6.01811,29.37836 -25.94721,17.42528 -14.55463,-8.32614 -14.46754,-20.33538 8.13954,-29.62035 27.96503,-7.3655 -12.24433,-27.42594 -8.32565,-32.62579 7.16893,-9.51273 21.38875,35.83697 45.02438,12.53109 16.36053,-16.13228 -26.66942,-35.6165 -21.979,-42.95839 4.24503,-6.64472 26.30545,39.44341 48.74349,20.4925 20.63409,-17.42732 -22.49361,-35.67651 -18.08351,-43.53469 5.2395,-9.33607 26.02703,39.43687 46.53984,18.37413 21.03675,-21.60072 -17.8502,-31.87473 -11.81231,-38.20341 3.31153,-3.47102 31.74269,36.91976 35.73896,9.78857 4.0309,-27.366321 26.45917,-21.960541 32.79073,-12.32138 8.06155,12.27291 6.52981,17.97839 -17.01809,24.60063 -29.65936,8.34093 12.42039,31.00489 9.91387,34.26848 -5.72063,7.44852 -24.15946,-33.17886 -42.18526,-12.82934 -21.05595,20.01972 25.16853,32.02051 19.69506,42.05937 -4.2647,5.26185 -30.96309,-35.25362 -50.0241,-16.29514 z"
       style="fill:#f3f3f3;fill-opacity:0.278431;stroke:#dddddd;stroke-width:1;stroke-miterlimit:4;stroke-dasharray:none;stroke-opacity:1"
       id="path893" />
    <circle
       inkscape:label="nucleus"
       r="53.228928"
       cy="232.91878"
       cx="521.45758"
       id="circle899"
       style="opacity:0.998675;fill:#f3f3f3;fill-opacity:0.278431;stroke:#dddddd;stroke-width:1;stroke-miterlimit:4;stroke-dasharray:none;stroke-opacity:1">
      <desc
         id="desc895">Nucleus</desc>
      <title
         id="title897">Nucleus</title>
    </circle>
    <path
       sodipodi:nodetypes="cssssc"
       d="m 592.01541,299.81617 c -32.48327,56.26268 -104.42608,75.5397 -160.68876,43.05642 -56.26268,-32.48327 -75.5397,-104.42608 -43.05642,-160.68876 21.14033,-36.61613 58.99372,-57.567 98.36099,-58.78001 21.12269,-0.65086 42.68121,4.38064 62.32777,15.72359 56.26268,32.48327 75.5397,104.42608 43.05642,160.68876"
       inkscape:label="nucleus"
       style="opacity:0.998675;fill:#f3f3f3;fill-opacity:0.28;stroke:#dddddd;stroke-width:1;stroke-miterlimit:4;stroke-dasharray:none;stroke-opacity:1"
       id="circle905">
      <desc
         id="desc901">Nucleus</desc>
      <title
         id="title903">Nucleus</title>
    </path>
    <path
       sodipodi:nodetypes="ccccc"
       id="path915"
       d="m 509.64873,124.58501 c 13.24699,4.58712 18.06446,-6.8621 2.29284,-11.95094 -63.03924,-8.08524 -89.29856,15.00898 -116.0171,37.04177 -9.98879,12.95383 2.36113,17.58561 10.90745,8.49341 29.28707,-29.83692 69.00355,-37.87739 102.81681,-33.58424 z"
       style="fill:none;stroke:#dddddd;stroke-width:1px;stroke-linecap:butt;stroke-linejoin:miter;stroke-opacity:1" />
    <path
       sodipodi:nodetypes="ccccc"
       id="path917"
       d="m 580.50017,146.10186 c -10.82376,-7.95296 -17.50014,2.57793 -10.12298,9.13764 35.42829,32.90926 41.75278,77.64018 34.98671,108.63126 -3.65853,9.20255 7.87989,14.94786 12.54594,3.8899 10.46281,-57.5058 -13.04414,-95.72709 -37.40967,-121.6588 z"
       style="fill:none;stroke:#dddddd;stroke-width:1px;stroke-linecap:butt;stroke-linejoin:miter;stroke-opacity:1" />
    <path
       sodipodi:nodetypes="ccccc"
       id="path919"
       d="m 376.44911,210.49479 c -13.08789,46.844 7.23558,87.87708 24.30465,106.79142 5.94347,8.95369 -3.48077,15.42631 -12.39177,5.14665 -25.31749,-30.63509 -35.26431,-65.05219 -25.21148,-111.43581 2.51729,-10.32851 15.96271,-8.63835 13.2986,-0.50226 z"
       style="fill:none;stroke:#dddddd;stroke-width:1px;stroke-linecap:butt;stroke-linejoin:miter;stroke-opacity:1" />
    <path
       sodipodi:nodetypes="ccccc"
       id="path921"
       d="m 580.59754,316.86117 c -28.87614,34.60137 -77.90925,49.42675 -121.86894,37.6525 -7.5321,-1.28843 -11.22756,10.78796 1.01202,14.06481 44.58968,9.09396 93.15665,0.31608 127.99509,-40.2112 8.98328,-9.28468 -0.85128,-17.89735 -7.13817,-11.50611 z"
       style="fill:none;stroke:#dddddd;stroke-width:1px;stroke-linecap:butt;stroke-linejoin:miter;stroke-opacity:1" />
  </g>
</svg>
