<?xml version="1.0" encoding="UTF-8" standalone="no"?>
<svg
   xmlns:dc="http://purl.org/dc/elements/1.1/"
   xmlns:cc="http://creativecommons.org/ns#"
   xmlns:rdf="http://www.w3.org/1999/02/22-rdf-syntax-ns#"
   xmlns:svg="http://www.w3.org/2000/svg"
   xmlns="http://www.w3.org/2000/svg"
   xmlns:sodipodi="http://sodipodi.sourceforge.net/DTD/sodipodi-0.dtd"
   xmlns:inkscape="http://www.inkscape.org/namespaces/inkscape"
   id="SVGRoot"
   version="1.1"
   viewBox="0 0 800 800"
   inkscape:version="1.0 (4035a4fb49, 2020-05-01)"
   sodipodi:docname="mitochondrion.svg">
  <defs
     id="defs898" />
  <sodipodi:namedview
     id="base"
     pagecolor="#ffffff"
     bordercolor="#666666"
     borderopacity="1.0"
     inkscape:pageopacity="0.0"
     inkscape:pageshadow="2"
     inkscape:zoom="1.4"
     inkscape:cx="433.61618"
     inkscape:cy="291.93374"
     inkscape:document-units="px"
     inkscape:current-layer="layer1"
     inkscape:document-rotation="0"
     showgrid="false"
     inkscape:window-width="1366"
     inkscape:window-height="745"
     inkscape:window-x="-8"
     inkscape:window-y="-8"
     inkscape:window-maximized="1"
     showguides="false" />
  <metadata
     id="metadata901">
    <rdf:RDF>
      <cc:Work
         rdf:about="">
        <dc:format>image/svg+xml</dc:format>
        <dc:type
           rdf:resource="http://purl.org/dc/dcmitype/StillImage" />
        <dc:title />
      </cc:Work>
    </rdf:RDF>
  </metadata>
  <g
     inkscape:label="Layer 1"
     inkscape:groupmode="layer"
     id="layer1">
    <ellipse
       style="opacity:1;fill:#eef4d7;fill-opacity:0.278431;stroke:#cdde87;stroke-width:1.00324067;stroke-miterlimit:4;stroke-dasharray:none;stroke-opacity:1"
       id="path1407"
       cx="565.55823"
       cy="27.3703"
       rx="264.84866"
       ry="456.17233"
       transform="matrix(0.74612148,0.66580983,-0.74612148,0.66580983,0,0)">
      <title
         id="title906">Mitochondrion outer membrane</title>
    </ellipse>
    <ellipse
       transform="matrix(0.75149753,0.65973591,-0.75149753,0.65973591,0,0)"
       ry="419.14301"
       rx="225.00732"
       cy="30.657942"
       cx="565.61407"
       id="ellipse1409"
       style="opacity:1;fill:#eef4d7;fill-opacity:0.278431;stroke:#cdde87;stroke-width:1.00423687;stroke-miterlimit:4;stroke-dasharray:none;stroke-opacity:1">
      <title
         id="title908">Mitochondrion intermembrane space</title>
    </ellipse>
    <path
       id="ellipse1411"
       style="opacity:1;fill:#eef4d7;fill-opacity:0.278431;stroke:#cdde87;stroke-width:1;stroke-miterlimit:4;stroke-dasharray:none;stroke-opacity:1"
       d="m 444.88835,417.09887 c -39.65838,35.80287 133.1234,68.37118 73.34755,131.03743 -73.05535,76.58783 -132.9107,-83.8744 -162.85216,-52.53121 -43.81759,45.86886 120.38458,60.1564 46.68852,129.31279 C 336.90679,686.0692 284.01154,529.2159 270.57531,593.04167 260.5813,640.51578 205.71438,702.42874 118.62048,644.89428 64.680425,599.47783 63.782274,519.8967 152.19696,497.70404 c 69.736,-20.6789 -70.272021,-34.93258 -16.09292,-105.94608 62.47329,-81.88489 104.45172,78.30611 142.22375,33.56176 30.27145,-35.85925 -126.94535,-63.06315 -66.08176,-133.09072 67.93241,-78.16068 116.93306,100.56427 158.50134,59.09631 30.40602,-30.33267 -122.19506,-72.27608 -62.08083,-133.90292 76.06624,-77.98014 127.23296,84.90664 154.86501,55.06352 46.39138,-50.10354 -107.98167,-58.00364 -37.6173,-126.05722 71.31072,-68.968843 113.67165,107.31106 122.01412,13.57307 7.45688,-83.787267 123.82023,-69.942298 156.44539,-24.38478 27.00032,37.70306 48.4189,110.20284 -30.94802,125.53277 -96.0585,18.55396 65.84228,46.10811 4.82363,116.71724 -60.44509,69.94541 -115.34518,-71.6492 -137.1489,-43.72805 -35.57807,32.90855 137.66641,67.30493 63.06443,138.81991 -68.95147,76.41356 -117.32661,-93.7316 -159.27655,-55.85998 z"
       sodipodi:nodetypes="sssssccsssssssssssccs">
      <title
         id="title910">Mitochondrion inner membrane</title>
    </path>
    <path
       d="m 551.9385,344.1876 38.08297,38.08301 m -129.151,43.05033 62.91972,61.26393 m -158.95507,26.49251 54.64082,43.05036 m -195.38233,-177.16868 46.36188,41.39453 m 140.74154,-211.94011 39.73877,39.73877 m -140.74155,49.67347 c 46.36196,46.36188 48.01772,46.36188 48.01772,46.36188 v 0 0"
       style="display:none;fill:none;stroke:#0000e6;stroke-width:3.27828px;stroke-linecap:butt;stroke-linejoin:miter;stroke-opacity:1"
       id="mitochondrion_cristae" />
    <path
       sodipodi:nodetypes="sssssccsssssssssssccs"
       d="m 414.68499,397.42112 c -60.72626,60.39961 85.16968,112.19184 72.76159,130.4577 -18.21931,26.8205 -102.35998,-109.38536 -152.47598,-55.29389 -69.65362,75.17893 61.67549,108.54157 48.54941,127.89644 -18.63506,27.4781 -103.38146,-115.05105 -136.71827,-42.92132 -7.33381,15.8679 -19.72906,96.31053 -85.06226,57.12497 -47.71417,-27.29543 -47.42866,-66.6651 26.6837,-97.10384 91.67724,-24.14618 -40.14035,-89.90995 -27.29382,-106.95652 23.50177,-31.1854 70.11834,117.48367 147.60258,41.08044 53.63447,-52.88615 -87.42986,-116.76091 -72.05334,-140.82969 13.9164,-21.78326 86.23668,129.3066 159.79492,67.18018 67.64435,-57.13166 -73.74042,-116.95764 -59.28284,-142.71896 17.17656,-30.60627 85.32393,129.28516 152.57069,60.23556 68.96438,-70.81323 -58.51798,-104.49433 -38.72407,-125.24152 10.85612,-11.37898 104.06146,121.03336 117.16236,32.08969 13.21442,-89.71453 86.7406,-71.99286 107.49724,-40.39295 26.42802,40.23405 21.40655,58.93822 -55.79009,80.64778 -97.23172,27.34392 40.71753,101.64276 32.50045,112.34172 -18.75383,24.41835 -79.2015,-108.76964 -138.29514,-42.05819 -69.02733,65.63028 82.50952,104.97225 64.56594,137.88246 C 564.69718,468.091 477.17234,335.26989 414.68499,397.42112 Z"
       style="opacity:1;fill:#eef4d7;fill-opacity:0.278431;stroke:#cdde87;stroke-width:1;stroke-miterlimit:4;stroke-dasharray:none;stroke-opacity:1"
       id="path893">
      <title
         id="title912">Mitochondrion matrix</title>
    </path>
    <ellipse
       cx="565.55823"
       cy="27.3703"
       rx="243.58139"
       ry="440.52335"
       transform="matrix(0.74612148,0.66580983,-0.74612148,0.66580983,0,0)"
       id="outer_mitochondrion_membrane"
       style="display:none;opacity:1;fill:none;fill-opacity:0.278431;stroke:#cd0087;stroke-width:3.11911;stroke-miterlimit:4;stroke-dasharray:none;stroke-opacity:1">
      <title
         id="title1472">Mitochondrion outer membrane</title>
    </ellipse>
    <path
       sodipodi:nodetypes="cccccccccccccccccccccccccccccccccc"
       id="mitochondrion_intermembrane_space"
       d="m 737.38609,162.0516 1.65579,91.068 -49.67347,29.80407 21.52516,52.98502 -41.39456,77.82178 -28.14827,1.65577 v 28.1483 l -57.95238,72.85443 -29.8041,-4.96735 -13.24626,43.05032 -66.23128,39.73877 -26.49251,-13.24626 -16.55781,39.73877 -74.51019,44.70612 -139.08575,19.8694 H 197.60109 L 114.81197,670.37669 55.203832,589.24336 76.728994,493.20801 128.05822,476.6502 94.9426,435.25564 l 66.23128,-97.69115 29.80407,14.90205 -8.27891,-38.08301 48.01768,-56.29658 46.36191,1.65579 v -29.8041 l 64.57553,-54.64078 41.39457,8.2789 14.90205,-36.42721 84.44485,-39.7388 39.7388,38.08301 26.49251,-51.329267 61.26393,-6.623112"
       style="display:none;fill:none;stroke:#da00ba;stroke-width:3.27828px;stroke-linecap:butt;stroke-linejoin:miter;stroke-opacity:1" />
    <path
       id="mitochondrion_inner_membrane"
       d="m 667.84325,130.59171 -46.36191,-14.90202 -43.05033,14.90202 -31.45986,81.13333 -28.14831,-16.55782 -56.29658,-48.01767 -39.73877,31.45986 71.19863,64.57549 -16.55781,39.73877 -34.77145,13.24625 -79.47754,-79.47753 h -34.77145 l -13.24625,34.77141 77.82181,76.16599 -11.5905,43.05036 -38.08297,1.65576 -92.72384,-81.13334 -26.49251,6.62315 -11.5905,31.45986 91.06803,82.7891 -19.8694,34.77142 -33.11562,8.2789 -77.82178,-69.54283 -19.86937,8.2789 -8.2789,33.11566 52.98502,57.95237 -21.52516,18.21361 -66.23131,33.11562 v 59.60817 l 52.98506,51.32923 66.23128,-13.24625 41.39453,-81.13333 38.083,19.8694 56.29663,49.67347 38.08297,-21.52517 -3.31155,-24.83675 -62.91973,-43.05032 V 484.9291 l 18.21361,-9.9347 43.05036,13.24626 59.60813,54.64082 43.05033,3.31156 6.62314,-29.80407 -86.10068,-77.82178 11.59049,-34.77142 43.05033,-9.9347 87.75644,79.47754 44.70612,-26.49251 -21.52516,-41.39453 -69.54284,-51.32927 4.96735,-31.45986 29.80407,-14.90202 86.10065,64.57549 24.83675,3.31156 11.59046,-28.14828 -59.60814,-69.54287 13.24626,-21.52516 66.23128,-28.14828 18.21361,-41.39456 z"
       style="display:none;fill:none;stroke:#e200dc;stroke-width:3.27828px;stroke-linecap:butt;stroke-linejoin:miter;stroke-opacity:1" />
    <path
       id="mitochondrion_matrix"
       d="m 626.44869,157.08425 41.39456,36.42718 -19.8694,18.21361 -38.08298,-38.08298 -24.83675,19.86937 29.8041,34.77145 -49.67346,29.80407 -13.24626,-11.59046 -81.13333,84.44485 11.59046,36.42722 -51.32923,-38.08298 V 364.057 l -59.60817,59.60817 4.96735,19.86937 -39.73877,-31.45986 -8.27894,44.70612 -31.45987,28.1483 v 39.73877 l -59.60814,-39.73877 3.31156,43.05033 -49.67347,3.31155 36.42721,24.83676 -11.59046,21.52516 -46.36191,-33.11566 -18.21361,24.83675 54.64082,33.11563"
       style="display:none;fill:none;stroke:#de00e2;stroke-width:3.27828px;stroke-linecap:butt;stroke-linejoin:miter;stroke-opacity:1" />
  </g>
</svg>
